<?xml version="1.0" encoding="UTF-8"?>
<!-- Generator: CustomSymbols v2.7.2.48 by @serious_bret https://bretlester.com/app_content/CustomSymbols/ -->
<!-- Guides: Left/Right 0.191/0.189 Cap/Base 0.277/0.201 -->
<!-- Settings: RefScale 1.0 Min/Max Stroke Scales 0.5/2.2100000381469727 -->
<!DOCTYPE svg
PUBLIC "-//W3C//DTD SVG 1.1//EN"
       "http://www.w3.org/Graphics/SVG/1.1/DTD/svg11.dtd">
<svg version="1.1" xmlns="http://www.w3.org/2000/svg" xmlns:xlink="http://www.w3.org/1999/xlink" width="3300" height="2200">
<![CDATA[<?xml version="1.0" encoding="UTF-8"?>
<svg id="Layer_1" data-name="Layer 1" xmlns="http://www.w3.org/2000/svg" viewBox="0 0 165.1300049 217.3099976">
  <defs>
    <style>
      .cls-1 {
        fill: #231f20;
        stroke-width: 0px;
      }
    </style>
  </defs>
  <path class="cls-1" d="M151.0400391,135.1300049v-45.1300049h-45.6500244v22.039978h30.2600098v52.8300171H30.7800293v-51.6499634h30v-23.2200317H15.3900146v45.4000244H0v67.2999878h15.3900146v14.6099854h135.3900146v-14.8699951h14.3499756v-67.3099976h-14.0899658ZM135.3900146,202.1799927H30.5200195v-14.3499756h104.8699951v14.3499756Z"/>
  <rect class="cls-1" x="68.0852369" y="90.0039301" width="30" height="22.0343549"/>
  <polygon class="cls-1" points="68.0852369 120.078263 98.0852369 120.078263 98.0852369 128.0908867 91.3026282 128.0908867 91.3026282 142.1778432 113.2156717 142.1778432 113.2156717 127.8300171 105.3895847 127.8300171 105.3895847 120.078263 128.6069761 120.078263 128.6069761 157.7382362 38.6069761 157.7382362 38.6069761 120.078263 60.5200195 120.078263 60.5200195 127.308278 53.2156717 127.308278 53.2156717 142.6995823 75.1287152 142.6995823 75.1287152 127.5691475 68.0852369 127.5691475 68.0852369 120.078263"/>
  <path class="cls-1" d="M105.6471863,30.5300293V0h-45.1299438v30.5300293H7.8172302v52.4299927h52.1799927v-37.5600049h8.0899658v37.5600049h29.4700317v-37.5599976l8.0899658-.0000073v37.5600049h52.4400024V30.5300293h-52.4400024ZM68.0871887,23.2200317v-15.1300049h30v15.1300049h-30Z"/>
</svg>]]>
 <g id="Notes">
  <rect height="2200" id="artboard" style="fill:white;opacity:1" width="3300" x="0" y="0"/>
  <line id="" style="fill:none;stroke:black;opacity:1;stroke-width:0.5;" x1="263" x2="3036" y1="292" y2="292"/>
  <text id="reftext1" style="stroke:none;fill:black;font-family:-apple-system,&quot;SF Pro Display&quot;,&quot;SF Pro Text&quot;,Helvetica,sans-serif;font-weight:bold;" transform="matrix(1 0 0 1 263 322)">Weight/Scale Variations</text>
  <text id="reftext2" style="stroke:none;fill:black;font-family:-apple-system,&quot;SF Pro Display&quot;,&quot;SF Pro Text&quot;,Helvetica,sans-serif;text-anchor:middle;" transform="matrix(1 0 0 1 559.711 322)">Ultralight</text>
  <text style="stroke:none;fill:black;font-family:-apple-system,&quot;SF Pro Display&quot;,&quot;SF Pro Text&quot;,Helvetica,sans-serif;text-anchor:middle;" transform="matrix(1 0 0 1 856.422 322)">Thin</text>
  <text style="stroke:none;fill:black;font-family:-apple-system,&quot;SF Pro Display&quot;,&quot;SF Pro Text&quot;,Helvetica,sans-serif;text-anchor:middle;" transform="matrix(1 0 0 1 1153.13 322)">Light</text>
  <text style="stroke:none;fill:black;font-family:-apple-system,&quot;SF Pro Display&quot;,&quot;SF Pro Text&quot;,Helvetica,sans-serif;text-anchor:middle;" transform="matrix(1 0 0 1 1449.84 322)">Regular</text>
  <text style="stroke:none;fill:black;font-family:-apple-system,&quot;SF Pro Display&quot;,&quot;SF Pro Text&quot;,Helvetica,sans-serif;text-anchor:middle;" transform="matrix(1 0 0 1 1746.56 322)">Medium</text>
  <text style="stroke:none;fill:black;font-family:-apple-system,&quot;SF Pro Display&quot;,&quot;SF Pro Text&quot;,Helvetica,sans-serif;text-anchor:middle;" transform="matrix(1 0 0 1 2043.27 322)">Semibold</text>
  <text style="stroke:none;fill:black;font-family:-apple-system,&quot;SF Pro Display&quot;,&quot;SF Pro Text&quot;,Helvetica,sans-serif;text-anchor:middle;" transform="matrix(1 0 0 1 2339.98 322)">Bold</text>
  <text style="stroke:none;fill:black;font-family:-apple-system,&quot;SF Pro Display&quot;,&quot;SF Pro Text&quot;,Helvetica,sans-serif;text-anchor:middle;" transform="matrix(1 0 0 1 2636.69 322)">Heavy</text>
  <text style="stroke:none;fill:black;font-family:-apple-system,&quot;SF Pro Display&quot;,&quot;SF Pro Text&quot;,Helvetica,sans-serif;text-anchor:middle;" transform="matrix(1 0 0 1 2933.4 322)">Black</text>
  <line id="" style="fill:none;stroke:black;opacity:1;stroke-width:0.5;" x1="263" x2="3036" y1="1903" y2="1903"/>
  <g id="" transform="matrix(1 0 0 1 263 1933)">
   <path d="M9.24805 0.830078C13.5547 0.830078 17.1387-2.74414 17.1387-7.05078C17.1387-11.3574 13.5449-14.9316 9.23828-14.9316C4.94141-14.9316 1.36719-11.3574 1.36719-7.05078C1.36719-2.74414 4.95117 0.830078 9.24805 0.830078ZM9.24805-0.654297C5.70312-0.654297 2.87109-3.49609 2.87109-7.05078C2.87109-10.6055 5.69336-13.4473 9.23828-13.4473C12.793-13.4473 15.6348-10.6055 15.6445-7.05078C15.6543-3.49609 12.8027-0.654297 9.24805-0.654297ZM6.39648-6.31836L8.50586-6.31836L8.50586-4.19922C8.50586-3.75977 8.79883-3.45703 9.22852-3.45703C9.67773-3.45703 9.9707-3.75977 9.9707-4.19922L9.9707-6.31836L12.0996-6.31836C12.5391-6.31836 12.8418-6.61133 12.8418-7.04102C12.8418-7.48047 12.5391-7.7832 12.0996-7.7832L9.9707-7.7832L9.9707-9.89258C9.9707-10.3418 9.67773-10.6445 9.22852-10.6445C8.79883-10.6445 8.50586-10.3418 8.50586-9.89258L8.50586-7.7832L6.39648-7.7832C5.94727-7.7832 5.64453-7.48047 5.64453-7.04102C5.64453-6.61133 5.94727-6.31836 6.39648-6.31836Z"/>
  </g>
  <g id="" transform="matrix(1 0 0 1 281.506 1933)">
   <path d="M11.709 2.91016C17.1582 2.91016 21.6699-1.61133 21.6699-7.05078C21.6699-12.5 17.1484-17.0117 11.6992-17.0117C6.25977-17.0117 1.74805-12.5 1.74805-7.05078C1.74805-1.61133 6.26953 2.91016 11.709 2.91016ZM11.709 1.25C7.09961 1.25 3.41797-2.44141 3.41797-7.05078C3.41797-11.6602 7.08984-15.3516 11.6992-15.3516C16.3086-15.3516 20-11.6602 20.0098-7.05078C20.0195-2.44141 16.3184 1.25 11.709 1.25ZM7.98828-6.23047L10.8789-6.23047L10.8789-3.32031C10.8789-2.83203 11.2109-2.5 11.6895-2.5C12.1777-2.5 12.5195-2.83203 12.5195-3.32031L12.5195-6.23047L15.4297-6.23047C15.918-6.23047 16.25-6.5625 16.25-7.04102C16.25-7.5293 15.918-7.87109 15.4297-7.87109L12.5195-7.87109L12.5195-10.7617C12.5195-11.2695 12.1777-11.6016 11.6895-11.6016C11.2109-11.6016 10.8789-11.2598 10.8789-10.7617L10.8789-7.87109L7.98828-7.87109C7.48047-7.87109 7.14844-7.5293 7.14844-7.04102C7.14844-6.5625 7.49023-6.23047 7.98828-6.23047Z"/>
  </g>
  <g id="" transform="matrix(1 0 0 1 304.924 1933)">
   <path d="M14.9707 5.66406C21.9336 5.66406 27.6953-0.0976562 27.6953-7.05078C27.6953-14.0137 21.9238-19.7754 14.9609-19.7754C8.00781-19.7754 2.25586-14.0137 2.25586-7.05078C2.25586-0.0976562 8.01758 5.66406 14.9707 5.66406ZM14.9707 3.84766C8.93555 3.84766 4.08203-1.01562 4.08203-7.05078C4.08203-13.0957 8.92578-17.9492 14.9609-17.9492C21.0059-17.9492 25.8594-13.0957 25.8691-7.05078C25.8789-1.01562 21.0156 3.84766 14.9707 3.84766ZM10.0586-6.14258L14.0625-6.14258L14.0625-2.12891C14.0625-1.5918 14.4336-1.2207 14.9512-1.2207C15.4883-1.2207 15.8594-1.5918 15.8594-2.12891L15.8594-6.14258L19.8828-6.14258C20.4102-6.14258 20.791-6.51367 20.791-7.03125C20.791-7.56836 20.4199-7.94922 19.8828-7.94922L15.8594-7.94922L15.8594-11.9531C15.8594-12.5098 15.4883-12.8809 14.9512-12.8809C14.4336-12.8809 14.0625-12.5 14.0625-11.9531L14.0625-7.94922L10.0586-7.94922C9.50195-7.94922 9.13086-7.56836 9.13086-7.03125C9.13086-6.51367 9.51172-6.14258 10.0586-6.14258Z"/>
  </g>
  <text style="stroke:none;fill:black;font-family:-apple-system,&quot;SF Pro Display&quot;,&quot;SF Pro Text&quot;,Helvetica,sans-serif;font-weight:bold;" transform="matrix(1 0 0 1 263 1953)">Design Variations</text>
  <text style="stroke:none;fill:black;font-family:-apple-system,&quot;SF Pro Display&quot;,&quot;SF Pro Text&quot;,Helvetica,sans-serif;" transform="matrix(1 0 0 1 263 1971)">Symbols are supported in up to nine weights and three scales.</text>
  <text style="stroke:none;fill:black;font-family:-apple-system,&quot;SF Pro Display&quot;,&quot;SF Pro Text&quot;,Helvetica,sans-serif;" transform="matrix(1 0 0 1 263 1989)">For optimal layout with text and other symbols, vertically align</text>
  <text style="stroke:none;fill:black;font-family:-apple-system,&quot;SF Pro Display&quot;,&quot;SF Pro Text&quot;,Helvetica,sans-serif;" transform="matrix(1 0 0 1 263 2007)">symbols with the adjacent text.</text>
  <line id="" style="fill:none;stroke:#00AEEF;stroke-width:0.5;opacity:1.0;" x1="776" x2="776" y1="1919" y2="1933"/>
  <g id="" transform="matrix(1 0 0 1 776 1933)">
   <path d="M3.31055 0.126953C3.82812 0.126953 4.08203-0.0683594 4.26758-0.605469L5.52734-4.0625L11.2891-4.0625L12.5488-0.605469C12.7344-0.0683594 12.9883 0.126953 13.4961 0.126953C14.0137 0.126953 14.3457-0.185547 14.3457-0.673828C14.3457-0.839844 14.3164-0.986328 14.2383-1.20117L9.6582-13.3887C9.43359-13.9941 9.0332-14.2871 8.4082-14.2871C7.80273-14.2871 7.39258-13.9941 7.17773-13.3984L2.59766-1.19141C2.51953-0.976562 2.49023-0.830078 2.49023-0.664062C2.49023-0.175781 2.80273 0.126953 3.31055 0.126953ZM6.00586-5.53711L8.37891-12.1094L8.42773-12.1094L10.8008-5.53711Z"/>
  </g>
  <line id="" style="fill:none;stroke:#00AEEF;stroke-width:0.5;opacity:1.0;" x1="792.836" x2="792.836" y1="1919" y2="1933"/>
  <text style="stroke:none;fill:black;font-family:-apple-system,&quot;SF Pro Display&quot;,&quot;SF Pro Text&quot;,Helvetica,sans-serif;font-weight:bold;" transform="matrix(1 0 0 1 776 1953)">Margins</text>
  <text style="stroke:none;fill:black;font-family:-apple-system,&quot;SF Pro Display&quot;,&quot;SF Pro Text&quot;,Helvetica,sans-serif;" transform="matrix(1 0 0 1 776 1971)">Leading and trailing margins on the left and right side of each symbol</text>
  <text style="stroke:none;fill:black;font-family:-apple-system,&quot;SF Pro Display&quot;,&quot;SF Pro Text&quot;,Helvetica,sans-serif;" transform="matrix(1 0 0 1 776 1989)">can be adjusted by modifying the x-location of the margin guidelines.</text>
  <text style="stroke:none;fill:black;font-family:-apple-system,&quot;SF Pro Display&quot;,&quot;SF Pro Text&quot;,Helvetica,sans-serif;" transform="matrix(1 0 0 1 776 2007)">Modifications are automatically applied proportionally to all</text>
  <text style="stroke:none;fill:black;font-family:-apple-system,&quot;SF Pro Display&quot;,&quot;SF Pro Text&quot;,Helvetica,sans-serif;" transform="matrix(1 0 0 1 776 2025)">scales and weights.</text>
  <g id="" transform="matrix(1 0 0 1 1289 1933)">
   <path d="M2.8418 1.86523L4.54102 3.57422C5.40039 4.44336 6.38672 4.38477 7.31445 3.35938L17.4902-7.85156C17.7539-7.76367 18.0273-7.7832 18.3398-7.8418L19.4043-8.03711L20.0684-7.36328L20.0293-6.80664C19.9902-6.30859 20.1172-5.92773 20.6055-5.44922L21.3672-4.70703C21.8457-4.22852 22.4609-4.19922 22.9297-4.66797L25.8398-7.58789C26.3086-8.05664 26.2891-8.65234 25.8105-9.13086L25.0391-9.89258C24.5605-10.3711 24.1895-10.5273 23.7109-10.4883L23.1348-10.4395L22.4902-11.0742L22.7344-12.1973C22.8613-12.7637 22.7051-13.2031 22.1191-13.7891L19.9219-15.9766C16.582-19.2969 12.1484-19.2188 9.25781-16.3281C8.83789-15.918 8.80859-15.3418 9.04297-14.9512C9.27734-14.5898 9.73633-14.3555 10.3809-14.5215C11.8457-14.8633 13.3691-14.9219 14.7949-13.9844L14.209-12.5293C14.0137-12.0508 13.9844-11.6504 14.1113-11.2891L3.04688-0.898438C2.06055 0.0195312 1.98242 0.996094 2.8418 1.86523ZM10.752-15.957C13.1836-17.7344 16.4746-17.4316 18.7012-15.2051L21.1328-12.793C21.3672-12.5586 21.4062-12.373 21.3379-12.0312L21.0156-10.5469L22.5195-9.0625L23.5059-9.12109C23.7598-9.13086 23.8379-9.11133 24.0332-8.91602L24.6094-8.33984L22.168-5.89844L21.5918-6.47461C21.3965-6.66992 21.3672-6.74805 21.377-7.01172L21.4453-7.98828L19.9512-9.47266L18.4277-9.21875C18.1055-9.15039 17.959-9.17969 17.7148-9.41406L15.7129-11.416C15.459-11.6504 15.4297-11.8164 15.5859-12.1875L16.4648-14.2773C14.9023-15.7324 12.8711-16.3574 10.8398-15.7617C10.6836-15.7227 10.625-15.8496 10.752-15.957ZM5.27344 2.30469L4.10156 1.14258C3.63281 0.683594 3.74023 0.341797 4.14062-0.0195312L14.9512-10.1953L16.416-8.71094L6.42578 2.27539C6.07422 2.67578 5.74219 2.77344 5.27344 2.30469Z"/>
  </g>
  <text style="stroke:none;fill:black;font-family:-apple-system,&quot;SF Pro Display&quot;,&quot;SF Pro Text&quot;,Helvetica,sans-serif;font-weight:bold;" transform="matrix(1 0 0 1 1289 1953)">Exporting</text>
  <text style="stroke:none;fill:black;font-family:-apple-system,&quot;SF Pro Display&quot;,&quot;SF Pro Text&quot;,Helvetica,sans-serif;" transform="matrix(1 0 0 1 1289 1971)">Symbols should be outlined when exporting to ensure the</text>
  <text style="stroke:none;fill:black;font-family:-apple-system,&quot;SF Pro Display&quot;,&quot;SF Pro Text&quot;,Helvetica,sans-serif;" transform="matrix(1 0 0 1 1289 1989)">design is preserved when submitting to Xcode.</text>
  <text id="template-version" style="stroke:none;fill:black;font-family:-apple-system,&quot;SF Pro Display&quot;,&quot;SF Pro Text&quot;,Helvetica,sans-serif;text-anchor:end;" transform="matrix(1 0 0 1 3036 1933)">Template v.2.0</text>
  <text style="stroke:none;fill:black;font-family:-apple-system,&quot;SF Pro Display&quot;,&quot;SF Pro Text&quot;,Helvetica,sans-serif;text-anchor:end;" transform="matrix(1 0 0 1 3036 1951)">Requires Xcode 12 or greater</text>
  <text style="stroke:none;fill:black;font-family:-apple-system,&quot;SF Pro Display&quot;,&quot;SF Pro Text&quot;,Helvetica,sans-serif;" transform="matrix(1 0 0 1 263 726)">Small</text>
  <text style="stroke:none;fill:black;font-family:-apple-system,&quot;SF Pro Display&quot;,&quot;SF Pro Text&quot;,Helvetica,sans-serif;" transform="matrix(1 0 0 1 263 1156)">Medium</text>
  <text style="stroke:none;fill:black;font-family:-apple-system,&quot;SF Pro Display&quot;,&quot;SF Pro Text&quot;,Helvetica,sans-serif;" transform="matrix(1 0 0 1 263 1586)">Large</text>
 </g>
 <g id="Guides">
  <g id="H-reference" style="fill:#27AAE1;stroke:none;" transform="matrix(1 0 0 1 339 696)">
   <path d="M0.976562 0L3.66211 0L12.9883-24.4629L45.752-24.4629L55.127 0L57.7637 0L30.6152-70.459L28.125-70.459ZM29.3457-67.1387L29.4434-67.1387L44.873-26.709L13.8672-26.709Z"/>
  </g>
  <line id="Baseline-S" style="fill:none;stroke:#27AAE1;opacity:1;stroke-width:0.5;" x1="263" x2="3036" y1="696" y2="696"/>
  <line id="Capline-S" style="fill:none;stroke:#27AAE1;opacity:1;stroke-width:0.5;" x1="263" x2="3036" y1="625.541" y2="625.541"/>
  <g id="H-reference" style="fill:#27AAE1;stroke:none;" transform="matrix(1 0 0 1 339 1126)">
   <path d="M0.976562 0L3.66211 0L12.9883-24.4629L45.752-24.4629L55.127 0L57.7637 0L30.6152-70.459L28.125-70.459ZM29.3457-67.1387L29.4434-67.1387L44.873-26.709L13.8672-26.709Z"/>
  </g>
  <line id="Baseline-M" style="fill:none;stroke:#27AAE1;opacity:1;stroke-width:0.5;" x1="263" x2="3036" y1="1126" y2="1126"/>
  <line id="Capline-M" style="fill:none;stroke:#27AAE1;opacity:1;stroke-width:0.5;" x1="263" x2="3036" y1="1055.54" y2="1055.54"/>
  <g id="H-reference" style="fill:#27AAE1;stroke:none;" transform="matrix(1 0 0 1 339 1556)">
   <path d="M0.976562 0L3.66211 0L12.9883-24.4629L45.752-24.4629L55.127 0L57.7637 0L30.6152-70.459L28.125-70.459ZM29.3457-67.1387L29.4434-67.1387L44.873-26.709L13.8672-26.709Z"/>
  </g>
  <line id="Baseline-L" style="fill:none;stroke:#27AAE1;opacity:1;stroke-width:0.5;" x1="263" x2="3036" y1="1556" y2="1556"/>
  <line id="Capline-L" style="fill:none;stroke:#27AAE1;opacity:1;stroke-width:0.5;" x1="263" x2="3036" y1="1485.54" y2="1485.54"/>
  <line id="left-margin" x1="1419.436028629943" x2="1419.436028629943" y1="1030.79" y2="1150.12" style="fill:none;stroke:#00AEEF;stroke-width:0.5;opacity:1.0;"/>
  <line id="right-margin" x1="1483.0291103433258" x2="1483.0291103433258" y1="1030.79" y2="1150.12" style="fill:none;stroke:#00AEEF;stroke-width:0.5;opacity:1.0;"/>
 </g>
 <g id="Symbols">
  <g id="Black-L" transform="matrix(1.0,0.0,0.0,1.0,2868.522681120755,1427.0906668687142)">  <path fill="#000000" fill-opacity="1" fill-rule="nonzero" stroke-linejoin="miter" stroke-linecap="butt" stroke="none" stroke-opacity="1" stroke-width="0px" data-name="Layer 1" stroke-miterlimit="4" stroke-dasharray="none" d="M121.025,108.276L121.025,72.115L84.446,72.115L84.446,89.775L108.693,89.775L108.693,132.106L24.663,132.106L24.663,90.72L48.702,90.72L48.702,72.115L12.332,72.115L12.332,108.493L0,108.493L0,162.419L12.332,162.419L12.332,174.125L120.816,174.125L120.816,162.21L132.315,162.21L132.315,108.276L121.025,108.276ZM108.485,162.002L24.455,162.002L24.455,150.504L108.485,150.504L108.485,162.002ZM108.485,162.002"/>
  <path x="68.0852369" stroke-linejoin="miter" stroke-dasharray="none" stroke-miterlimit="4" y="90.0039301" data-name="Layer 1" stroke-linecap="butt" fill-rule="nonzero" stroke-opacity="1" stroke-width="0px" fill-opacity="1" fill="#000000" stroke="none" d="M54.555,72.118L78.593,72.118L78.593,89.774L54.555,89.774ZM54.555,72.118"/>
  <path stroke-dasharray="none" stroke-linecap="butt" points="68.0852369 120.078263 98.0852369 120.078263 98.0852369 128.0908867 91.3026282 128.0908867 91.3026282 142.1778432 113.2156717 142.1778432 113.2156717 127.8300171 105.3895847 127.8300171 105.3895847 120.078263 128.6069761 120.078263 128.6069761 157.7382362 38.6069761 157.7382362 38.6069761 120.078263 60.5200195 120.078263 60.5200195 127.308278 53.2156717 127.308278 53.2156717 142.6995823 75.1287152 142.6995823 75.1287152 127.5691475 68.0852369 127.5691475 68.0852369 120.078263" stroke-width="0px" fill-rule="nonzero" stroke-miterlimit="4" stroke-opacity="1" fill="#000000" stroke-linejoin="miter" data-name="Layer 1" fill-opacity="1" stroke="none" d="M54.555,96.216L78.593,96.216L78.593,102.636L73.159,102.636L73.159,113.924L90.717,113.924L90.717,102.427L84.446,102.427L84.446,96.216L103.05,96.216L103.05,126.392L30.935,126.392L30.935,96.216L48.493,96.216L48.493,102.009L42.64,102.009L42.64,114.342L60.199,114.342L60.199,102.218L54.555,102.218L54.555,96.216ZM54.555,96.216"/>
  <path stroke="none" stroke-width="0px" stroke-dasharray="none" fill-opacity="1" stroke-opacity="1" data-name="Layer 1" stroke-linecap="butt" stroke-miterlimit="4" fill-rule="nonzero" stroke-linejoin="miter" fill="#000000" d="M84.653,24.463L84.653,0L48.491,0L48.491,24.463L6.264,24.463L6.264,66.474L48.074,66.474L48.074,36.378L54.557,36.378L54.557,66.474L78.17,66.474L78.17,36.378L84.653,36.378L84.653,66.474L126.671,66.474L126.671,24.463L84.653,24.463ZM54.557,18.606L54.557,6.482L78.595,6.482L78.595,18.606L54.557,18.606ZM54.557,18.606"/>
</g>
  <g id="Heavy-L" transform="matrix(1.0,0.0,0.0,1.0,2571.812681120755,1427.0906668687142)">  <path stroke-opacity="1" stroke="none" stroke-dasharray="none" fill="#000000" fill-opacity="1" stroke-width="0px" stroke-linejoin="miter" stroke-linecap="butt" data-name="Layer 1" stroke-miterlimit="4" fill-rule="nonzero" d="M121.025,108.276L121.025,72.115L84.446,72.115L84.446,89.775L108.693,89.775L108.693,132.106L24.663,132.106L24.663,90.72L48.702,90.72L48.702,72.115L12.332,72.115L12.332,108.493L0,108.493L0,162.419L12.332,162.419L12.332,174.125L120.816,174.125L120.816,162.21L132.315,162.21L132.315,108.276L121.025,108.276ZM108.485,162.002L24.455,162.002L24.455,150.504L108.485,150.504L108.485,162.002ZM108.485,162.002"/>
  <path stroke-linecap="butt" stroke="none" stroke-opacity="1" x="68.0852369" data-name="Layer 1" fill-opacity="1" fill-rule="nonzero" stroke-dasharray="none" stroke-linejoin="miter" y="90.0039301" fill="#000000" stroke-width="0px" stroke-miterlimit="4" d="M54.555,72.118L78.593,72.118L78.593,89.774L54.555,89.774ZM54.555,72.118"/>
  <path stroke-linejoin="miter" stroke-dasharray="none" fill="#000000" stroke-opacity="1" data-name="Layer 1" stroke-width="0px" stroke="none" fill-opacity="1" stroke-miterlimit="4" points="68.0852369 120.078263 98.0852369 120.078263 98.0852369 128.0908867 91.3026282 128.0908867 91.3026282 142.1778432 113.2156717 142.1778432 113.2156717 127.8300171 105.3895847 127.8300171 105.3895847 120.078263 128.6069761 120.078263 128.6069761 157.7382362 38.6069761 157.7382362 38.6069761 120.078263 60.5200195 120.078263 60.5200195 127.308278 53.2156717 127.308278 53.2156717 142.6995823 75.1287152 142.6995823 75.1287152 127.5691475 68.0852369 127.5691475 68.0852369 120.078263" stroke-linecap="butt" fill-rule="nonzero" d="M54.555,96.216L78.593,96.216L78.593,102.636L73.159,102.636L73.159,113.924L90.717,113.924L90.717,102.427L84.446,102.427L84.446,96.216L103.05,96.216L103.05,126.392L30.935,126.392L30.935,96.216L48.493,96.216L48.493,102.009L42.64,102.009L42.64,114.342L60.199,114.342L60.199,102.218L54.555,102.218L54.555,96.216ZM54.555,96.216"/>
  <path fill="#000000" stroke-linejoin="miter" data-name="Layer 1" stroke-dasharray="none" stroke="none" fill-opacity="1" stroke-linecap="butt" stroke-width="0px" stroke-miterlimit="4" stroke-opacity="1" fill-rule="nonzero" d="M84.653,24.463L84.653,0L48.491,0L48.491,24.463L6.264,24.463L6.264,66.474L48.074,66.474L48.074,36.378L54.557,36.378L54.557,66.474L78.17,66.474L78.17,36.378L84.653,36.378L84.653,66.474L126.671,66.474L126.671,24.463L84.653,24.463ZM54.557,18.606L54.557,6.482L78.595,6.482L78.595,18.606L54.557,18.606ZM54.557,18.606"/>
</g>
  <g id="Bold-L" transform="matrix(1.0,0.0,0.0,1.0,2275.102681120755,1427.0906668687142)">  <path stroke="none" stroke-linecap="butt" stroke-miterlimit="4" fill="#000000" stroke-linejoin="miter" stroke-opacity="1" fill-opacity="1" stroke-dasharray="none" stroke-width="0px" data-name="Layer 1" fill-rule="nonzero" d="M121.025,108.276L121.025,72.115L84.446,72.115L84.446,89.775L108.693,89.775L108.693,132.106L24.663,132.106L24.663,90.72L48.702,90.72L48.702,72.115L12.332,72.115L12.332,108.493L0,108.493L0,162.419L12.332,162.419L12.332,174.125L120.816,174.125L120.816,162.21L132.315,162.21L132.315,108.276L121.025,108.276ZM108.485,162.002L24.455,162.002L24.455,150.504L108.485,150.504L108.485,162.002ZM108.485,162.002"/>
  <path stroke-width="0px" data-name="Layer 1" y="90.0039301" stroke-linecap="butt" x="68.0852369" stroke="none" fill="#000000" stroke-dasharray="none" stroke-miterlimit="4" stroke-linejoin="miter" fill-rule="nonzero" stroke-opacity="1" fill-opacity="1" d="M54.555,72.118L78.593,72.118L78.593,89.774L54.555,89.774ZM54.555,72.118"/>
  <path stroke-miterlimit="4" data-name="Layer 1" points="68.0852369 120.078263 98.0852369 120.078263 98.0852369 128.0908867 91.3026282 128.0908867 91.3026282 142.1778432 113.2156717 142.1778432 113.2156717 127.8300171 105.3895847 127.8300171 105.3895847 120.078263 128.6069761 120.078263 128.6069761 157.7382362 38.6069761 157.7382362 38.6069761 120.078263 60.5200195 120.078263 60.5200195 127.308278 53.2156717 127.308278 53.2156717 142.6995823 75.1287152 142.6995823 75.1287152 127.5691475 68.0852369 127.5691475 68.0852369 120.078263" stroke="none" stroke-linejoin="miter" fill="#000000" stroke-linecap="butt" fill-opacity="1" stroke-opacity="1" stroke-dasharray="none" fill-rule="nonzero" stroke-width="0px" d="M54.555,96.216L78.593,96.216L78.593,102.636L73.159,102.636L73.159,113.924L90.717,113.924L90.717,102.427L84.446,102.427L84.446,96.216L103.05,96.216L103.05,126.392L30.935,126.392L30.935,96.216L48.493,96.216L48.493,102.009L42.64,102.009L42.64,114.342L60.199,114.342L60.199,102.218L54.555,102.218L54.555,96.216ZM54.555,96.216"/>
  <path stroke-width="0px" fill="#000000" stroke-opacity="1" data-name="Layer 1" stroke="none" stroke-linejoin="miter" stroke-dasharray="none" fill-rule="nonzero" fill-opacity="1" stroke-linecap="butt" stroke-miterlimit="4" d="M84.653,24.463L84.653,0L48.491,0L48.491,24.463L6.264,24.463L6.264,66.474L48.074,66.474L48.074,36.378L54.557,36.378L54.557,66.474L78.17,66.474L78.17,36.378L84.653,36.378L84.653,66.474L126.671,66.474L126.671,24.463L84.653,24.463ZM54.557,18.606L54.557,6.482L78.595,6.482L78.595,18.606L54.557,18.606ZM54.557,18.606"/>
</g>
  <g id="Semibold-L" transform="matrix(1.0,0.0,0.0,1.0,1978.392681120755,1427.0906668687142)">  <path stroke="none" stroke-width="0px" stroke-dasharray="none" fill="#000000" stroke-linejoin="miter" stroke-miterlimit="4" fill-rule="nonzero" fill-opacity="1" stroke-linecap="butt" data-name="Layer 1" stroke-opacity="1" d="M121.025,108.276L121.025,72.115L84.446,72.115L84.446,89.775L108.693,89.775L108.693,132.106L24.663,132.106L24.663,90.72L48.702,90.72L48.702,72.115L12.332,72.115L12.332,108.493L0,108.493L0,162.419L12.332,162.419L12.332,174.125L120.816,174.125L120.816,162.21L132.315,162.21L132.315,108.276L121.025,108.276ZM108.485,162.002L24.455,162.002L24.455,150.504L108.485,150.504L108.485,162.002ZM108.485,162.002"/>
  <path stroke-linejoin="miter" stroke-linecap="butt" data-name="Layer 1" y="90.0039301" stroke-width="0px" x="68.0852369" fill-rule="nonzero" stroke="none" stroke-opacity="1" fill="#000000" stroke-miterlimit="4" stroke-dasharray="none" fill-opacity="1" d="M54.555,72.118L78.593,72.118L78.593,89.774L54.555,89.774ZM54.555,72.118"/>
  <path stroke-dasharray="none" stroke="none" fill-opacity="1" stroke-linecap="butt" stroke-linejoin="miter" stroke-opacity="1" fill-rule="nonzero" data-name="Layer 1" points="68.0852369 120.078263 98.0852369 120.078263 98.0852369 128.0908867 91.3026282 128.0908867 91.3026282 142.1778432 113.2156717 142.1778432 113.2156717 127.8300171 105.3895847 127.8300171 105.3895847 120.078263 128.6069761 120.078263 128.6069761 157.7382362 38.6069761 157.7382362 38.6069761 120.078263 60.5200195 120.078263 60.5200195 127.308278 53.2156717 127.308278 53.2156717 142.6995823 75.1287152 142.6995823 75.1287152 127.5691475 68.0852369 127.5691475 68.0852369 120.078263" stroke-width="0px" stroke-miterlimit="4" fill="#000000" d="M54.555,96.216L78.593,96.216L78.593,102.636L73.159,102.636L73.159,113.924L90.717,113.924L90.717,102.427L84.446,102.427L84.446,96.216L103.05,96.216L103.05,126.392L30.935,126.392L30.935,96.216L48.493,96.216L48.493,102.009L42.64,102.009L42.64,114.342L60.199,114.342L60.199,102.218L54.555,102.218L54.555,96.216ZM54.555,96.216"/>
  <path stroke="none" fill="#000000" fill-rule="nonzero" stroke-dasharray="none" stroke-width="0px" stroke-opacity="1" fill-opacity="1" stroke-miterlimit="4" data-name="Layer 1" stroke-linecap="butt" stroke-linejoin="miter" d="M84.653,24.463L84.653,0L48.491,0L48.491,24.463L6.264,24.463L6.264,66.474L48.074,66.474L48.074,36.378L54.557,36.378L54.557,66.474L78.17,66.474L78.17,36.378L84.653,36.378L84.653,66.474L126.671,66.474L126.671,24.463L84.653,24.463ZM54.557,18.606L54.557,6.482L78.595,6.482L78.595,18.606L54.557,18.606ZM54.557,18.606"/>
</g>
  <g id="Medium-L" transform="matrix(1.0,0.0,0.0,1.0,1681.682681120755,1427.0906668687142)">  <path fill-opacity="1" stroke-linecap="butt" stroke="none" stroke-width="0px" data-name="Layer 1" stroke-linejoin="miter" stroke-dasharray="none" fill="#000000" stroke-miterlimit="4" fill-rule="nonzero" stroke-opacity="1" d="M121.025,108.276L121.025,72.115L84.446,72.115L84.446,89.775L108.693,89.775L108.693,132.106L24.663,132.106L24.663,90.72L48.702,90.72L48.702,72.115L12.332,72.115L12.332,108.493L0,108.493L0,162.419L12.332,162.419L12.332,174.125L120.816,174.125L120.816,162.21L132.315,162.21L132.315,108.276L121.025,108.276ZM108.485,162.002L24.455,162.002L24.455,150.504L108.485,150.504L108.485,162.002ZM108.485,162.002"/>
  <path stroke-miterlimit="4" stroke="none" stroke-linejoin="miter" data-name="Layer 1" x="68.0852369" stroke-opacity="1" fill-rule="nonzero" fill="#000000" stroke-linecap="butt" stroke-dasharray="none" stroke-width="0px" y="90.0039301" fill-opacity="1" d="M54.555,72.118L78.593,72.118L78.593,89.774L54.555,89.774ZM54.555,72.118"/>
  <path fill-opacity="1" stroke-miterlimit="4" stroke-linecap="butt" stroke-dasharray="none" stroke-width="0px" fill="#000000" stroke-linejoin="miter" data-name="Layer 1" points="68.0852369 120.078263 98.0852369 120.078263 98.0852369 128.0908867 91.3026282 128.0908867 91.3026282 142.1778432 113.2156717 142.1778432 113.2156717 127.8300171 105.3895847 127.8300171 105.3895847 120.078263 128.6069761 120.078263 128.6069761 157.7382362 38.6069761 157.7382362 38.6069761 120.078263 60.5200195 120.078263 60.5200195 127.308278 53.2156717 127.308278 53.2156717 142.6995823 75.1287152 142.6995823 75.1287152 127.5691475 68.0852369 127.5691475 68.0852369 120.078263" fill-rule="nonzero" stroke-opacity="1" stroke="none" d="M54.555,96.216L78.593,96.216L78.593,102.636L73.159,102.636L73.159,113.924L90.717,113.924L90.717,102.427L84.446,102.427L84.446,96.216L103.05,96.216L103.05,126.392L30.935,126.392L30.935,96.216L48.493,96.216L48.493,102.009L42.64,102.009L42.64,114.342L60.199,114.342L60.199,102.218L54.555,102.218L54.555,96.216ZM54.555,96.216"/>
  <path stroke-opacity="1" stroke-dasharray="none" data-name="Layer 1" stroke-linejoin="miter" fill-opacity="1" fill-rule="nonzero" stroke="none" stroke-linecap="butt" stroke-miterlimit="4" fill="#000000" stroke-width="0px" d="M84.653,24.463L84.653,0L48.491,0L48.491,24.463L6.264,24.463L6.264,66.474L48.074,66.474L48.074,36.378L54.557,36.378L54.557,66.474L78.17,66.474L78.17,36.378L84.653,36.378L84.653,66.474L126.671,66.474L126.671,24.463L84.653,24.463ZM54.557,18.606L54.557,6.482L78.595,6.482L78.595,18.606L54.557,18.606ZM54.557,18.606"/>
</g>
  <g id="Regular-L" transform="matrix(1.0,0.0,0.0,1.0,1384.972681120755,1427.0906668687142)">  <path stroke="none" stroke-opacity="1" stroke-miterlimit="4" stroke-linecap="butt" fill-rule="nonzero" fill-opacity="1" fill="#000000" data-name="Layer 1" stroke-width="0px" stroke-linejoin="miter" stroke-dasharray="none" d="M121.025,108.276L121.025,72.115L84.446,72.115L84.446,89.775L108.693,89.775L108.693,132.106L24.663,132.106L24.663,90.72L48.702,90.72L48.702,72.115L12.332,72.115L12.332,108.493L0,108.493L0,162.419L12.332,162.419L12.332,174.125L120.816,174.125L120.816,162.21L132.315,162.21L132.315,108.276L121.025,108.276ZM108.485,162.002L24.455,162.002L24.455,150.504L108.485,150.504L108.485,162.002ZM108.485,162.002"/>
  <path y="90.0039301" x="68.0852369" stroke-linejoin="miter" stroke-opacity="1" stroke-width="0px" stroke="none" fill-opacity="1" stroke-miterlimit="4" stroke-linecap="butt" data-name="Layer 1" fill="#000000" fill-rule="nonzero" stroke-dasharray="none" d="M54.555,72.118L78.593,72.118L78.593,89.774L54.555,89.774ZM54.555,72.118"/>
  <path stroke-opacity="1" fill="#000000" stroke-linejoin="miter" data-name="Layer 1" stroke-miterlimit="4" stroke-linecap="butt" points="68.0852369 120.078263 98.0852369 120.078263 98.0852369 128.0908867 91.3026282 128.0908867 91.3026282 142.1778432 113.2156717 142.1778432 113.2156717 127.8300171 105.3895847 127.8300171 105.3895847 120.078263 128.6069761 120.078263 128.6069761 157.7382362 38.6069761 157.7382362 38.6069761 120.078263 60.5200195 120.078263 60.5200195 127.308278 53.2156717 127.308278 53.2156717 142.6995823 75.1287152 142.6995823 75.1287152 127.5691475 68.0852369 127.5691475 68.0852369 120.078263" stroke="none" stroke-width="0px" stroke-dasharray="none" fill-rule="nonzero" fill-opacity="1" d="M54.555,96.216L78.593,96.216L78.593,102.636L73.159,102.636L73.159,113.924L90.717,113.924L90.717,102.427L84.446,102.427L84.446,96.216L103.05,96.216L103.05,126.392L30.935,126.392L30.935,96.216L48.493,96.216L48.493,102.009L42.64,102.009L42.64,114.342L60.199,114.342L60.199,102.218L54.555,102.218L54.555,96.216ZM54.555,96.216"/>
  <path fill-rule="nonzero" stroke-dasharray="none" stroke-linecap="butt" data-name="Layer 1" fill="#000000" fill-opacity="1" stroke-opacity="1" stroke-miterlimit="4" stroke-linejoin="miter" stroke-width="0px" stroke="none" d="M84.653,24.463L84.653,0L48.491,0L48.491,24.463L6.264,24.463L6.264,66.474L48.074,66.474L48.074,36.378L54.557,36.378L54.557,66.474L78.17,66.474L78.17,36.378L84.653,36.378L84.653,66.474L126.671,66.474L126.671,24.463L84.653,24.463ZM54.557,18.606L54.557,6.482L78.595,6.482L78.595,18.606L54.557,18.606ZM54.557,18.606"/>
</g>
  <g id="Light-L" transform="matrix(1.0,0.0,0.0,1.0,1088.2626811207551,1427.0906668687142)">  <path fill-rule="nonzero" stroke="none" stroke-width="0px" stroke-linejoin="miter" fill-opacity="1" data-name="Layer 1" stroke-miterlimit="4" stroke-dasharray="none" stroke-opacity="1" stroke-linecap="butt" fill="#000000" d="M121.025,108.276L121.025,72.115L84.446,72.115L84.446,89.775L108.693,89.775L108.693,132.106L24.663,132.106L24.663,90.72L48.702,90.72L48.702,72.115L12.332,72.115L12.332,108.493L0,108.493L0,162.419L12.332,162.419L12.332,174.125L120.816,174.125L120.816,162.21L132.315,162.21L132.315,108.276L121.025,108.276ZM108.485,162.002L24.455,162.002L24.455,150.504L108.485,150.504L108.485,162.002ZM108.485,162.002"/>
  <path stroke-miterlimit="4" stroke-linecap="butt" stroke-linejoin="miter" data-name="Layer 1" stroke="none" stroke-opacity="1" stroke-dasharray="none" x="68.0852369" fill-opacity="1" stroke-width="0px" fill="#000000" y="90.0039301" fill-rule="nonzero" d="M54.555,72.118L78.593,72.118L78.593,89.774L54.555,89.774ZM54.555,72.118"/>
  <path points="68.0852369 120.078263 98.0852369 120.078263 98.0852369 128.0908867 91.3026282 128.0908867 91.3026282 142.1778432 113.2156717 142.1778432 113.2156717 127.8300171 105.3895847 127.8300171 105.3895847 120.078263 128.6069761 120.078263 128.6069761 157.7382362 38.6069761 157.7382362 38.6069761 120.078263 60.5200195 120.078263 60.5200195 127.308278 53.2156717 127.308278 53.2156717 142.6995823 75.1287152 142.6995823 75.1287152 127.5691475 68.0852369 127.5691475 68.0852369 120.078263" stroke-width="0px" stroke-dasharray="none" stroke-opacity="1" fill="#000000" stroke-linecap="butt" stroke-linejoin="miter" data-name="Layer 1" fill-opacity="1" stroke="none" fill-rule="nonzero" stroke-miterlimit="4" d="M54.555,96.216L78.593,96.216L78.593,102.636L73.159,102.636L73.159,113.924L90.717,113.924L90.717,102.427L84.446,102.427L84.446,96.216L103.05,96.216L103.05,126.392L30.935,126.392L30.935,96.216L48.493,96.216L48.493,102.009L42.64,102.009L42.64,114.342L60.199,114.342L60.199,102.218L54.555,102.218L54.555,96.216ZM54.555,96.216"/>
  <path stroke-opacity="1" fill-opacity="1" stroke="none" stroke-linejoin="miter" fill="#000000" data-name="Layer 1" stroke-dasharray="none" stroke-width="0px" stroke-miterlimit="4" fill-rule="nonzero" stroke-linecap="butt" d="M84.653,24.463L84.653,0L48.491,0L48.491,24.463L6.264,24.463L6.264,66.474L48.074,66.474L48.074,36.378L54.557,36.378L54.557,66.474L78.17,66.474L78.17,36.378L84.653,36.378L84.653,66.474L126.671,66.474L126.671,24.463L84.653,24.463ZM54.557,18.606L54.557,6.482L78.595,6.482L78.595,18.606L54.557,18.606ZM54.557,18.606"/>
</g>
  <g id="Thin-L" transform="matrix(1.0,0.0,0.0,1.0,791.552681120755,1427.0906668687142)">  <path stroke-linecap="butt" fill-rule="nonzero" data-name="Layer 1" stroke-miterlimit="4" stroke-width="0px" fill="#000000" stroke-dasharray="none" fill-opacity="1" stroke-opacity="1" stroke="none" stroke-linejoin="miter" d="M121.025,108.276L121.025,72.115L84.446,72.115L84.446,89.775L108.693,89.775L108.693,132.106L24.663,132.106L24.663,90.72L48.702,90.72L48.702,72.115L12.332,72.115L12.332,108.493L0,108.493L0,162.419L12.332,162.419L12.332,174.125L120.816,174.125L120.816,162.21L132.315,162.21L132.315,108.276L121.025,108.276ZM108.485,162.002L24.455,162.002L24.455,150.504L108.485,150.504L108.485,162.002ZM108.485,162.002"/>
  <path stroke-dasharray="none" stroke="none" y="90.0039301" stroke-linejoin="miter" stroke-width="0px" fill="#000000" fill-rule="nonzero" fill-opacity="1" x="68.0852369" stroke-linecap="butt" stroke-miterlimit="4" stroke-opacity="1" data-name="Layer 1" d="M54.555,72.118L78.593,72.118L78.593,89.774L54.555,89.774ZM54.555,72.118"/>
  <path fill-rule="nonzero" data-name="Layer 1" stroke-linejoin="miter" fill="#000000" stroke-miterlimit="4" stroke-dasharray="none" fill-opacity="1" stroke-opacity="1" stroke-width="0px" points="68.0852369 120.078263 98.0852369 120.078263 98.0852369 128.0908867 91.3026282 128.0908867 91.3026282 142.1778432 113.2156717 142.1778432 113.2156717 127.8300171 105.3895847 127.8300171 105.3895847 120.078263 128.6069761 120.078263 128.6069761 157.7382362 38.6069761 157.7382362 38.6069761 120.078263 60.5200195 120.078263 60.5200195 127.308278 53.2156717 127.308278 53.2156717 142.6995823 75.1287152 142.6995823 75.1287152 127.5691475 68.0852369 127.5691475 68.0852369 120.078263" stroke-linecap="butt" stroke="none" d="M54.555,96.216L78.593,96.216L78.593,102.636L73.159,102.636L73.159,113.924L90.717,113.924L90.717,102.427L84.446,102.427L84.446,96.216L103.05,96.216L103.05,126.392L30.935,126.392L30.935,96.216L48.493,96.216L48.493,102.009L42.64,102.009L42.64,114.342L60.199,114.342L60.199,102.218L54.555,102.218L54.555,96.216ZM54.555,96.216"/>
  <path stroke-linecap="butt" stroke-opacity="1" stroke-width="0px" stroke-linejoin="miter" data-name="Layer 1" fill="#000000" fill-opacity="1" stroke="none" stroke-dasharray="none" stroke-miterlimit="4" fill-rule="nonzero" d="M84.653,24.463L84.653,0L48.491,0L48.491,24.463L6.264,24.463L6.264,66.474L48.074,66.474L48.074,36.378L54.557,36.378L54.557,66.474L78.17,66.474L78.17,36.378L84.653,36.378L84.653,66.474L126.671,66.474L126.671,24.463L84.653,24.463ZM54.557,18.606L54.557,6.482L78.595,6.482L78.595,18.606L54.557,18.606ZM54.557,18.606"/>
</g>
  <g id="Ultralight-L" transform="matrix(1.0,0.0,0.0,1.0,494.84268112075495,1427.0906668687142)">  <path fill-rule="nonzero" stroke-linecap="butt" data-name="Layer 1" stroke-width="0px" fill="#000000" stroke-linejoin="miter" stroke-dasharray="none" stroke-miterlimit="4" fill-opacity="1" stroke="none" stroke-opacity="1" d="M121.025,108.276L121.025,72.115L84.446,72.115L84.446,89.775L108.693,89.775L108.693,132.106L24.663,132.106L24.663,90.72L48.702,90.72L48.702,72.115L12.332,72.115L12.332,108.493L0,108.493L0,162.419L12.332,162.419L12.332,174.125L120.816,174.125L120.816,162.21L132.315,162.21L132.315,108.276L121.025,108.276ZM108.485,162.002L24.455,162.002L24.455,150.504L108.485,150.504L108.485,162.002ZM108.485,162.002"/>
  <path stroke-dasharray="none" stroke-width="0px" x="68.0852369" fill-opacity="1" stroke-opacity="1" stroke="none" fill-rule="nonzero" stroke-linejoin="miter" fill="#000000" y="90.0039301" stroke-miterlimit="4" stroke-linecap="butt" data-name="Layer 1" d="M54.555,72.118L78.593,72.118L78.593,89.774L54.555,89.774ZM54.555,72.118"/>
  <path points="68.0852369 120.078263 98.0852369 120.078263 98.0852369 128.0908867 91.3026282 128.0908867 91.3026282 142.1778432 113.2156717 142.1778432 113.2156717 127.8300171 105.3895847 127.8300171 105.3895847 120.078263 128.6069761 120.078263 128.6069761 157.7382362 38.6069761 157.7382362 38.6069761 120.078263 60.5200195 120.078263 60.5200195 127.308278 53.2156717 127.308278 53.2156717 142.6995823 75.1287152 142.6995823 75.1287152 127.5691475 68.0852369 127.5691475 68.0852369 120.078263" fill="#000000" stroke-linecap="butt" stroke-linejoin="miter" stroke-dasharray="none" fill-opacity="1" stroke-miterlimit="4" fill-rule="nonzero" data-name="Layer 1" stroke-opacity="1" stroke-width="0px" stroke="none" d="M54.555,96.216L78.593,96.216L78.593,102.636L73.159,102.636L73.159,113.924L90.717,113.924L90.717,102.427L84.446,102.427L84.446,96.216L103.05,96.216L103.05,126.392L30.935,126.392L30.935,96.216L48.493,96.216L48.493,102.009L42.64,102.009L42.64,114.342L60.199,114.342L60.199,102.218L54.555,102.218L54.555,96.216ZM54.555,96.216"/>
  <path stroke="none" stroke-dasharray="none" fill="#000000" fill-rule="nonzero" stroke-miterlimit="4" stroke-opacity="1" stroke-width="0px" stroke-linejoin="miter" stroke-linecap="butt" fill-opacity="1" data-name="Layer 1" d="M84.653,24.463L84.653,0L48.491,0L48.491,24.463L6.264,24.463L6.264,66.474L48.074,66.474L48.074,36.378L54.557,36.378L54.557,66.474L78.17,66.474L78.17,36.378L84.653,36.378L84.653,66.474L126.671,66.474L126.671,24.463L84.653,24.463ZM54.557,18.606L54.557,6.482L78.595,6.482L78.595,18.606L54.557,18.606ZM54.557,18.606"/>
</g>
  <g id="Black-M" transform="matrix(1.0,0.0,0.0,1.0,2883.3952566827556,1018.150366304478)">  <path fill="#000000" fill-opacity="1" fill-rule="nonzero" stroke-linejoin="miter" stroke-linecap="butt" stroke="none" stroke-opacity="1" stroke-width="0px" data-name="Layer 1" stroke-miterlimit="4" stroke-dasharray="none" d="M93.818,83.935L93.818,55.903L65.462,55.903L65.462,69.593L84.258,69.593L84.258,102.408L19.119,102.408L19.119,70.326L37.753,70.326L37.753,55.903L9.559,55.903L9.559,84.103L0,84.103L0,125.906L9.559,125.906L9.559,134.981L93.656,134.981L93.656,125.744L102.569,125.744L102.569,83.935L93.818,83.935ZM84.097,125.583L18.957,125.583L18.957,116.669L84.097,116.669L84.097,125.583ZM84.097,125.583"/>
  <path x="68.0852369" stroke-linejoin="miter" stroke-dasharray="none" stroke-miterlimit="4" y="90.0039301" data-name="Layer 1" stroke-linecap="butt" fill-rule="nonzero" stroke-opacity="1" stroke-width="0px" fill-opacity="1" fill="#000000" stroke="none" d="M42.291,55.905L60.925,55.905L60.925,69.592L42.291,69.592ZM42.291,55.905"/>
  <path stroke-dasharray="none" stroke-linecap="butt" points="68.0852369 120.078263 98.0852369 120.078263 98.0852369 128.0908867 91.3026282 128.0908867 91.3026282 142.1778432 113.2156717 142.1778432 113.2156717 127.8300171 105.3895847 127.8300171 105.3895847 120.078263 128.6069761 120.078263 128.6069761 157.7382362 38.6069761 157.7382362 38.6069761 120.078263 60.5200195 120.078263 60.5200195 127.308278 53.2156717 127.308278 53.2156717 142.6995823 75.1287152 142.6995823 75.1287152 127.5691475 68.0852369 127.5691475 68.0852369 120.078263" stroke-width="0px" fill-rule="nonzero" stroke-miterlimit="4" stroke-opacity="1" fill="#000000" stroke-linejoin="miter" data-name="Layer 1" fill-opacity="1" stroke="none" d="M42.291,74.586L60.925,74.586L60.925,79.563L56.712,79.563L56.712,88.313L70.323,88.313L70.323,79.401L65.462,79.401L65.462,74.586L79.883,74.586L79.883,97.978L23.98,97.978L23.98,74.586L37.592,74.586L37.592,79.077L33.055,79.077L33.055,88.637L46.666,88.637L46.666,79.239L42.291,79.239L42.291,74.586ZM42.291,74.586"/>
  <path stroke="none" stroke-width="0px" stroke-dasharray="none" fill-opacity="1" stroke-opacity="1" data-name="Layer 1" stroke-linecap="butt" stroke-miterlimit="4" fill-rule="nonzero" stroke-linejoin="miter" fill="#000000" d="M65.622,18.964L65.622,0L37.59,0L37.59,18.964L4.856,18.964L4.856,51.53L37.267,51.53L37.267,28.2L42.292,28.2L42.292,51.53L60.597,51.53L60.597,28.2L65.622,28.2L65.622,51.53L98.195,51.53L98.195,18.964L65.622,18.964ZM42.292,14.423L42.292,5.025L60.926,5.025L60.926,14.423L42.292,14.423ZM42.292,14.423"/>
</g>
  <g id="Heavy-M" transform="matrix(1.0,0.0,0.0,1.0,2586.6852566827556,1018.150366304478)">  <path stroke-opacity="1" stroke="none" stroke-dasharray="none" fill="#000000" fill-opacity="1" stroke-width="0px" stroke-linejoin="miter" stroke-linecap="butt" data-name="Layer 1" stroke-miterlimit="4" fill-rule="nonzero" d="M93.818,83.935L93.818,55.903L65.462,55.903L65.462,69.593L84.258,69.593L84.258,102.408L19.119,102.408L19.119,70.326L37.753,70.326L37.753,55.903L9.559,55.903L9.559,84.103L0,84.103L0,125.906L9.559,125.906L9.559,134.981L93.656,134.981L93.656,125.744L102.569,125.744L102.569,83.935L93.818,83.935ZM84.097,125.583L18.957,125.583L18.957,116.669L84.097,116.669L84.097,125.583ZM84.097,125.583"/>
  <path stroke-linecap="butt" stroke="none" stroke-opacity="1" x="68.0852369" data-name="Layer 1" fill-opacity="1" fill-rule="nonzero" stroke-dasharray="none" stroke-linejoin="miter" y="90.0039301" fill="#000000" stroke-width="0px" stroke-miterlimit="4" d="M42.291,55.905L60.925,55.905L60.925,69.592L42.291,69.592ZM42.291,55.905"/>
  <path stroke-linejoin="miter" stroke-dasharray="none" fill="#000000" stroke-opacity="1" data-name="Layer 1" stroke-width="0px" stroke="none" fill-opacity="1" stroke-miterlimit="4" points="68.0852369 120.078263 98.0852369 120.078263 98.0852369 128.0908867 91.3026282 128.0908867 91.3026282 142.1778432 113.2156717 142.1778432 113.2156717 127.8300171 105.3895847 127.8300171 105.3895847 120.078263 128.6069761 120.078263 128.6069761 157.7382362 38.6069761 157.7382362 38.6069761 120.078263 60.5200195 120.078263 60.5200195 127.308278 53.2156717 127.308278 53.2156717 142.6995823 75.1287152 142.6995823 75.1287152 127.5691475 68.0852369 127.5691475 68.0852369 120.078263" stroke-linecap="butt" fill-rule="nonzero" d="M42.291,74.586L60.925,74.586L60.925,79.563L56.712,79.563L56.712,88.313L70.323,88.313L70.323,79.401L65.462,79.401L65.462,74.586L79.883,74.586L79.883,97.978L23.98,97.978L23.98,74.586L37.592,74.586L37.592,79.077L33.055,79.077L33.055,88.637L46.666,88.637L46.666,79.239L42.291,79.239L42.291,74.586ZM42.291,74.586"/>
  <path fill="#000000" stroke-linejoin="miter" data-name="Layer 1" stroke-dasharray="none" stroke="none" fill-opacity="1" stroke-linecap="butt" stroke-width="0px" stroke-miterlimit="4" stroke-opacity="1" fill-rule="nonzero" d="M65.622,18.964L65.622,0L37.59,0L37.59,18.964L4.856,18.964L4.856,51.53L37.267,51.53L37.267,28.2L42.292,28.2L42.292,51.53L60.597,51.53L60.597,28.2L65.622,28.2L65.622,51.53L98.195,51.53L98.195,18.964L65.622,18.964ZM42.292,14.423L42.292,5.025L60.926,5.025L60.926,14.423L42.292,14.423ZM42.292,14.423"/>
</g>
  <g id="Bold-M" transform="matrix(1.0,0.0,0.0,1.0,2289.9752566827556,1018.150366304478)">  <path stroke="none" stroke-linecap="butt" stroke-miterlimit="4" fill="#000000" stroke-linejoin="miter" stroke-opacity="1" fill-opacity="1" stroke-dasharray="none" stroke-width="0px" data-name="Layer 1" fill-rule="nonzero" d="M93.818,83.935L93.818,55.903L65.462,55.903L65.462,69.593L84.258,69.593L84.258,102.408L19.119,102.408L19.119,70.326L37.753,70.326L37.753,55.903L9.559,55.903L9.559,84.103L0,84.103L0,125.906L9.559,125.906L9.559,134.981L93.656,134.981L93.656,125.744L102.569,125.744L102.569,83.935L93.818,83.935ZM84.097,125.583L18.957,125.583L18.957,116.669L84.097,116.669L84.097,125.583ZM84.097,125.583"/>
  <path stroke-width="0px" data-name="Layer 1" y="90.0039301" stroke-linecap="butt" x="68.0852369" stroke="none" fill="#000000" stroke-dasharray="none" stroke-miterlimit="4" stroke-linejoin="miter" fill-rule="nonzero" stroke-opacity="1" fill-opacity="1" d="M42.291,55.905L60.925,55.905L60.925,69.592L42.291,69.592ZM42.291,55.905"/>
  <path stroke-miterlimit="4" data-name="Layer 1" points="68.0852369 120.078263 98.0852369 120.078263 98.0852369 128.0908867 91.3026282 128.0908867 91.3026282 142.1778432 113.2156717 142.1778432 113.2156717 127.8300171 105.3895847 127.8300171 105.3895847 120.078263 128.6069761 120.078263 128.6069761 157.7382362 38.6069761 157.7382362 38.6069761 120.078263 60.5200195 120.078263 60.5200195 127.308278 53.2156717 127.308278 53.2156717 142.6995823 75.1287152 142.6995823 75.1287152 127.5691475 68.0852369 127.5691475 68.0852369 120.078263" stroke="none" stroke-linejoin="miter" fill="#000000" stroke-linecap="butt" fill-opacity="1" stroke-opacity="1" stroke-dasharray="none" fill-rule="nonzero" stroke-width="0px" d="M42.291,74.586L60.925,74.586L60.925,79.563L56.712,79.563L56.712,88.313L70.323,88.313L70.323,79.401L65.462,79.401L65.462,74.586L79.883,74.586L79.883,97.978L23.98,97.978L23.98,74.586L37.592,74.586L37.592,79.077L33.055,79.077L33.055,88.637L46.666,88.637L46.666,79.239L42.291,79.239L42.291,74.586ZM42.291,74.586"/>
  <path stroke-width="0px" fill="#000000" stroke-opacity="1" data-name="Layer 1" stroke="none" stroke-linejoin="miter" stroke-dasharray="none" fill-rule="nonzero" fill-opacity="1" stroke-linecap="butt" stroke-miterlimit="4" d="M65.622,18.964L65.622,0L37.59,0L37.59,18.964L4.856,18.964L4.856,51.53L37.267,51.53L37.267,28.2L42.292,28.2L42.292,51.53L60.597,51.53L60.597,28.2L65.622,28.2L65.622,51.53L98.195,51.53L98.195,18.964L65.622,18.964ZM42.292,14.423L42.292,5.025L60.926,5.025L60.926,14.423L42.292,14.423ZM42.292,14.423"/>
</g>
  <g id="Semibold-M" transform="matrix(1.0,0.0,0.0,1.0,1993.2652566827558,1018.150366304478)">  <path stroke="none" stroke-width="0px" stroke-dasharray="none" fill="#000000" stroke-linejoin="miter" stroke-miterlimit="4" fill-rule="nonzero" fill-opacity="1" stroke-linecap="butt" data-name="Layer 1" stroke-opacity="1" d="M93.818,83.935L93.818,55.903L65.462,55.903L65.462,69.593L84.258,69.593L84.258,102.408L19.119,102.408L19.119,70.326L37.753,70.326L37.753,55.903L9.559,55.903L9.559,84.103L0,84.103L0,125.906L9.559,125.906L9.559,134.981L93.656,134.981L93.656,125.744L102.569,125.744L102.569,83.935L93.818,83.935ZM84.097,125.583L18.957,125.583L18.957,116.669L84.097,116.669L84.097,125.583ZM84.097,125.583"/>
  <path stroke-linejoin="miter" stroke-linecap="butt" data-name="Layer 1" y="90.0039301" stroke-width="0px" x="68.0852369" fill-rule="nonzero" stroke="none" stroke-opacity="1" fill="#000000" stroke-miterlimit="4" stroke-dasharray="none" fill-opacity="1" d="M42.291,55.905L60.925,55.905L60.925,69.592L42.291,69.592ZM42.291,55.905"/>
  <path stroke-dasharray="none" stroke="none" fill-opacity="1" stroke-linecap="butt" stroke-linejoin="miter" stroke-opacity="1" fill-rule="nonzero" data-name="Layer 1" points="68.0852369 120.078263 98.0852369 120.078263 98.0852369 128.0908867 91.3026282 128.0908867 91.3026282 142.1778432 113.2156717 142.1778432 113.2156717 127.8300171 105.3895847 127.8300171 105.3895847 120.078263 128.6069761 120.078263 128.6069761 157.7382362 38.6069761 157.7382362 38.6069761 120.078263 60.5200195 120.078263 60.5200195 127.308278 53.2156717 127.308278 53.2156717 142.6995823 75.1287152 142.6995823 75.1287152 127.5691475 68.0852369 127.5691475 68.0852369 120.078263" stroke-width="0px" stroke-miterlimit="4" fill="#000000" d="M42.291,74.586L60.925,74.586L60.925,79.563L56.712,79.563L56.712,88.313L70.323,88.313L70.323,79.401L65.462,79.401L65.462,74.586L79.883,74.586L79.883,97.978L23.98,97.978L23.98,74.586L37.592,74.586L37.592,79.077L33.055,79.077L33.055,88.637L46.666,88.637L46.666,79.239L42.291,79.239L42.291,74.586ZM42.291,74.586"/>
  <path stroke="none" fill="#000000" fill-rule="nonzero" stroke-dasharray="none" stroke-width="0px" stroke-opacity="1" fill-opacity="1" stroke-miterlimit="4" data-name="Layer 1" stroke-linecap="butt" stroke-linejoin="miter" d="M65.622,18.964L65.622,0L37.59,0L37.59,18.964L4.856,18.964L4.856,51.53L37.267,51.53L37.267,28.2L42.292,28.2L42.292,51.53L60.597,51.53L60.597,28.2L65.622,28.2L65.622,51.53L98.195,51.53L98.195,18.964L65.622,18.964ZM42.292,14.423L42.292,5.025L60.926,5.025L60.926,14.423L42.292,14.423ZM42.292,14.423"/>
</g>
  <g id="Medium-M" transform="matrix(1.0,0.0,0.0,1.0,1696.5552566827557,1018.150366304478)">  <path fill-opacity="1" stroke-linecap="butt" stroke="none" stroke-width="0px" data-name="Layer 1" stroke-linejoin="miter" stroke-dasharray="none" fill="#000000" stroke-miterlimit="4" fill-rule="nonzero" stroke-opacity="1" d="M93.818,83.935L93.818,55.903L65.462,55.903L65.462,69.593L84.258,69.593L84.258,102.408L19.119,102.408L19.119,70.326L37.753,70.326L37.753,55.903L9.559,55.903L9.559,84.103L0,84.103L0,125.906L9.559,125.906L9.559,134.981L93.656,134.981L93.656,125.744L102.569,125.744L102.569,83.935L93.818,83.935ZM84.097,125.583L18.957,125.583L18.957,116.669L84.097,116.669L84.097,125.583ZM84.097,125.583"/>
  <path stroke-miterlimit="4" stroke="none" stroke-linejoin="miter" data-name="Layer 1" x="68.0852369" stroke-opacity="1" fill-rule="nonzero" fill="#000000" stroke-linecap="butt" stroke-dasharray="none" stroke-width="0px" y="90.0039301" fill-opacity="1" d="M42.291,55.905L60.925,55.905L60.925,69.592L42.291,69.592ZM42.291,55.905"/>
  <path fill-opacity="1" stroke-miterlimit="4" stroke-linecap="butt" stroke-dasharray="none" stroke-width="0px" fill="#000000" stroke-linejoin="miter" data-name="Layer 1" points="68.0852369 120.078263 98.0852369 120.078263 98.0852369 128.0908867 91.3026282 128.0908867 91.3026282 142.1778432 113.2156717 142.1778432 113.2156717 127.8300171 105.3895847 127.8300171 105.3895847 120.078263 128.6069761 120.078263 128.6069761 157.7382362 38.6069761 157.7382362 38.6069761 120.078263 60.5200195 120.078263 60.5200195 127.308278 53.2156717 127.308278 53.2156717 142.6995823 75.1287152 142.6995823 75.1287152 127.5691475 68.0852369 127.5691475 68.0852369 120.078263" fill-rule="nonzero" stroke-opacity="1" stroke="none" d="M42.291,74.586L60.925,74.586L60.925,79.563L56.712,79.563L56.712,88.313L70.323,88.313L70.323,79.401L65.462,79.401L65.462,74.586L79.883,74.586L79.883,97.978L23.98,97.978L23.98,74.586L37.592,74.586L37.592,79.077L33.055,79.077L33.055,88.637L46.666,88.637L46.666,79.239L42.291,79.239L42.291,74.586ZM42.291,74.586"/>
  <path stroke-opacity="1" stroke-dasharray="none" data-name="Layer 1" stroke-linejoin="miter" fill-opacity="1" fill-rule="nonzero" stroke="none" stroke-linecap="butt" stroke-miterlimit="4" fill="#000000" stroke-width="0px" d="M65.622,18.964L65.622,0L37.59,0L37.59,18.964L4.856,18.964L4.856,51.53L37.267,51.53L37.267,28.2L42.292,28.2L42.292,51.53L60.597,51.53L60.597,28.2L65.622,28.2L65.622,51.53L98.195,51.53L98.195,18.964L65.622,18.964ZM42.292,14.423L42.292,5.025L60.926,5.025L60.926,14.423L42.292,14.423ZM42.292,14.423"/>
</g>
  <g id="Regular-M" transform="matrix(1.0,0.0,0.0,1.0,1399.8452566827557,1018.150366304478)">  <path stroke="none" stroke-opacity="1" stroke-miterlimit="4" stroke-linecap="butt" fill-rule="nonzero" fill-opacity="1" fill="#000000" data-name="Layer 1" stroke-width="0px" stroke-linejoin="miter" stroke-dasharray="none" d="M93.818,83.935L93.818,55.903L65.462,55.903L65.462,69.593L84.258,69.593L84.258,102.408L19.119,102.408L19.119,70.326L37.753,70.326L37.753,55.903L9.559,55.903L9.559,84.103L0,84.103L0,125.906L9.559,125.906L9.559,134.981L93.656,134.981L93.656,125.744L102.569,125.744L102.569,83.935L93.818,83.935ZM84.097,125.583L18.957,125.583L18.957,116.669L84.097,116.669L84.097,125.583ZM84.097,125.583"/>
  <path y="90.0039301" x="68.0852369" stroke-linejoin="miter" stroke-opacity="1" stroke-width="0px" stroke="none" fill-opacity="1" stroke-miterlimit="4" stroke-linecap="butt" data-name="Layer 1" fill="#000000" fill-rule="nonzero" stroke-dasharray="none" d="M42.291,55.905L60.925,55.905L60.925,69.592L42.291,69.592ZM42.291,55.905"/>
  <path stroke-opacity="1" fill="#000000" stroke-linejoin="miter" data-name="Layer 1" stroke-miterlimit="4" stroke-linecap="butt" points="68.0852369 120.078263 98.0852369 120.078263 98.0852369 128.0908867 91.3026282 128.0908867 91.3026282 142.1778432 113.2156717 142.1778432 113.2156717 127.8300171 105.3895847 127.8300171 105.3895847 120.078263 128.6069761 120.078263 128.6069761 157.7382362 38.6069761 157.7382362 38.6069761 120.078263 60.5200195 120.078263 60.5200195 127.308278 53.2156717 127.308278 53.2156717 142.6995823 75.1287152 142.6995823 75.1287152 127.5691475 68.0852369 127.5691475 68.0852369 120.078263" stroke="none" stroke-width="0px" stroke-dasharray="none" fill-rule="nonzero" fill-opacity="1" d="M42.291,74.586L60.925,74.586L60.925,79.563L56.712,79.563L56.712,88.313L70.323,88.313L70.323,79.401L65.462,79.401L65.462,74.586L79.883,74.586L79.883,97.978L23.98,97.978L23.98,74.586L37.592,74.586L37.592,79.077L33.055,79.077L33.055,88.637L46.666,88.637L46.666,79.239L42.291,79.239L42.291,74.586ZM42.291,74.586"/>
  <path fill-rule="nonzero" stroke-dasharray="none" stroke-linecap="butt" data-name="Layer 1" fill="#000000" fill-opacity="1" stroke-opacity="1" stroke-miterlimit="4" stroke-linejoin="miter" stroke-width="0px" stroke="none" d="M65.622,18.964L65.622,0L37.59,0L37.59,18.964L4.856,18.964L4.856,51.53L37.267,51.53L37.267,28.2L42.292,28.2L42.292,51.53L60.597,51.53L60.597,28.2L65.622,28.2L65.622,51.53L98.195,51.53L98.195,18.964L65.622,18.964ZM42.292,14.423L42.292,5.025L60.926,5.025L60.926,14.423L42.292,14.423ZM42.292,14.423"/>
</g>
  <g id="Light-M" transform="matrix(1.0,0.0,0.0,1.0,1103.1352566827559,1018.150366304478)">  <path fill-rule="nonzero" stroke="none" stroke-width="0px" stroke-linejoin="miter" fill-opacity="1" data-name="Layer 1" stroke-miterlimit="4" stroke-dasharray="none" stroke-opacity="1" stroke-linecap="butt" fill="#000000" d="M93.818,83.935L93.818,55.903L65.462,55.903L65.462,69.593L84.258,69.593L84.258,102.408L19.119,102.408L19.119,70.326L37.753,70.326L37.753,55.903L9.559,55.903L9.559,84.103L0,84.103L0,125.906L9.559,125.906L9.559,134.981L93.656,134.981L93.656,125.744L102.569,125.744L102.569,83.935L93.818,83.935ZM84.097,125.583L18.957,125.583L18.957,116.669L84.097,116.669L84.097,125.583ZM84.097,125.583"/>
  <path stroke-miterlimit="4" stroke-linecap="butt" stroke-linejoin="miter" data-name="Layer 1" stroke="none" stroke-opacity="1" stroke-dasharray="none" x="68.0852369" fill-opacity="1" stroke-width="0px" fill="#000000" y="90.0039301" fill-rule="nonzero" d="M42.291,55.905L60.925,55.905L60.925,69.592L42.291,69.592ZM42.291,55.905"/>
  <path points="68.0852369 120.078263 98.0852369 120.078263 98.0852369 128.0908867 91.3026282 128.0908867 91.3026282 142.1778432 113.2156717 142.1778432 113.2156717 127.8300171 105.3895847 127.8300171 105.3895847 120.078263 128.6069761 120.078263 128.6069761 157.7382362 38.6069761 157.7382362 38.6069761 120.078263 60.5200195 120.078263 60.5200195 127.308278 53.2156717 127.308278 53.2156717 142.6995823 75.1287152 142.6995823 75.1287152 127.5691475 68.0852369 127.5691475 68.0852369 120.078263" stroke-width="0px" stroke-dasharray="none" stroke-opacity="1" fill="#000000" stroke-linecap="butt" stroke-linejoin="miter" data-name="Layer 1" fill-opacity="1" stroke="none" fill-rule="nonzero" stroke-miterlimit="4" d="M42.291,74.586L60.925,74.586L60.925,79.563L56.712,79.563L56.712,88.313L70.323,88.313L70.323,79.401L65.462,79.401L65.462,74.586L79.883,74.586L79.883,97.978L23.98,97.978L23.98,74.586L37.592,74.586L37.592,79.077L33.055,79.077L33.055,88.637L46.666,88.637L46.666,79.239L42.291,79.239L42.291,74.586ZM42.291,74.586"/>
  <path stroke-opacity="1" fill-opacity="1" stroke="none" stroke-linejoin="miter" fill="#000000" data-name="Layer 1" stroke-dasharray="none" stroke-width="0px" stroke-miterlimit="4" fill-rule="nonzero" stroke-linecap="butt" d="M65.622,18.964L65.622,0L37.59,0L37.59,18.964L4.856,18.964L4.856,51.53L37.267,51.53L37.267,28.2L42.292,28.2L42.292,51.53L60.597,51.53L60.597,28.2L65.622,28.2L65.622,51.53L98.195,51.53L98.195,18.964L65.622,18.964ZM42.292,14.423L42.292,5.025L60.926,5.025L60.926,14.423L42.292,14.423ZM42.292,14.423"/>
</g>
  <g id="Thin-M" transform="matrix(1.0,0.0,0.0,1.0,806.4252566827558,1018.150366304478)">  <path stroke-linecap="butt" fill-rule="nonzero" data-name="Layer 1" stroke-miterlimit="4" stroke-width="0px" fill="#000000" stroke-dasharray="none" fill-opacity="1" stroke-opacity="1" stroke="none" stroke-linejoin="miter" d="M93.818,83.935L93.818,55.903L65.462,55.903L65.462,69.593L84.258,69.593L84.258,102.408L19.119,102.408L19.119,70.326L37.753,70.326L37.753,55.903L9.559,55.903L9.559,84.103L0,84.103L0,125.906L9.559,125.906L9.559,134.981L93.656,134.981L93.656,125.744L102.569,125.744L102.569,83.935L93.818,83.935ZM84.097,125.583L18.957,125.583L18.957,116.669L84.097,116.669L84.097,125.583ZM84.097,125.583"/>
  <path stroke-dasharray="none" stroke="none" y="90.0039301" stroke-linejoin="miter" stroke-width="0px" fill="#000000" fill-rule="nonzero" fill-opacity="1" x="68.0852369" stroke-linecap="butt" stroke-miterlimit="4" stroke-opacity="1" data-name="Layer 1" d="M42.291,55.905L60.925,55.905L60.925,69.592L42.291,69.592ZM42.291,55.905"/>
  <path fill-rule="nonzero" data-name="Layer 1" stroke-linejoin="miter" fill="#000000" stroke-miterlimit="4" stroke-dasharray="none" fill-opacity="1" stroke-opacity="1" stroke-width="0px" points="68.0852369 120.078263 98.0852369 120.078263 98.0852369 128.0908867 91.3026282 128.0908867 91.3026282 142.1778432 113.2156717 142.1778432 113.2156717 127.8300171 105.3895847 127.8300171 105.3895847 120.078263 128.6069761 120.078263 128.6069761 157.7382362 38.6069761 157.7382362 38.6069761 120.078263 60.5200195 120.078263 60.5200195 127.308278 53.2156717 127.308278 53.2156717 142.6995823 75.1287152 142.6995823 75.1287152 127.5691475 68.0852369 127.5691475 68.0852369 120.078263" stroke-linecap="butt" stroke="none" d="M42.291,74.586L60.925,74.586L60.925,79.563L56.712,79.563L56.712,88.313L70.323,88.313L70.323,79.401L65.462,79.401L65.462,74.586L79.883,74.586L79.883,97.978L23.98,97.978L23.98,74.586L37.592,74.586L37.592,79.077L33.055,79.077L33.055,88.637L46.666,88.637L46.666,79.239L42.291,79.239L42.291,74.586ZM42.291,74.586"/>
  <path stroke-linecap="butt" stroke-opacity="1" stroke-width="0px" stroke-linejoin="miter" data-name="Layer 1" fill="#000000" fill-opacity="1" stroke="none" stroke-dasharray="none" stroke-miterlimit="4" fill-rule="nonzero" d="M65.622,18.964L65.622,0L37.59,0L37.59,18.964L4.856,18.964L4.856,51.53L37.267,51.53L37.267,28.2L42.292,28.2L42.292,51.53L60.597,51.53L60.597,28.2L65.622,28.2L65.622,51.53L98.195,51.53L98.195,18.964L65.622,18.964ZM42.292,14.423L42.292,5.025L60.926,5.025L60.926,14.423L42.292,14.423ZM42.292,14.423"/>
</g>
  <g id="Ultralight-M" transform="matrix(1.0,0.0,0.0,1.0,509.7152566827558,1018.150366304478)">  <path fill-rule="nonzero" stroke-linecap="butt" data-name="Layer 1" stroke-width="0px" fill="#000000" stroke-linejoin="miter" stroke-dasharray="none" stroke-miterlimit="4" fill-opacity="1" stroke="none" stroke-opacity="1" d="M93.818,83.935L93.818,55.903L65.462,55.903L65.462,69.593L84.258,69.593L84.258,102.408L19.119,102.408L19.119,70.326L37.753,70.326L37.753,55.903L9.559,55.903L9.559,84.103L0,84.103L0,125.906L9.559,125.906L9.559,134.981L93.656,134.981L93.656,125.744L102.569,125.744L102.569,83.935L93.818,83.935ZM84.097,125.583L18.957,125.583L18.957,116.669L84.097,116.669L84.097,125.583ZM84.097,125.583"/>
  <path stroke-dasharray="none" stroke-width="0px" x="68.0852369" fill-opacity="1" stroke-opacity="1" stroke="none" fill-rule="nonzero" stroke-linejoin="miter" fill="#000000" y="90.0039301" stroke-miterlimit="4" stroke-linecap="butt" data-name="Layer 1" d="M42.291,55.905L60.925,55.905L60.925,69.592L42.291,69.592ZM42.291,55.905"/>
  <path points="68.0852369 120.078263 98.0852369 120.078263 98.0852369 128.0908867 91.3026282 128.0908867 91.3026282 142.1778432 113.2156717 142.1778432 113.2156717 127.8300171 105.3895847 127.8300171 105.3895847 120.078263 128.6069761 120.078263 128.6069761 157.7382362 38.6069761 157.7382362 38.6069761 120.078263 60.5200195 120.078263 60.5200195 127.308278 53.2156717 127.308278 53.2156717 142.6995823 75.1287152 142.6995823 75.1287152 127.5691475 68.0852369 127.5691475 68.0852369 120.078263" fill="#000000" stroke-linecap="butt" stroke-linejoin="miter" stroke-dasharray="none" fill-opacity="1" stroke-miterlimit="4" fill-rule="nonzero" data-name="Layer 1" stroke-opacity="1" stroke-width="0px" stroke="none" d="M42.291,74.586L60.925,74.586L60.925,79.563L56.712,79.563L56.712,88.313L70.323,88.313L70.323,79.401L65.462,79.401L65.462,74.586L79.883,74.586L79.883,97.978L23.98,97.978L23.98,74.586L37.592,74.586L37.592,79.077L33.055,79.077L33.055,88.637L46.666,88.637L46.666,79.239L42.291,79.239L42.291,74.586ZM42.291,74.586"/>
  <path stroke="none" stroke-dasharray="none" fill="#000000" fill-rule="nonzero" stroke-miterlimit="4" stroke-opacity="1" stroke-width="0px" stroke-linejoin="miter" stroke-linecap="butt" fill-opacity="1" data-name="Layer 1" d="M65.622,18.964L65.622,0L37.59,0L37.59,18.964L4.856,18.964L4.856,51.53L37.267,51.53L37.267,28.2L42.292,28.2L42.292,51.53L60.597,51.53L60.597,28.2L65.622,28.2L65.622,51.53L98.195,51.53L98.195,18.964L65.622,18.964ZM42.292,14.423L42.292,5.025L60.926,5.025L60.926,14.423L42.292,14.423ZM42.292,14.423"/>
</g>
  <g id="Black-S" transform="matrix(1.0,0.0,0.0,1.0,2894.5240459825977,603.9088310546875)">  <path fill="#000000" fill-opacity="1" fill-rule="nonzero" stroke-linejoin="miter" stroke-linecap="butt" stroke="none" stroke-opacity="1" stroke-width="0px" data-name="Layer 1" stroke-miterlimit="4" stroke-dasharray="none" d="M73.459,65.721L73.459,43.772L51.257,43.772L51.257,54.491L65.974,54.491L65.974,80.185L14.97,80.185L14.97,55.065L29.561,55.065L29.561,43.772L7.485,43.772L7.485,65.853L0,65.853L0,98.584L7.485,98.584L7.485,105.69L73.333,105.69L73.333,98.458L80.312,98.458L80.312,65.721L73.459,65.721ZM65.848,98.331L14.844,98.331L14.844,91.352L65.848,91.352L65.848,98.331ZM65.848,98.331"/>
  <path x="68.0852369" stroke-linejoin="miter" stroke-dasharray="none" stroke-miterlimit="4" y="90.0039301" data-name="Layer 1" stroke-linecap="butt" fill-rule="nonzero" stroke-opacity="1" stroke-width="0px" fill-opacity="1" fill="#000000" stroke="none" d="M33.114,43.774L47.704,43.774L47.704,54.49L33.114,54.49ZM33.114,43.774"/>
  <path stroke-dasharray="none" stroke-linecap="butt" points="68.0852369 120.078263 98.0852369 120.078263 98.0852369 128.0908867 91.3026282 128.0908867 91.3026282 142.1778432 113.2156717 142.1778432 113.2156717 127.8300171 105.3895847 127.8300171 105.3895847 120.078263 128.6069761 120.078263 128.6069761 157.7382362 38.6069761 157.7382362 38.6069761 120.078263 60.5200195 120.078263 60.5200195 127.308278 53.2156717 127.308278 53.2156717 142.6995823 75.1287152 142.6995823 75.1287152 127.5691475 68.0852369 127.5691475 68.0852369 120.078263" stroke-width="0px" fill-rule="nonzero" stroke-miterlimit="4" stroke-opacity="1" fill="#000000" stroke-linejoin="miter" data-name="Layer 1" fill-opacity="1" stroke="none" d="M33.114,58.401L47.704,58.401L47.704,62.298L44.406,62.298L44.406,69.149L55.063,69.149L55.063,62.171L51.257,62.171L51.257,58.401L62.549,58.401L62.549,76.717L18.777,76.717L18.777,58.401L29.434,58.401L29.434,61.917L25.882,61.917L25.882,69.403L36.539,69.403L36.539,62.044L33.114,62.044L33.114,58.401ZM33.114,58.401"/>
  <path stroke="none" stroke-width="0px" stroke-dasharray="none" fill-opacity="1" stroke-opacity="1" data-name="Layer 1" stroke-linecap="butt" stroke-miterlimit="4" fill-rule="nonzero" stroke-linejoin="miter" fill="#000000" d="M51.382,14.848L51.382,0L29.433,0L29.433,14.848L3.802,14.848L3.802,40.348L29.18,40.348L29.18,22.081L33.115,22.081L33.115,40.348L47.448,40.348L47.448,22.081L51.382,22.081L51.382,40.348L76.887,40.348L76.887,14.848L51.382,14.848ZM33.115,11.293L33.115,3.935L47.705,3.935L47.705,11.293L33.115,11.293ZM33.115,11.293"/>
</g>
  <g id="Heavy-S" transform="matrix(1.0,0.0,0.0,1.0,2597.8140459825977,603.9088310546875)">  <path stroke-opacity="1" stroke="none" stroke-dasharray="none" fill="#000000" fill-opacity="1" stroke-width="0px" stroke-linejoin="miter" stroke-linecap="butt" data-name="Layer 1" stroke-miterlimit="4" fill-rule="nonzero" d="M73.459,65.721L73.459,43.772L51.257,43.772L51.257,54.491L65.974,54.491L65.974,80.185L14.97,80.185L14.97,55.065L29.561,55.065L29.561,43.772L7.485,43.772L7.485,65.853L0,65.853L0,98.584L7.485,98.584L7.485,105.69L73.333,105.69L73.333,98.458L80.312,98.458L80.312,65.721L73.459,65.721ZM65.848,98.331L14.844,98.331L14.844,91.352L65.848,91.352L65.848,98.331ZM65.848,98.331"/>
  <path stroke-linecap="butt" stroke="none" stroke-opacity="1" x="68.0852369" data-name="Layer 1" fill-opacity="1" fill-rule="nonzero" stroke-dasharray="none" stroke-linejoin="miter" y="90.0039301" fill="#000000" stroke-width="0px" stroke-miterlimit="4" d="M33.114,43.774L47.704,43.774L47.704,54.49L33.114,54.49ZM33.114,43.774"/>
  <path stroke-linejoin="miter" stroke-dasharray="none" fill="#000000" stroke-opacity="1" data-name="Layer 1" stroke-width="0px" stroke="none" fill-opacity="1" stroke-miterlimit="4" points="68.0852369 120.078263 98.0852369 120.078263 98.0852369 128.0908867 91.3026282 128.0908867 91.3026282 142.1778432 113.2156717 142.1778432 113.2156717 127.8300171 105.3895847 127.8300171 105.3895847 120.078263 128.6069761 120.078263 128.6069761 157.7382362 38.6069761 157.7382362 38.6069761 120.078263 60.5200195 120.078263 60.5200195 127.308278 53.2156717 127.308278 53.2156717 142.6995823 75.1287152 142.6995823 75.1287152 127.5691475 68.0852369 127.5691475 68.0852369 120.078263" stroke-linecap="butt" fill-rule="nonzero" d="M33.114,58.401L47.704,58.401L47.704,62.298L44.406,62.298L44.406,69.149L55.063,69.149L55.063,62.171L51.257,62.171L51.257,58.401L62.549,58.401L62.549,76.717L18.777,76.717L18.777,58.401L29.434,58.401L29.434,61.917L25.882,61.917L25.882,69.403L36.539,69.403L36.539,62.044L33.114,62.044L33.114,58.401ZM33.114,58.401"/>
  <path fill="#000000" stroke-linejoin="miter" data-name="Layer 1" stroke-dasharray="none" stroke="none" fill-opacity="1" stroke-linecap="butt" stroke-width="0px" stroke-miterlimit="4" stroke-opacity="1" fill-rule="nonzero" d="M51.382,14.848L51.382,0L29.433,0L29.433,14.848L3.802,14.848L3.802,40.348L29.18,40.348L29.18,22.081L33.115,22.081L33.115,40.348L47.448,40.348L47.448,22.081L51.382,22.081L51.382,40.348L76.887,40.348L76.887,14.848L51.382,14.848ZM33.115,11.293L33.115,3.935L47.705,3.935L47.705,11.293L33.115,11.293ZM33.115,11.293"/>
</g>
  <g id="Bold-S" transform="matrix(1.0,0.0,0.0,1.0,2301.1040459825977,603.9088310546875)">  <path stroke="none" stroke-linecap="butt" stroke-miterlimit="4" fill="#000000" stroke-linejoin="miter" stroke-opacity="1" fill-opacity="1" stroke-dasharray="none" stroke-width="0px" data-name="Layer 1" fill-rule="nonzero" d="M73.459,65.721L73.459,43.772L51.257,43.772L51.257,54.491L65.974,54.491L65.974,80.185L14.97,80.185L14.97,55.065L29.561,55.065L29.561,43.772L7.485,43.772L7.485,65.853L0,65.853L0,98.584L7.485,98.584L7.485,105.69L73.333,105.69L73.333,98.458L80.312,98.458L80.312,65.721L73.459,65.721ZM65.848,98.331L14.844,98.331L14.844,91.352L65.848,91.352L65.848,98.331ZM65.848,98.331"/>
  <path stroke-width="0px" data-name="Layer 1" y="90.0039301" stroke-linecap="butt" x="68.0852369" stroke="none" fill="#000000" stroke-dasharray="none" stroke-miterlimit="4" stroke-linejoin="miter" fill-rule="nonzero" stroke-opacity="1" fill-opacity="1" d="M33.114,43.774L47.704,43.774L47.704,54.49L33.114,54.49ZM33.114,43.774"/>
  <path stroke-miterlimit="4" data-name="Layer 1" points="68.0852369 120.078263 98.0852369 120.078263 98.0852369 128.0908867 91.3026282 128.0908867 91.3026282 142.1778432 113.2156717 142.1778432 113.2156717 127.8300171 105.3895847 127.8300171 105.3895847 120.078263 128.6069761 120.078263 128.6069761 157.7382362 38.6069761 157.7382362 38.6069761 120.078263 60.5200195 120.078263 60.5200195 127.308278 53.2156717 127.308278 53.2156717 142.6995823 75.1287152 142.6995823 75.1287152 127.5691475 68.0852369 127.5691475 68.0852369 120.078263" stroke="none" stroke-linejoin="miter" fill="#000000" stroke-linecap="butt" fill-opacity="1" stroke-opacity="1" stroke-dasharray="none" fill-rule="nonzero" stroke-width="0px" d="M33.114,58.401L47.704,58.401L47.704,62.298L44.406,62.298L44.406,69.149L55.063,69.149L55.063,62.171L51.257,62.171L51.257,58.401L62.549,58.401L62.549,76.717L18.777,76.717L18.777,58.401L29.434,58.401L29.434,61.917L25.882,61.917L25.882,69.403L36.539,69.403L36.539,62.044L33.114,62.044L33.114,58.401ZM33.114,58.401"/>
  <path stroke-width="0px" fill="#000000" stroke-opacity="1" data-name="Layer 1" stroke="none" stroke-linejoin="miter" stroke-dasharray="none" fill-rule="nonzero" fill-opacity="1" stroke-linecap="butt" stroke-miterlimit="4" d="M51.382,14.848L51.382,0L29.433,0L29.433,14.848L3.802,14.848L3.802,40.348L29.18,40.348L29.18,22.081L33.115,22.081L33.115,40.348L47.448,40.348L47.448,22.081L51.382,22.081L51.382,40.348L76.887,40.348L76.887,14.848L51.382,14.848ZM33.115,11.293L33.115,3.935L47.705,3.935L47.705,11.293L33.115,11.293ZM33.115,11.293"/>
</g>
  <g id="Semibold-S" transform="matrix(1.0,0.0,0.0,1.0,2004.3940459825978,603.9088310546875)">  <path stroke="none" stroke-width="0px" stroke-dasharray="none" fill="#000000" stroke-linejoin="miter" stroke-miterlimit="4" fill-rule="nonzero" fill-opacity="1" stroke-linecap="butt" data-name="Layer 1" stroke-opacity="1" d="M73.459,65.721L73.459,43.772L51.257,43.772L51.257,54.491L65.974,54.491L65.974,80.185L14.97,80.185L14.97,55.065L29.561,55.065L29.561,43.772L7.485,43.772L7.485,65.853L0,65.853L0,98.584L7.485,98.584L7.485,105.69L73.333,105.69L73.333,98.458L80.312,98.458L80.312,65.721L73.459,65.721ZM65.848,98.331L14.844,98.331L14.844,91.352L65.848,91.352L65.848,98.331ZM65.848,98.331"/>
  <path stroke-linejoin="miter" stroke-linecap="butt" data-name="Layer 1" y="90.0039301" stroke-width="0px" x="68.0852369" fill-rule="nonzero" stroke="none" stroke-opacity="1" fill="#000000" stroke-miterlimit="4" stroke-dasharray="none" fill-opacity="1" d="M33.114,43.774L47.704,43.774L47.704,54.49L33.114,54.49ZM33.114,43.774"/>
  <path stroke-dasharray="none" stroke="none" fill-opacity="1" stroke-linecap="butt" stroke-linejoin="miter" stroke-opacity="1" fill-rule="nonzero" data-name="Layer 1" points="68.0852369 120.078263 98.0852369 120.078263 98.0852369 128.0908867 91.3026282 128.0908867 91.3026282 142.1778432 113.2156717 142.1778432 113.2156717 127.8300171 105.3895847 127.8300171 105.3895847 120.078263 128.6069761 120.078263 128.6069761 157.7382362 38.6069761 157.7382362 38.6069761 120.078263 60.5200195 120.078263 60.5200195 127.308278 53.2156717 127.308278 53.2156717 142.6995823 75.1287152 142.6995823 75.1287152 127.5691475 68.0852369 127.5691475 68.0852369 120.078263" stroke-width="0px" stroke-miterlimit="4" fill="#000000" d="M33.114,58.401L47.704,58.401L47.704,62.298L44.406,62.298L44.406,69.149L55.063,69.149L55.063,62.171L51.257,62.171L51.257,58.401L62.549,58.401L62.549,76.717L18.777,76.717L18.777,58.401L29.434,58.401L29.434,61.917L25.882,61.917L25.882,69.403L36.539,69.403L36.539,62.044L33.114,62.044L33.114,58.401ZM33.114,58.401"/>
  <path stroke="none" fill="#000000" fill-rule="nonzero" stroke-dasharray="none" stroke-width="0px" stroke-opacity="1" fill-opacity="1" stroke-miterlimit="4" data-name="Layer 1" stroke-linecap="butt" stroke-linejoin="miter" d="M51.382,14.848L51.382,0L29.433,0L29.433,14.848L3.802,14.848L3.802,40.348L29.18,40.348L29.18,22.081L33.115,22.081L33.115,40.348L47.448,40.348L47.448,22.081L51.382,22.081L51.382,40.348L76.887,40.348L76.887,14.848L51.382,14.848ZM33.115,11.293L33.115,3.935L47.705,3.935L47.705,11.293L33.115,11.293ZM33.115,11.293"/>
</g>
  <g id="Medium-S" transform="matrix(1.0,0.0,0.0,1.0,1707.6840459825978,603.9088310546875)">  <path fill-opacity="1" stroke-linecap="butt" stroke="none" stroke-width="0px" data-name="Layer 1" stroke-linejoin="miter" stroke-dasharray="none" fill="#000000" stroke-miterlimit="4" fill-rule="nonzero" stroke-opacity="1" d="M73.459,65.721L73.459,43.772L51.257,43.772L51.257,54.491L65.974,54.491L65.974,80.185L14.97,80.185L14.97,55.065L29.561,55.065L29.561,43.772L7.485,43.772L7.485,65.853L0,65.853L0,98.584L7.485,98.584L7.485,105.69L73.333,105.69L73.333,98.458L80.312,98.458L80.312,65.721L73.459,65.721ZM65.848,98.331L14.844,98.331L14.844,91.352L65.848,91.352L65.848,98.331ZM65.848,98.331"/>
  <path stroke-miterlimit="4" stroke="none" stroke-linejoin="miter" data-name="Layer 1" x="68.0852369" stroke-opacity="1" fill-rule="nonzero" fill="#000000" stroke-linecap="butt" stroke-dasharray="none" stroke-width="0px" y="90.0039301" fill-opacity="1" d="M33.114,43.774L47.704,43.774L47.704,54.49L33.114,54.49ZM33.114,43.774"/>
  <path fill-opacity="1" stroke-miterlimit="4" stroke-linecap="butt" stroke-dasharray="none" stroke-width="0px" fill="#000000" stroke-linejoin="miter" data-name="Layer 1" points="68.0852369 120.078263 98.0852369 120.078263 98.0852369 128.0908867 91.3026282 128.0908867 91.3026282 142.1778432 113.2156717 142.1778432 113.2156717 127.8300171 105.3895847 127.8300171 105.3895847 120.078263 128.6069761 120.078263 128.6069761 157.7382362 38.6069761 157.7382362 38.6069761 120.078263 60.5200195 120.078263 60.5200195 127.308278 53.2156717 127.308278 53.2156717 142.6995823 75.1287152 142.6995823 75.1287152 127.5691475 68.0852369 127.5691475 68.0852369 120.078263" fill-rule="nonzero" stroke-opacity="1" stroke="none" d="M33.114,58.401L47.704,58.401L47.704,62.298L44.406,62.298L44.406,69.149L55.063,69.149L55.063,62.171L51.257,62.171L51.257,58.401L62.549,58.401L62.549,76.717L18.777,76.717L18.777,58.401L29.434,58.401L29.434,61.917L25.882,61.917L25.882,69.403L36.539,69.403L36.539,62.044L33.114,62.044L33.114,58.401ZM33.114,58.401"/>
  <path stroke-opacity="1" stroke-dasharray="none" data-name="Layer 1" stroke-linejoin="miter" fill-opacity="1" fill-rule="nonzero" stroke="none" stroke-linecap="butt" stroke-miterlimit="4" fill="#000000" stroke-width="0px" d="M51.382,14.848L51.382,0L29.433,0L29.433,14.848L3.802,14.848L3.802,40.348L29.18,40.348L29.18,22.081L33.115,22.081L33.115,40.348L47.448,40.348L47.448,22.081L51.382,22.081L51.382,40.348L76.887,40.348L76.887,14.848L51.382,14.848ZM33.115,11.293L33.115,3.935L47.705,3.935L47.705,11.293L33.115,11.293ZM33.115,11.293"/>
</g>
  <g id="Regular-S" transform="matrix(1.0,0.0,0.0,1.0,1410.9740459825978,603.9088310546875)">  <path stroke="none" stroke-opacity="1" stroke-miterlimit="4" stroke-linecap="butt" fill-rule="nonzero" fill-opacity="1" fill="#000000" data-name="Layer 1" stroke-width="0px" stroke-linejoin="miter" stroke-dasharray="none" d="M73.459,65.721L73.459,43.772L51.257,43.772L51.257,54.491L65.974,54.491L65.974,80.185L14.97,80.185L14.97,55.065L29.561,55.065L29.561,43.772L7.485,43.772L7.485,65.853L0,65.853L0,98.584L7.485,98.584L7.485,105.69L73.333,105.69L73.333,98.458L80.312,98.458L80.312,65.721L73.459,65.721ZM65.848,98.331L14.844,98.331L14.844,91.352L65.848,91.352L65.848,98.331ZM65.848,98.331"/>
  <path y="90.0039301" x="68.0852369" stroke-linejoin="miter" stroke-opacity="1" stroke-width="0px" stroke="none" fill-opacity="1" stroke-miterlimit="4" stroke-linecap="butt" data-name="Layer 1" fill="#000000" fill-rule="nonzero" stroke-dasharray="none" d="M33.114,43.774L47.704,43.774L47.704,54.49L33.114,54.49ZM33.114,43.774"/>
  <path stroke-opacity="1" fill="#000000" stroke-linejoin="miter" data-name="Layer 1" stroke-miterlimit="4" stroke-linecap="butt" points="68.0852369 120.078263 98.0852369 120.078263 98.0852369 128.0908867 91.3026282 128.0908867 91.3026282 142.1778432 113.2156717 142.1778432 113.2156717 127.8300171 105.3895847 127.8300171 105.3895847 120.078263 128.6069761 120.078263 128.6069761 157.7382362 38.6069761 157.7382362 38.6069761 120.078263 60.5200195 120.078263 60.5200195 127.308278 53.2156717 127.308278 53.2156717 142.6995823 75.1287152 142.6995823 75.1287152 127.5691475 68.0852369 127.5691475 68.0852369 120.078263" stroke="none" stroke-width="0px" stroke-dasharray="none" fill-rule="nonzero" fill-opacity="1" d="M33.114,58.401L47.704,58.401L47.704,62.298L44.406,62.298L44.406,69.149L55.063,69.149L55.063,62.171L51.257,62.171L51.257,58.401L62.549,58.401L62.549,76.717L18.777,76.717L18.777,58.401L29.434,58.401L29.434,61.917L25.882,61.917L25.882,69.403L36.539,69.403L36.539,62.044L33.114,62.044L33.114,58.401ZM33.114,58.401"/>
  <path fill-rule="nonzero" stroke-dasharray="none" stroke-linecap="butt" data-name="Layer 1" fill="#000000" fill-opacity="1" stroke-opacity="1" stroke-miterlimit="4" stroke-linejoin="miter" stroke-width="0px" stroke="none" d="M51.382,14.848L51.382,0L29.433,0L29.433,14.848L3.802,14.848L3.802,40.348L29.18,40.348L29.18,22.081L33.115,22.081L33.115,40.348L47.448,40.348L47.448,22.081L51.382,22.081L51.382,40.348L76.887,40.348L76.887,14.848L51.382,14.848ZM33.115,11.293L33.115,3.935L47.705,3.935L47.705,11.293L33.115,11.293ZM33.115,11.293"/>
</g>
  <g id="Light-S" transform="matrix(1.0,0.0,0.0,1.0,1114.264045982598,603.9088310546875)">  <path fill-rule="nonzero" stroke="none" stroke-width="0px" stroke-linejoin="miter" fill-opacity="1" data-name="Layer 1" stroke-miterlimit="4" stroke-dasharray="none" stroke-opacity="1" stroke-linecap="butt" fill="#000000" d="M73.459,65.721L73.459,43.772L51.257,43.772L51.257,54.491L65.974,54.491L65.974,80.185L14.97,80.185L14.97,55.065L29.561,55.065L29.561,43.772L7.485,43.772L7.485,65.853L0,65.853L0,98.584L7.485,98.584L7.485,105.69L73.333,105.69L73.333,98.458L80.312,98.458L80.312,65.721L73.459,65.721ZM65.848,98.331L14.844,98.331L14.844,91.352L65.848,91.352L65.848,98.331ZM65.848,98.331"/>
  <path stroke-miterlimit="4" stroke-linecap="butt" stroke-linejoin="miter" data-name="Layer 1" stroke="none" stroke-opacity="1" stroke-dasharray="none" x="68.0852369" fill-opacity="1" stroke-width="0px" fill="#000000" y="90.0039301" fill-rule="nonzero" d="M33.114,43.774L47.704,43.774L47.704,54.49L33.114,54.49ZM33.114,43.774"/>
  <path points="68.0852369 120.078263 98.0852369 120.078263 98.0852369 128.0908867 91.3026282 128.0908867 91.3026282 142.1778432 113.2156717 142.1778432 113.2156717 127.8300171 105.3895847 127.8300171 105.3895847 120.078263 128.6069761 120.078263 128.6069761 157.7382362 38.6069761 157.7382362 38.6069761 120.078263 60.5200195 120.078263 60.5200195 127.308278 53.2156717 127.308278 53.2156717 142.6995823 75.1287152 142.6995823 75.1287152 127.5691475 68.0852369 127.5691475 68.0852369 120.078263" stroke-width="0px" stroke-dasharray="none" stroke-opacity="1" fill="#000000" stroke-linecap="butt" stroke-linejoin="miter" data-name="Layer 1" fill-opacity="1" stroke="none" fill-rule="nonzero" stroke-miterlimit="4" d="M33.114,58.401L47.704,58.401L47.704,62.298L44.406,62.298L44.406,69.149L55.063,69.149L55.063,62.171L51.257,62.171L51.257,58.401L62.549,58.401L62.549,76.717L18.777,76.717L18.777,58.401L29.434,58.401L29.434,61.917L25.882,61.917L25.882,69.403L36.539,69.403L36.539,62.044L33.114,62.044L33.114,58.401ZM33.114,58.401"/>
  <path stroke-opacity="1" fill-opacity="1" stroke="none" stroke-linejoin="miter" fill="#000000" data-name="Layer 1" stroke-dasharray="none" stroke-width="0px" stroke-miterlimit="4" fill-rule="nonzero" stroke-linecap="butt" d="M51.382,14.848L51.382,0L29.433,0L29.433,14.848L3.802,14.848L3.802,40.348L29.18,40.348L29.18,22.081L33.115,22.081L33.115,40.348L47.448,40.348L47.448,22.081L51.382,22.081L51.382,40.348L76.887,40.348L76.887,14.848L51.382,14.848ZM33.115,11.293L33.115,3.935L47.705,3.935L47.705,11.293L33.115,11.293ZM33.115,11.293"/>
</g>
  <g id="Thin-S" transform="matrix(1.0,0.0,0.0,1.0,817.5540459825978,603.9088310546875)">  <path stroke-linecap="butt" fill-rule="nonzero" data-name="Layer 1" stroke-miterlimit="4" stroke-width="0px" fill="#000000" stroke-dasharray="none" fill-opacity="1" stroke-opacity="1" stroke="none" stroke-linejoin="miter" d="M73.459,65.721L73.459,43.772L51.257,43.772L51.257,54.491L65.974,54.491L65.974,80.185L14.97,80.185L14.97,55.065L29.561,55.065L29.561,43.772L7.485,43.772L7.485,65.853L0,65.853L0,98.584L7.485,98.584L7.485,105.69L73.333,105.69L73.333,98.458L80.312,98.458L80.312,65.721L73.459,65.721ZM65.848,98.331L14.844,98.331L14.844,91.352L65.848,91.352L65.848,98.331ZM65.848,98.331"/>
  <path stroke-dasharray="none" stroke="none" y="90.0039301" stroke-linejoin="miter" stroke-width="0px" fill="#000000" fill-rule="nonzero" fill-opacity="1" x="68.0852369" stroke-linecap="butt" stroke-miterlimit="4" stroke-opacity="1" data-name="Layer 1" d="M33.114,43.774L47.704,43.774L47.704,54.49L33.114,54.49ZM33.114,43.774"/>
  <path fill-rule="nonzero" data-name="Layer 1" stroke-linejoin="miter" fill="#000000" stroke-miterlimit="4" stroke-dasharray="none" fill-opacity="1" stroke-opacity="1" stroke-width="0px" points="68.0852369 120.078263 98.0852369 120.078263 98.0852369 128.0908867 91.3026282 128.0908867 91.3026282 142.1778432 113.2156717 142.1778432 113.2156717 127.8300171 105.3895847 127.8300171 105.3895847 120.078263 128.6069761 120.078263 128.6069761 157.7382362 38.6069761 157.7382362 38.6069761 120.078263 60.5200195 120.078263 60.5200195 127.308278 53.2156717 127.308278 53.2156717 142.6995823 75.1287152 142.6995823 75.1287152 127.5691475 68.0852369 127.5691475 68.0852369 120.078263" stroke-linecap="butt" stroke="none" d="M33.114,58.401L47.704,58.401L47.704,62.298L44.406,62.298L44.406,69.149L55.063,69.149L55.063,62.171L51.257,62.171L51.257,58.401L62.549,58.401L62.549,76.717L18.777,76.717L18.777,58.401L29.434,58.401L29.434,61.917L25.882,61.917L25.882,69.403L36.539,69.403L36.539,62.044L33.114,62.044L33.114,58.401ZM33.114,58.401"/>
  <path stroke-linecap="butt" stroke-opacity="1" stroke-width="0px" stroke-linejoin="miter" data-name="Layer 1" fill="#000000" fill-opacity="1" stroke="none" stroke-dasharray="none" stroke-miterlimit="4" fill-rule="nonzero" d="M51.382,14.848L51.382,0L29.433,0L29.433,14.848L3.802,14.848L3.802,40.348L29.18,40.348L29.18,22.081L33.115,22.081L33.115,40.348L47.448,40.348L47.448,22.081L51.382,22.081L51.382,40.348L76.887,40.348L76.887,14.848L51.382,14.848ZM33.115,11.293L33.115,3.935L47.705,3.935L47.705,11.293L33.115,11.293ZM33.115,11.293"/>
</g>
  <g id="Ultralight-S" transform="matrix(1.0,0.0,0.0,1.0,520.8440459825978,603.9088310546875)">  <path fill-rule="nonzero" stroke-linecap="butt" data-name="Layer 1" stroke-width="0px" fill="#000000" stroke-linejoin="miter" stroke-dasharray="none" stroke-miterlimit="4" fill-opacity="1" stroke="none" stroke-opacity="1" d="M73.459,65.721L73.459,43.772L51.257,43.772L51.257,54.491L65.974,54.491L65.974,80.185L14.97,80.185L14.97,55.065L29.561,55.065L29.561,43.772L7.485,43.772L7.485,65.853L0,65.853L0,98.584L7.485,98.584L7.485,105.69L73.333,105.69L73.333,98.458L80.312,98.458L80.312,65.721L73.459,65.721ZM65.848,98.331L14.844,98.331L14.844,91.352L65.848,91.352L65.848,98.331ZM65.848,98.331"/>
  <path stroke-dasharray="none" stroke-width="0px" x="68.0852369" fill-opacity="1" stroke-opacity="1" stroke="none" fill-rule="nonzero" stroke-linejoin="miter" fill="#000000" y="90.0039301" stroke-miterlimit="4" stroke-linecap="butt" data-name="Layer 1" d="M33.114,43.774L47.704,43.774L47.704,54.49L33.114,54.49ZM33.114,43.774"/>
  <path points="68.0852369 120.078263 98.0852369 120.078263 98.0852369 128.0908867 91.3026282 128.0908867 91.3026282 142.1778432 113.2156717 142.1778432 113.2156717 127.8300171 105.3895847 127.8300171 105.3895847 120.078263 128.6069761 120.078263 128.6069761 157.7382362 38.6069761 157.7382362 38.6069761 120.078263 60.5200195 120.078263 60.5200195 127.308278 53.2156717 127.308278 53.2156717 142.6995823 75.1287152 142.6995823 75.1287152 127.5691475 68.0852369 127.5691475 68.0852369 120.078263" fill="#000000" stroke-linecap="butt" stroke-linejoin="miter" stroke-dasharray="none" fill-opacity="1" stroke-miterlimit="4" fill-rule="nonzero" data-name="Layer 1" stroke-opacity="1" stroke-width="0px" stroke="none" d="M33.114,58.401L47.704,58.401L47.704,62.298L44.406,62.298L44.406,69.149L55.063,69.149L55.063,62.171L51.257,62.171L51.257,58.401L62.549,58.401L62.549,76.717L18.777,76.717L18.777,58.401L29.434,58.401L29.434,61.917L25.882,61.917L25.882,69.403L36.539,69.403L36.539,62.044L33.114,62.044L33.114,58.401ZM33.114,58.401"/>
  <path stroke="none" stroke-dasharray="none" fill="#000000" fill-rule="nonzero" stroke-miterlimit="4" stroke-opacity="1" stroke-width="0px" stroke-linejoin="miter" stroke-linecap="butt" fill-opacity="1" data-name="Layer 1" d="M51.382,14.848L51.382,0L29.433,0L29.433,14.848L3.802,14.848L3.802,40.348L29.18,40.348L29.18,22.081L33.115,22.081L33.115,40.348L47.448,40.348L47.448,22.081L51.382,22.081L51.382,40.348L76.887,40.348L76.887,14.848L51.382,14.848ZM33.115,11.293L33.115,3.935L47.705,3.935L47.705,11.293L33.115,11.293ZM33.115,11.293"/>
</g>
 </g>
</svg>
