<?xml version="1.0" encoding="UTF-8"?>
<!-- Generator: CustomSymbols v2.7.2.48 by @serious_bret https://bretlester.com/app_content/CustomSymbols/ -->
<!-- Guides: Left/Right 0.161/0.091 Cap/Base 0.191/0.191 -->
<!-- Settings: RefScale 1.0 Min/Max Stroke Scales 0.5/2.2100000381469727 -->
<!DOCTYPE svg
PUBLIC "-//W3C//DTD SVG 1.1//EN"
       "http://www.w3.org/Graphics/SVG/1.1/DTD/svg11.dtd">
<svg version="1.1" xmlns="http://www.w3.org/2000/svg" xmlns:xlink="http://www.w3.org/1999/xlink" width="3300" height="2200">
<![CDATA[<?xml version="1.0" encoding="UTF-8"?>
<svg id="Layer_1" data-name="Layer 1" xmlns="http://www.w3.org/2000/svg" viewBox="0 0 136.4400024 163">
  <defs>
    <style>
      .cls-1 {
        fill: #231f20;
        stroke: #231f20;
        stroke-miterlimit: 10;
        stroke-width: 3px;
      }
    </style>
  </defs>
  <path class="cls-1" d="M14.9400024,1.5l-.1300049,13.2200317H1.5v7.039978h13.5700073v53.2199707H1.5v6.5200195h13.3099976v60H1.5v7h13.4400024v13h120V1.5H14.9400024ZM39.2000122,159.9899902h-12.5300293V3h12.5300293v156.9899902Z"/>
</svg>]]>
 <g id="Notes">
  <rect height="2200" id="artboard" style="fill:white;opacity:1" width="3300" x="0" y="0"/>
  <line id="" style="fill:none;stroke:black;opacity:1;stroke-width:0.5;" x1="263" x2="3036" y1="292" y2="292"/>
  <text id="reftext1" style="stroke:none;fill:black;font-family:-apple-system,&quot;SF Pro Display&quot;,&quot;SF Pro Text&quot;,Helvetica,sans-serif;font-weight:bold;" transform="matrix(1 0 0 1 263 322)">Weight/Scale Variations</text>
  <text id="reftext2" style="stroke:none;fill:black;font-family:-apple-system,&quot;SF Pro Display&quot;,&quot;SF Pro Text&quot;,Helvetica,sans-serif;text-anchor:middle;" transform="matrix(1 0 0 1 559.711 322)">Ultralight</text>
  <text style="stroke:none;fill:black;font-family:-apple-system,&quot;SF Pro Display&quot;,&quot;SF Pro Text&quot;,Helvetica,sans-serif;text-anchor:middle;" transform="matrix(1 0 0 1 856.422 322)">Thin</text>
  <text style="stroke:none;fill:black;font-family:-apple-system,&quot;SF Pro Display&quot;,&quot;SF Pro Text&quot;,Helvetica,sans-serif;text-anchor:middle;" transform="matrix(1 0 0 1 1153.13 322)">Light</text>
  <text style="stroke:none;fill:black;font-family:-apple-system,&quot;SF Pro Display&quot;,&quot;SF Pro Text&quot;,Helvetica,sans-serif;text-anchor:middle;" transform="matrix(1 0 0 1 1449.84 322)">Regular</text>
  <text style="stroke:none;fill:black;font-family:-apple-system,&quot;SF Pro Display&quot;,&quot;SF Pro Text&quot;,Helvetica,sans-serif;text-anchor:middle;" transform="matrix(1 0 0 1 1746.56 322)">Medium</text>
  <text style="stroke:none;fill:black;font-family:-apple-system,&quot;SF Pro Display&quot;,&quot;SF Pro Text&quot;,Helvetica,sans-serif;text-anchor:middle;" transform="matrix(1 0 0 1 2043.27 322)">Semibold</text>
  <text style="stroke:none;fill:black;font-family:-apple-system,&quot;SF Pro Display&quot;,&quot;SF Pro Text&quot;,Helvetica,sans-serif;text-anchor:middle;" transform="matrix(1 0 0 1 2339.98 322)">Bold</text>
  <text style="stroke:none;fill:black;font-family:-apple-system,&quot;SF Pro Display&quot;,&quot;SF Pro Text&quot;,Helvetica,sans-serif;text-anchor:middle;" transform="matrix(1 0 0 1 2636.69 322)">Heavy</text>
  <text style="stroke:none;fill:black;font-family:-apple-system,&quot;SF Pro Display&quot;,&quot;SF Pro Text&quot;,Helvetica,sans-serif;text-anchor:middle;" transform="matrix(1 0 0 1 2933.4 322)">Black</text>
  <line id="" style="fill:none;stroke:black;opacity:1;stroke-width:0.5;" x1="263" x2="3036" y1="1903" y2="1903"/>
  <g id="" transform="matrix(1 0 0 1 263 1933)">
   <path d="M9.24805 0.830078C13.5547 0.830078 17.1387-2.74414 17.1387-7.05078C17.1387-11.3574 13.5449-14.9316 9.23828-14.9316C4.94141-14.9316 1.36719-11.3574 1.36719-7.05078C1.36719-2.74414 4.95117 0.830078 9.24805 0.830078ZM9.24805-0.654297C5.70312-0.654297 2.87109-3.49609 2.87109-7.05078C2.87109-10.6055 5.69336-13.4473 9.23828-13.4473C12.793-13.4473 15.6348-10.6055 15.6445-7.05078C15.6543-3.49609 12.8027-0.654297 9.24805-0.654297ZM6.39648-6.31836L8.50586-6.31836L8.50586-4.19922C8.50586-3.75977 8.79883-3.45703 9.22852-3.45703C9.67773-3.45703 9.9707-3.75977 9.9707-4.19922L9.9707-6.31836L12.0996-6.31836C12.5391-6.31836 12.8418-6.61133 12.8418-7.04102C12.8418-7.48047 12.5391-7.7832 12.0996-7.7832L9.9707-7.7832L9.9707-9.89258C9.9707-10.3418 9.67773-10.6445 9.22852-10.6445C8.79883-10.6445 8.50586-10.3418 8.50586-9.89258L8.50586-7.7832L6.39648-7.7832C5.94727-7.7832 5.64453-7.48047 5.64453-7.04102C5.64453-6.61133 5.94727-6.31836 6.39648-6.31836Z"/>
  </g>
  <g id="" transform="matrix(1 0 0 1 281.506 1933)">
   <path d="M11.709 2.91016C17.1582 2.91016 21.6699-1.61133 21.6699-7.05078C21.6699-12.5 17.1484-17.0117 11.6992-17.0117C6.25977-17.0117 1.74805-12.5 1.74805-7.05078C1.74805-1.61133 6.26953 2.91016 11.709 2.91016ZM11.709 1.25C7.09961 1.25 3.41797-2.44141 3.41797-7.05078C3.41797-11.6602 7.08984-15.3516 11.6992-15.3516C16.3086-15.3516 20-11.6602 20.0098-7.05078C20.0195-2.44141 16.3184 1.25 11.709 1.25ZM7.98828-6.23047L10.8789-6.23047L10.8789-3.32031C10.8789-2.83203 11.2109-2.5 11.6895-2.5C12.1777-2.5 12.5195-2.83203 12.5195-3.32031L12.5195-6.23047L15.4297-6.23047C15.918-6.23047 16.25-6.5625 16.25-7.04102C16.25-7.5293 15.918-7.87109 15.4297-7.87109L12.5195-7.87109L12.5195-10.7617C12.5195-11.2695 12.1777-11.6016 11.6895-11.6016C11.2109-11.6016 10.8789-11.2598 10.8789-10.7617L10.8789-7.87109L7.98828-7.87109C7.48047-7.87109 7.14844-7.5293 7.14844-7.04102C7.14844-6.5625 7.49023-6.23047 7.98828-6.23047Z"/>
  </g>
  <g id="" transform="matrix(1 0 0 1 304.924 1933)">
   <path d="M14.9707 5.66406C21.9336 5.66406 27.6953-0.0976562 27.6953-7.05078C27.6953-14.0137 21.9238-19.7754 14.9609-19.7754C8.00781-19.7754 2.25586-14.0137 2.25586-7.05078C2.25586-0.0976562 8.01758 5.66406 14.9707 5.66406ZM14.9707 3.84766C8.93555 3.84766 4.08203-1.01562 4.08203-7.05078C4.08203-13.0957 8.92578-17.9492 14.9609-17.9492C21.0059-17.9492 25.8594-13.0957 25.8691-7.05078C25.8789-1.01562 21.0156 3.84766 14.9707 3.84766ZM10.0586-6.14258L14.0625-6.14258L14.0625-2.12891C14.0625-1.5918 14.4336-1.2207 14.9512-1.2207C15.4883-1.2207 15.8594-1.5918 15.8594-2.12891L15.8594-6.14258L19.8828-6.14258C20.4102-6.14258 20.791-6.51367 20.791-7.03125C20.791-7.56836 20.4199-7.94922 19.8828-7.94922L15.8594-7.94922L15.8594-11.9531C15.8594-12.5098 15.4883-12.8809 14.9512-12.8809C14.4336-12.8809 14.0625-12.5 14.0625-11.9531L14.0625-7.94922L10.0586-7.94922C9.50195-7.94922 9.13086-7.56836 9.13086-7.03125C9.13086-6.51367 9.51172-6.14258 10.0586-6.14258Z"/>
  </g>
  <text style="stroke:none;fill:black;font-family:-apple-system,&quot;SF Pro Display&quot;,&quot;SF Pro Text&quot;,Helvetica,sans-serif;font-weight:bold;" transform="matrix(1 0 0 1 263 1953)">Design Variations</text>
  <text style="stroke:none;fill:black;font-family:-apple-system,&quot;SF Pro Display&quot;,&quot;SF Pro Text&quot;,Helvetica,sans-serif;" transform="matrix(1 0 0 1 263 1971)">Symbols are supported in up to nine weights and three scales.</text>
  <text style="stroke:none;fill:black;font-family:-apple-system,&quot;SF Pro Display&quot;,&quot;SF Pro Text&quot;,Helvetica,sans-serif;" transform="matrix(1 0 0 1 263 1989)">For optimal layout with text and other symbols, vertically align</text>
  <text style="stroke:none;fill:black;font-family:-apple-system,&quot;SF Pro Display&quot;,&quot;SF Pro Text&quot;,Helvetica,sans-serif;" transform="matrix(1 0 0 1 263 2007)">symbols with the adjacent text.</text>
  <line id="" style="fill:none;stroke:#00AEEF;stroke-width:0.5;opacity:1.0;" x1="776" x2="776" y1="1919" y2="1933"/>
  <g id="" transform="matrix(1 0 0 1 776 1933)">
   <path d="M3.31055 0.126953C3.82812 0.126953 4.08203-0.0683594 4.26758-0.605469L5.52734-4.0625L11.2891-4.0625L12.5488-0.605469C12.7344-0.0683594 12.9883 0.126953 13.4961 0.126953C14.0137 0.126953 14.3457-0.185547 14.3457-0.673828C14.3457-0.839844 14.3164-0.986328 14.2383-1.20117L9.6582-13.3887C9.43359-13.9941 9.0332-14.2871 8.4082-14.2871C7.80273-14.2871 7.39258-13.9941 7.17773-13.3984L2.59766-1.19141C2.51953-0.976562 2.49023-0.830078 2.49023-0.664062C2.49023-0.175781 2.80273 0.126953 3.31055 0.126953ZM6.00586-5.53711L8.37891-12.1094L8.42773-12.1094L10.8008-5.53711Z"/>
  </g>
  <line id="" style="fill:none;stroke:#00AEEF;stroke-width:0.5;opacity:1.0;" x1="792.836" x2="792.836" y1="1919" y2="1933"/>
  <text style="stroke:none;fill:black;font-family:-apple-system,&quot;SF Pro Display&quot;,&quot;SF Pro Text&quot;,Helvetica,sans-serif;font-weight:bold;" transform="matrix(1 0 0 1 776 1953)">Margins</text>
  <text style="stroke:none;fill:black;font-family:-apple-system,&quot;SF Pro Display&quot;,&quot;SF Pro Text&quot;,Helvetica,sans-serif;" transform="matrix(1 0 0 1 776 1971)">Leading and trailing margins on the left and right side of each symbol</text>
  <text style="stroke:none;fill:black;font-family:-apple-system,&quot;SF Pro Display&quot;,&quot;SF Pro Text&quot;,Helvetica,sans-serif;" transform="matrix(1 0 0 1 776 1989)">can be adjusted by modifying the x-location of the margin guidelines.</text>
  <text style="stroke:none;fill:black;font-family:-apple-system,&quot;SF Pro Display&quot;,&quot;SF Pro Text&quot;,Helvetica,sans-serif;" transform="matrix(1 0 0 1 776 2007)">Modifications are automatically applied proportionally to all</text>
  <text style="stroke:none;fill:black;font-family:-apple-system,&quot;SF Pro Display&quot;,&quot;SF Pro Text&quot;,Helvetica,sans-serif;" transform="matrix(1 0 0 1 776 2025)">scales and weights.</text>
  <g id="" transform="matrix(1 0 0 1 1289 1933)">
   <path d="M2.8418 1.86523L4.54102 3.57422C5.40039 4.44336 6.38672 4.38477 7.31445 3.35938L17.4902-7.85156C17.7539-7.76367 18.0273-7.7832 18.3398-7.8418L19.4043-8.03711L20.0684-7.36328L20.0293-6.80664C19.9902-6.30859 20.1172-5.92773 20.6055-5.44922L21.3672-4.70703C21.8457-4.22852 22.4609-4.19922 22.9297-4.66797L25.8398-7.58789C26.3086-8.05664 26.2891-8.65234 25.8105-9.13086L25.0391-9.89258C24.5605-10.3711 24.1895-10.5273 23.7109-10.4883L23.1348-10.4395L22.4902-11.0742L22.7344-12.1973C22.8613-12.7637 22.7051-13.2031 22.1191-13.7891L19.9219-15.9766C16.582-19.2969 12.1484-19.2188 9.25781-16.3281C8.83789-15.918 8.80859-15.3418 9.04297-14.9512C9.27734-14.5898 9.73633-14.3555 10.3809-14.5215C11.8457-14.8633 13.3691-14.9219 14.7949-13.9844L14.209-12.5293C14.0137-12.0508 13.9844-11.6504 14.1113-11.2891L3.04688-0.898438C2.06055 0.0195312 1.98242 0.996094 2.8418 1.86523ZM10.752-15.957C13.1836-17.7344 16.4746-17.4316 18.7012-15.2051L21.1328-12.793C21.3672-12.5586 21.4062-12.373 21.3379-12.0312L21.0156-10.5469L22.5195-9.0625L23.5059-9.12109C23.7598-9.13086 23.8379-9.11133 24.0332-8.91602L24.6094-8.33984L22.168-5.89844L21.5918-6.47461C21.3965-6.66992 21.3672-6.74805 21.377-7.01172L21.4453-7.98828L19.9512-9.47266L18.4277-9.21875C18.1055-9.15039 17.959-9.17969 17.7148-9.41406L15.7129-11.416C15.459-11.6504 15.4297-11.8164 15.5859-12.1875L16.4648-14.2773C14.9023-15.7324 12.8711-16.3574 10.8398-15.7617C10.6836-15.7227 10.625-15.8496 10.752-15.957ZM5.27344 2.30469L4.10156 1.14258C3.63281 0.683594 3.74023 0.341797 4.14062-0.0195312L14.9512-10.1953L16.416-8.71094L6.42578 2.27539C6.07422 2.67578 5.74219 2.77344 5.27344 2.30469Z"/>
  </g>
  <text style="stroke:none;fill:black;font-family:-apple-system,&quot;SF Pro Display&quot;,&quot;SF Pro Text&quot;,Helvetica,sans-serif;font-weight:bold;" transform="matrix(1 0 0 1 1289 1953)">Exporting</text>
  <text style="stroke:none;fill:black;font-family:-apple-system,&quot;SF Pro Display&quot;,&quot;SF Pro Text&quot;,Helvetica,sans-serif;" transform="matrix(1 0 0 1 1289 1971)">Symbols should be outlined when exporting to ensure the</text>
  <text style="stroke:none;fill:black;font-family:-apple-system,&quot;SF Pro Display&quot;,&quot;SF Pro Text&quot;,Helvetica,sans-serif;" transform="matrix(1 0 0 1 1289 1989)">design is preserved when submitting to Xcode.</text>
  <text id="template-version" style="stroke:none;fill:black;font-family:-apple-system,&quot;SF Pro Display&quot;,&quot;SF Pro Text&quot;,Helvetica,sans-serif;text-anchor:end;" transform="matrix(1 0 0 1 3036 1933)">Template v.2.0</text>
  <text style="stroke:none;fill:black;font-family:-apple-system,&quot;SF Pro Display&quot;,&quot;SF Pro Text&quot;,Helvetica,sans-serif;text-anchor:end;" transform="matrix(1 0 0 1 3036 1951)">Requires Xcode 12 or greater</text>
  <text style="stroke:none;fill:black;font-family:-apple-system,&quot;SF Pro Display&quot;,&quot;SF Pro Text&quot;,Helvetica,sans-serif;" transform="matrix(1 0 0 1 263 726)">Small</text>
  <text style="stroke:none;fill:black;font-family:-apple-system,&quot;SF Pro Display&quot;,&quot;SF Pro Text&quot;,Helvetica,sans-serif;" transform="matrix(1 0 0 1 263 1156)">Medium</text>
  <text style="stroke:none;fill:black;font-family:-apple-system,&quot;SF Pro Display&quot;,&quot;SF Pro Text&quot;,Helvetica,sans-serif;" transform="matrix(1 0 0 1 263 1586)">Large</text>
 </g>
 <g id="Guides">
  <g id="H-reference" style="fill:#27AAE1;stroke:none;" transform="matrix(1 0 0 1 339 696)">
   <path d="M0.976562 0L3.66211 0L12.9883-24.4629L45.752-24.4629L55.127 0L57.7637 0L30.6152-70.459L28.125-70.459ZM29.3457-67.1387L29.4434-67.1387L44.873-26.709L13.8672-26.709Z"/>
  </g>
  <line id="Baseline-S" style="fill:none;stroke:#27AAE1;opacity:1;stroke-width:0.5;" x1="263" x2="3036" y1="696" y2="696"/>
  <line id="Capline-S" style="fill:none;stroke:#27AAE1;opacity:1;stroke-width:0.5;" x1="263" x2="3036" y1="625.541" y2="625.541"/>
  <g id="H-reference" style="fill:#27AAE1;stroke:none;" transform="matrix(1 0 0 1 339 1126)">
   <path d="M0.976562 0L3.66211 0L12.9883-24.4629L45.752-24.4629L55.127 0L57.7637 0L30.6152-70.459L28.125-70.459ZM29.3457-67.1387L29.4434-67.1387L44.873-26.709L13.8672-26.709Z"/>
  </g>
  <line id="Baseline-M" style="fill:none;stroke:#27AAE1;opacity:1;stroke-width:0.5;" x1="263" x2="3036" y1="1126" y2="1126"/>
  <line id="Capline-M" style="fill:none;stroke:#27AAE1;opacity:1;stroke-width:0.5;" x1="263" x2="3036" y1="1055.54" y2="1055.54"/>
  <g id="H-reference" style="fill:#27AAE1;stroke:none;" transform="matrix(1 0 0 1 339 1556)">
   <path d="M0.976562 0L3.66211 0L12.9883-24.4629L45.752-24.4629L55.127 0L57.7637 0L30.6152-70.459L28.125-70.459ZM29.3457-67.1387L29.4434-67.1387L44.873-26.709L13.8672-26.709Z"/>
  </g>
  <line id="Baseline-L" style="fill:none;stroke:#27AAE1;opacity:1;stroke-width:0.5;" x1="263" x2="3036" y1="1556" y2="1556"/>
  <line id="Capline-L" style="fill:none;stroke:#27AAE1;opacity:1;stroke-width:0.5;" x1="263" x2="3036" y1="1485.54" y2="1485.54"/>
  <line id="left-margin" x1="1418.7775082478393" x2="1418.7775082478393" y1="1030.79" y2="1150.12" style="fill:none;stroke:#00AEEF;stroke-width:0.5;opacity:1.0;"/>
  <line id="right-margin" x1="1490.1629472762056" x2="1490.1629472762056" y1="1030.79" y2="1150.12" style="fill:none;stroke:#00AEEF;stroke-width:0.5;opacity:1.0;"/>
 </g>
 <g id="Symbols">
  <g id="Black-L" transform="matrix(1.0,0.0,0.0,1.0,2873.124374099871,1447.231710785801)">  <path stroke-linejoin="miter" stroke-width="3px" fill-rule="nonzero" fill-opacity="1" stroke-opacity="1" stroke-dasharray="none" fill="#000000" stroke-linecap="butt" data-name="Layer 1" stroke-miterlimit="10" stroke="none" d="M13.481,1.353L13.363,13.282L1.353,13.282L1.353,19.634L13.598,19.634L13.598,67.655L1.353,67.655L1.353,73.538L13.363,73.538L13.363,127.677L1.353,127.677L1.353,133.993L13.481,133.993L13.481,145.723L121.758,145.723L121.758,1.353L13.481,1.353ZM35.371,144.361L24.065,144.361L24.065,2.707L35.371,2.707L35.371,144.361ZM35.371,144.361"/>
  <path fill="#000000" stroke="none" fill-rule="nonzero" stroke-miterlimit="10" stroke-dasharray="none" stroke-width="3px" stroke-linecap="butt" stroke-opacity="1" stroke-linejoin="miter" data-name="Layer 1" fill-opacity="1" d="M10.49,1.324L10.372,13.253L13.363,10.291L1.353,10.291L-1.638,10.291L-1.638,13.282L-1.638,19.634L-1.638,22.625L1.353,22.625L13.598,22.625L10.607,19.634L10.607,67.655L13.598,64.664L1.353,64.664L-1.638,64.664L-1.638,67.655L-1.638,73.538L-1.638,76.529L1.353,76.529L13.363,76.529L10.372,73.538L10.372,127.677L13.363,124.686L1.353,124.686L-1.638,124.686L-1.638,127.677L-1.638,133.993L-1.638,136.984L1.353,136.984L13.481,136.984L10.489,133.993L10.489,145.723L10.489,148.714L13.481,148.714L121.758,148.714L124.749,148.714L124.749,145.723L124.749,1.353L124.749,-1.638L121.758,-1.638L13.481,-1.638L10.519,-1.638L10.49,1.324ZM16.472,1.383L13.481,4.345L121.758,4.345L118.767,1.353L118.767,145.723L121.758,142.732L13.481,142.732L16.472,145.723L16.472,133.993L16.472,131.002L13.481,131.002L1.353,131.002L4.345,133.993L4.345,127.677L1.353,130.668L13.363,130.668L16.354,130.668L16.354,127.677L16.354,73.538L16.354,70.547L13.363,70.547L1.353,70.547L4.345,73.538L4.345,67.655L1.353,70.646L13.598,70.646L16.589,70.646L16.589,67.655L16.589,19.634L16.589,16.643L13.598,16.643L1.353,16.643L4.345,19.634L4.345,13.282L1.353,16.273L13.363,16.273L16.325,16.273L16.354,13.311L16.472,1.383ZM35.371,141.369L24.065,141.369L27.056,144.361L27.056,2.707L24.065,5.698L35.371,5.698L32.379,2.707L32.379,144.361L35.371,141.369ZM35.371,147.352L38.362,147.352L38.362,144.361L38.362,2.707L38.362,-0.284L35.371,-0.284L24.065,-0.284L21.073,-0.284L21.073,2.707L21.073,144.361L21.073,147.352L24.065,147.352L35.371,147.352Z"/>
</g>
  <g id="Heavy-L" transform="matrix(1.0,0.0,0.0,1.0,2576.414374099871,1447.231710785801)">  <path stroke="none" fill="#000000" stroke-miterlimit="10" stroke-opacity="1" stroke-dasharray="none" stroke-linecap="butt" data-name="Layer 1" stroke-linejoin="miter" fill-rule="nonzero" stroke-width="3px" fill-opacity="1" d="M13.481,1.353L13.363,13.282L1.353,13.282L1.353,19.634L13.598,19.634L13.598,67.655L1.353,67.655L1.353,73.538L13.363,73.538L13.363,127.677L1.353,127.677L1.353,133.993L13.481,133.993L13.481,145.723L121.758,145.723L121.758,1.353L13.481,1.353ZM35.371,144.361L24.065,144.361L24.065,2.707L35.371,2.707L35.371,144.361ZM35.371,144.361"/>
  <path stroke-width="3px" stroke-dasharray="none" fill-opacity="1" stroke-opacity="1" fill="#000000" data-name="Layer 1" stroke-miterlimit="10" stroke-linecap="butt" fill-rule="nonzero" stroke="none" stroke-linejoin="miter" d="M10.817,1.327L10.7,13.256L13.363,10.618L1.353,10.618L-1.31,10.618L-1.31,13.282L-1.31,19.634L-1.31,22.298L1.353,22.298L13.598,22.298L10.934,19.634L10.934,67.655L13.598,64.992L1.353,64.992L-1.31,64.992L-1.31,67.655L-1.31,73.538L-1.31,76.202L1.353,76.202L13.363,76.202L10.7,73.538L10.7,127.677L13.363,125.013L1.353,125.013L-1.31,125.013L-1.31,127.677L-1.31,133.993L-1.31,136.657L1.353,136.657L13.481,136.657L10.817,133.993L10.817,145.723L10.817,148.387L13.481,148.387L121.758,148.387L124.421,148.387L124.421,145.723L124.421,1.353L124.421,-1.31L121.758,-1.31L13.481,-1.31L10.843,-1.31L10.817,1.327ZM16.144,1.38L13.481,4.017L121.758,4.017L119.094,1.353L119.094,145.723L121.758,143.06L13.481,143.06L16.144,145.723L16.144,133.993L16.144,131.329L13.481,131.329L1.353,131.329L4.017,133.993L4.017,127.677L1.353,130.341L13.363,130.341L16.027,130.341L16.027,127.677L16.027,73.538L16.027,70.875L13.363,70.875L1.353,70.875L4.017,73.538L4.017,67.655L1.353,70.319L13.598,70.319L16.261,70.319L16.261,67.655L16.261,19.634L16.261,16.971L13.598,16.971L1.353,16.971L4.017,19.634L4.017,13.282L1.353,15.946L13.363,15.946L16.001,15.946L16.027,13.308L16.144,1.38ZM35.371,141.697L24.065,141.697L26.728,144.361L26.728,2.707L24.065,5.371L35.371,5.371L32.707,2.707L32.707,144.361L35.371,141.697ZM35.371,147.024L38.034,147.024L38.034,144.361L38.034,2.707L38.034,0.043L35.371,0.043L24.065,0.043L21.401,0.043L21.401,2.707L21.401,144.361L21.401,147.024L24.065,147.024L35.371,147.024Z"/>
</g>
  <g id="Bold-L" transform="matrix(1.0,0.0,0.0,1.0,2279.704374099871,1447.231710785801)">  <path stroke-linecap="butt" fill="#000000" stroke-miterlimit="10" fill-rule="nonzero" data-name="Layer 1" stroke="none" stroke-opacity="1" stroke-linejoin="miter" fill-opacity="1" stroke-width="3px" stroke-dasharray="none" d="M13.481,1.353L13.363,13.282L1.353,13.282L1.353,19.634L13.598,19.634L13.598,67.655L1.353,67.655L1.353,73.538L13.363,73.538L13.363,127.677L1.353,127.677L1.353,133.993L13.481,133.993L13.481,145.723L121.758,145.723L121.758,1.353L13.481,1.353ZM35.371,144.361L24.065,144.361L24.065,2.707L35.371,2.707L35.371,144.361ZM35.371,144.361"/>
  <path fill-rule="nonzero" stroke-linejoin="miter" stroke-linecap="butt" stroke-dasharray="none" fill-opacity="1" stroke-opacity="1" data-name="Layer 1" stroke="none" fill="#000000" stroke-miterlimit="10" stroke-width="3px" d="M11.145,1.33L11.027,13.259L13.363,10.946L1.353,10.946L-0.983,10.946L-0.983,13.282L-0.983,19.634L-0.983,21.97L1.353,21.97L13.598,21.97L11.262,19.634L11.262,67.655L13.598,65.319L1.353,65.319L-0.983,65.319L-0.983,67.655L-0.983,73.538L-0.983,75.874L1.353,75.874L13.363,75.874L11.027,73.538L11.027,127.677L13.363,125.341L1.353,125.341L-0.983,125.341L-0.983,127.677L-0.983,133.993L-0.983,136.329L1.353,136.329L13.481,136.329L11.144,133.993L11.144,145.723L11.144,148.059L13.481,148.059L121.758,148.059L124.094,148.059L124.094,145.723L124.094,1.353L124.094,-0.983L121.758,-0.983L13.481,-0.983L11.167,-0.983L11.145,1.33ZM15.816,1.376L13.481,3.69L121.758,3.69L119.422,1.353L119.422,145.723L121.758,143.387L13.481,143.387L15.817,145.723L15.817,133.993L15.817,131.657L13.481,131.657L1.353,131.657L3.69,133.993L3.69,127.677L1.353,130.013L13.363,130.013L15.699,130.013L15.699,127.677L15.699,73.538L15.699,71.202L13.363,71.202L1.353,71.202L3.69,73.538L3.69,67.655L1.353,69.991L13.598,69.991L15.934,69.991L15.934,67.655L15.934,19.634L15.934,17.298L13.598,17.298L1.353,17.298L3.69,19.634L3.69,13.282L1.353,15.618L13.363,15.618L15.676,15.618L15.699,13.305L15.816,1.376ZM35.371,142.025L24.065,142.025L26.401,144.361L26.401,2.707L24.065,5.043L35.371,5.043L33.035,2.707L33.035,144.361L35.371,142.025ZM35.371,146.697L37.707,146.697L37.707,144.361L37.707,2.707L37.707,0.371L35.371,0.371L24.065,0.371L21.729,0.371L21.729,2.707L21.729,144.361L21.729,146.697L24.065,146.697L35.371,146.697Z"/>
</g>
  <g id="Semibold-L" transform="matrix(1.0,0.0,0.0,1.0,1982.994374099871,1447.231710785801)">  <path fill-rule="nonzero" fill-opacity="1" stroke="none" stroke-linecap="butt" stroke-linejoin="miter" stroke-width="3px" data-name="Layer 1" stroke-miterlimit="10" stroke-opacity="1" fill="#000000" stroke-dasharray="none" d="M13.481,1.353L13.363,13.282L1.353,13.282L1.353,19.634L13.598,19.634L13.598,67.655L1.353,67.655L1.353,73.538L13.363,73.538L13.363,127.677L1.353,127.677L1.353,133.993L13.481,133.993L13.481,145.723L121.758,145.723L121.758,1.353L13.481,1.353ZM35.371,144.361L24.065,144.361L24.065,2.707L35.371,2.707L35.371,144.361ZM35.371,144.361"/>
  <path fill-opacity="1" fill-rule="nonzero" stroke-dasharray="none" stroke-opacity="1" stroke-linejoin="miter" fill="#000000" stroke-linecap="butt" stroke-miterlimit="10" stroke-width="3px" stroke="none" data-name="Layer 1" d="M11.472,1.334L11.355,13.262L13.363,11.273L1.353,11.273L-0.655,11.273L-0.655,13.282L-0.655,19.634L-0.655,21.643L1.353,21.643L13.598,21.643L11.589,19.634L11.589,67.655L13.598,65.647L1.353,65.647L-0.655,65.647L-0.655,67.655L-0.655,73.538L-0.655,75.547L1.353,75.547L13.363,75.547L11.355,73.538L11.355,127.677L13.363,125.668L1.353,125.668L-0.655,125.668L-0.655,127.677L-0.655,133.993L-0.655,136.002L1.353,136.002L13.481,136.002L11.472,133.993L11.472,145.723L11.472,147.732L13.481,147.732L121.758,147.732L123.766,147.732L123.766,145.723L123.766,1.353L123.766,-0.655L121.758,-0.655L13.481,-0.655L11.492,-0.655L11.472,1.334ZM15.489,1.373L13.481,3.362L121.758,3.362L119.749,1.353L119.749,145.723L121.758,143.715L13.481,143.715L15.489,145.723L15.489,133.993L15.489,131.985L13.481,131.985L1.353,131.985L3.362,133.993L3.362,127.677L1.353,129.685L13.363,129.685L15.372,129.685L15.372,127.677L15.372,73.538L15.372,71.53L13.363,71.53L1.353,71.53L3.362,73.538L3.362,67.655L1.353,69.664L13.598,69.664L15.606,69.664L15.606,67.655L15.606,19.634L15.606,17.626L13.598,17.626L1.353,17.626L3.362,19.634L3.362,13.282L1.353,15.291L13.363,15.291L15.352,15.291L15.372,13.302L15.489,1.373ZM35.371,142.352L24.065,142.352L26.073,144.361L26.073,2.707L24.065,4.715L35.371,4.715L33.362,2.707L33.362,144.361L35.371,142.352ZM35.371,146.369L37.379,146.369L37.379,144.361L37.379,2.707L37.379,0.698L35.371,0.698L24.065,0.698L22.056,0.698L22.056,2.707L22.056,144.361L22.056,146.369L24.065,146.369L35.371,146.369Z"/>
</g>
  <g id="Medium-L" transform="matrix(1.0,0.0,0.0,1.0,1686.284374099871,1447.231710785801)">  <path stroke-linejoin="miter" stroke-linecap="butt" fill="#000000" stroke-dasharray="none" fill-opacity="1" data-name="Layer 1" stroke="none" stroke-width="3px" stroke-miterlimit="10" fill-rule="nonzero" stroke-opacity="1" d="M13.481,1.353L13.363,13.282L1.353,13.282L1.353,19.634L13.598,19.634L13.598,67.655L1.353,67.655L1.353,73.538L13.363,73.538L13.363,127.677L1.353,127.677L1.353,133.993L13.481,133.993L13.481,145.723L121.758,145.723L121.758,1.353L13.481,1.353ZM35.371,144.361L24.065,144.361L24.065,2.707L35.371,2.707L35.371,144.361ZM35.371,144.361"/>
  <path stroke-miterlimit="10" stroke-linejoin="miter" stroke-dasharray="none" stroke-linecap="butt" fill-rule="nonzero" data-name="Layer 1" stroke-width="3px" fill-opacity="1" stroke-opacity="1" stroke="none" fill="#000000" d="M11.8,1.337L11.682,13.266L13.363,11.601L1.353,11.601L-0.328,11.601L-0.328,13.282L-0.328,19.634L-0.328,21.315L1.353,21.315L13.598,21.315L11.917,19.634L11.917,67.655L13.598,65.974L1.353,65.974L-0.328,65.974L-0.328,67.655L-0.328,73.538L-0.328,75.219L1.353,75.219L13.363,75.219L11.682,73.538L11.682,127.677L13.363,125.996L1.353,125.996L-0.328,125.996L-0.328,127.677L-0.328,133.993L-0.328,135.674L1.353,135.674L13.481,135.674L11.8,133.993L11.8,145.723L11.8,147.404L13.481,147.404L121.758,147.404L123.439,147.404L123.439,145.723L123.439,1.353L123.439,-0.328L121.758,-0.328L13.481,-0.328L11.816,-0.328L11.8,1.337ZM15.161,1.37L13.481,3.034L121.758,3.034L120.077,1.353L120.077,145.723L121.758,144.042L13.481,144.042L15.162,145.723L15.162,133.993L15.162,132.312L13.481,132.312L1.353,132.312L3.034,133.993L3.034,127.677L1.353,129.358L13.363,129.358L15.044,129.358L15.044,127.677L15.044,73.538L15.044,71.857L13.363,71.857L1.353,71.857L3.034,73.538L3.034,67.655L1.353,69.336L13.598,69.336L15.279,69.336L15.279,67.655L15.279,19.634L15.279,17.953L13.598,17.953L1.353,17.953L3.034,19.634L3.034,13.282L1.353,14.963L13.363,14.963L15.028,14.963L15.044,13.299L15.161,1.37ZM35.371,142.68L24.065,142.68L25.746,144.361L25.746,2.707L24.065,4.388L35.371,4.388L33.69,2.707L33.69,144.361L35.371,142.68ZM35.371,146.042L37.052,146.042L37.052,144.361L37.052,2.707L37.052,1.026L35.371,1.026L24.065,1.026L22.384,1.026L22.384,2.707L22.384,144.361L22.384,146.042L24.065,146.042L35.371,146.042Z"/>
</g>
  <g id="Regular-L" transform="matrix(1.0,0.0,0.0,1.0,1389.574374099871,1447.231710785801)">  <path data-name="Layer 1" stroke-linejoin="miter" stroke-linecap="butt" fill="#000000" stroke-dasharray="none" stroke-opacity="1" stroke="none" stroke-width="3px" fill-rule="nonzero" fill-opacity="1" stroke-miterlimit="10" d="M13.481,1.353L13.363,13.282L1.353,13.282L1.353,19.634L13.598,19.634L13.598,67.655L1.353,67.655L1.353,73.538L13.363,73.538L13.363,127.677L1.353,127.677L1.353,133.993L13.481,133.993L13.481,145.723L121.758,145.723L121.758,1.353L13.481,1.353ZM35.371,144.361L24.065,144.361L24.065,2.707L35.371,2.707L35.371,144.361ZM35.371,144.361"/>
  <path stroke-linejoin="miter" fill-rule="nonzero" stroke-miterlimit="10" stroke-width="3px" stroke-linecap="butt" fill="#000000" fill-opacity="1" stroke-opacity="1" stroke-dasharray="none" stroke="none" data-name="Layer 1" d="M12.127,1.34L12.01,13.269L13.363,11.929L1.353,11.929L0,11.929L0,13.282L0,19.634L0,20.988L1.353,20.988L13.598,20.988L12.244,19.634L12.244,67.655L13.598,66.302L1.353,66.302L0,66.302L0,67.655L0,73.538L0,74.892L1.353,74.892L13.363,74.892L12.01,73.538L12.01,127.677L13.363,126.323L1.353,126.323L0,126.323L0,127.677L0,133.993L0,135.347L1.353,135.347L13.481,135.347L12.127,133.993L12.127,145.723L12.127,147.077L13.481,147.077L121.758,147.077L123.111,147.077L123.111,145.723L123.111,1.353L123.111,0L121.758,0L13.481,0L12.14,0L12.127,1.34ZM14.834,1.367L13.481,2.707L121.758,2.707L120.404,1.353L120.404,145.723L121.758,144.37L13.481,144.37L14.834,145.723L14.834,133.993L14.834,132.64L13.481,132.64L1.353,132.64L2.707,133.993L2.707,127.677L1.353,129.03L13.363,129.03L14.717,129.03L14.717,127.677L14.717,73.538L14.717,72.185L13.363,72.185L1.353,72.185L2.707,73.538L2.707,67.655L1.353,69.009L13.598,69.009L14.951,69.009L14.951,67.655L14.951,19.634L14.951,18.281L13.598,18.281L1.353,18.281L2.707,19.634L2.707,13.282L1.353,14.636L13.363,14.636L14.703,14.636L14.717,13.295L14.834,1.367ZM35.371,143.007L24.065,143.007L25.418,144.361L25.418,2.707L24.065,4.06L35.371,4.06L34.017,2.707L34.017,144.361L35.371,143.007ZM35.371,145.714L36.724,145.714L36.724,144.361L36.724,2.707L36.724,1.353L35.371,1.353L24.065,1.353L22.711,1.353L22.711,2.707L22.711,144.361L22.711,145.714L24.065,145.714L35.371,145.714Z"/>
</g>
  <g id="Light-L" transform="matrix(1.0,0.0,0.0,1.0,1092.8643740998712,1447.231710785801)">  <path data-name="Layer 1" fill="#000000" fill-rule="nonzero" stroke-linecap="butt" stroke-width="3px" stroke-miterlimit="10" stroke-opacity="1" stroke-dasharray="none" stroke="none" stroke-linejoin="miter" fill-opacity="1" d="M13.481,1.353L13.363,13.282L1.353,13.282L1.353,19.634L13.598,19.634L13.598,67.655L1.353,67.655L1.353,73.538L13.363,73.538L13.363,127.677L1.353,127.677L1.353,133.993L13.481,133.993L13.481,145.723L121.758,145.723L121.758,1.353L13.481,1.353ZM35.371,144.361L24.065,144.361L24.065,2.707L35.371,2.707L35.371,144.361ZM35.371,144.361"/>
  <path stroke-linecap="butt" data-name="Layer 1" stroke-linejoin="miter" stroke-dasharray="none" fill-rule="nonzero" stroke-width="3px" stroke-miterlimit="10" fill-opacity="1" stroke-opacity="1" fill="#000000" stroke="none" d="M12.353,1.342L12.235,13.271L13.363,12.154L1.353,12.154L0.226,12.154L0.226,13.282L0.226,19.634L0.226,20.762L1.353,20.762L13.598,20.762L12.47,19.634L12.47,67.655L13.598,66.527L1.353,66.527L0.226,66.527L0.226,67.655L0.226,73.538L0.226,74.666L1.353,74.666L13.363,74.666L12.235,73.538L12.235,127.677L13.363,126.549L1.353,126.549L0.226,126.549L0.226,127.677L0.226,133.993L0.226,135.121L1.353,135.121L13.481,135.121L12.353,133.993L12.353,145.723L12.353,146.851L13.481,146.851L121.758,146.851L122.886,146.851L122.886,145.723L122.886,1.353L122.886,0.226L121.758,0.226L13.481,0.226L12.364,0.226L12.353,1.342ZM14.608,1.365L13.481,2.481L121.758,2.481L120.63,1.353L120.63,145.723L121.758,144.595L13.481,144.595L14.608,145.723L14.608,133.993L14.608,132.865L13.481,132.865L1.353,132.865L2.481,133.993L2.481,127.677L1.353,128.805L13.363,128.805L14.491,128.805L14.491,127.677L14.491,73.538L14.491,72.41L13.363,72.41L1.353,72.41L2.481,73.538L2.481,67.655L1.353,68.783L13.598,68.783L14.726,68.783L14.726,67.655L14.726,19.634L14.726,18.506L13.598,18.506L1.353,18.506L2.481,19.634L2.481,13.282L1.353,14.41L13.363,14.41L14.48,14.41L14.491,13.293L14.608,1.365ZM35.371,143.233L24.065,143.233L25.192,144.361L25.192,2.707L24.065,3.835L35.371,3.835L34.243,2.707L34.243,144.361L35.371,143.233ZM35.371,145.489L36.498,145.489L36.498,144.361L36.498,2.707L36.498,1.579L35.371,1.579L24.065,1.579L22.937,1.579L22.937,2.707L22.937,144.361L22.937,145.489L24.065,145.489L35.371,145.489Z"/>
</g>
  <g id="Thin-L" transform="matrix(1.0,0.0,0.0,1.0,796.1543740998711,1447.231710785801)">  <path stroke-width="3px" stroke-linecap="butt" fill-opacity="1" stroke-opacity="1" stroke-miterlimit="10" stroke-dasharray="none" data-name="Layer 1" fill-rule="nonzero" stroke="none" stroke-linejoin="miter" fill="#000000" d="M13.481,1.353L13.363,13.282L1.353,13.282L1.353,19.634L13.598,19.634L13.598,67.655L1.353,67.655L1.353,73.538L13.363,73.538L13.363,127.677L1.353,127.677L1.353,133.993L13.481,133.993L13.481,145.723L121.758,145.723L121.758,1.353L13.481,1.353ZM35.371,144.361L24.065,144.361L24.065,2.707L35.371,2.707L35.371,144.361ZM35.371,144.361"/>
  <path fill-opacity="1" stroke-linejoin="miter" stroke-dasharray="none" stroke-width="3px" stroke="none" fill="#000000" stroke-opacity="1" stroke-linecap="butt" stroke-miterlimit="10" data-name="Layer 1" fill-rule="nonzero" d="M12.578,1.345L12.461,13.273L13.363,12.38L1.353,12.38L0.451,12.38L0.451,13.282L0.451,19.634L0.451,20.537L1.353,20.537L13.598,20.537L12.696,19.634L12.696,67.655L13.598,66.753L1.353,66.753L0.451,66.753L0.451,67.655L0.451,73.538L0.451,74.441L1.353,74.441L13.363,74.441L12.461,73.538L12.461,127.677L13.363,126.775L1.353,126.775L0.451,126.775L0.451,127.677L0.451,133.993L0.451,134.895L1.353,134.895L13.481,134.895L12.578,133.993L12.578,145.723L12.578,146.625L13.481,146.625L121.758,146.625L122.66,146.625L122.66,145.723L122.66,1.353L122.66,0.451L121.758,0.451L13.481,0.451L12.587,0.451L12.578,1.345ZM14.383,1.362L13.481,2.256L121.758,2.256L120.855,1.353L120.855,145.723L121.758,144.821L13.481,144.821L14.383,145.723L14.383,133.993L14.383,133.091L13.481,133.091L1.353,133.091L2.256,133.993L2.256,127.677L1.353,128.579L13.363,128.579L14.266,128.579L14.266,127.677L14.266,73.538L14.266,72.636L13.363,72.636L1.353,72.636L2.256,73.538L2.256,67.655L1.353,68.558L13.598,68.558L14.5,68.558L14.5,67.655L14.5,19.634L14.5,18.732L13.598,18.732L1.353,18.732L2.256,19.634L2.256,13.282L1.353,14.184L13.363,14.184L14.257,14.184L14.265,13.291L14.383,1.362ZM35.371,143.458L24.065,143.458L24.967,144.361L24.967,2.707L24.065,3.609L35.371,3.609L34.468,2.707L34.468,144.361L35.371,143.458ZM35.371,145.263L36.273,145.263L36.273,144.361L36.273,2.707L36.273,1.805L35.371,1.805L24.065,1.805L23.162,1.805L23.162,2.707L23.162,144.361L23.162,145.263L24.065,145.263L35.371,145.263Z"/>
</g>
  <g id="Ultralight-L" transform="matrix(1.0,0.0,0.0,1.0,499.4443740998711,1447.231710785801)">  <path data-name="Layer 1" fill-opacity="1" stroke-linecap="butt" stroke-width="3px" stroke="none" fill-rule="nonzero" stroke-miterlimit="10" stroke-linejoin="miter" stroke-opacity="1" fill="#000000" stroke-dasharray="none" d="M13.481,1.353L13.363,13.282L1.353,13.282L1.353,19.634L13.598,19.634L13.598,67.655L1.353,67.655L1.353,73.538L13.363,73.538L13.363,127.677L1.353,127.677L1.353,133.993L13.481,133.993L13.481,145.723L121.758,145.723L121.758,1.353L13.481,1.353ZM35.371,144.361L24.065,144.361L24.065,2.707L35.371,2.707L35.371,144.361ZM35.371,144.361"/>
  <path fill-rule="nonzero" stroke="none" fill-opacity="1" stroke-opacity="1" stroke-dasharray="none" stroke-linejoin="miter" stroke-width="3px" data-name="Layer 1" stroke-linecap="butt" fill="#000000" stroke-miterlimit="10" d="M12.804,1.347L12.687,13.275L13.363,12.605L1.353,12.605L0.677,12.605L0.677,13.282L0.677,19.634L0.677,20.311L1.353,20.311L13.598,20.311L12.921,19.634L12.921,67.655L13.598,66.978L1.353,66.978L0.677,66.978L0.677,67.655L0.677,73.538L0.677,74.215L1.353,74.215L13.363,74.215L12.686,73.538L12.686,127.677L13.363,127L1.353,127L0.677,127L0.677,127.677L0.677,133.993L0.677,134.67L1.353,134.67L13.481,134.67L12.804,133.993L12.804,145.723L12.804,146.4L13.481,146.4L121.758,146.4L122.435,146.4L122.435,145.723L122.435,1.353L122.435,0.677L121.758,0.677L13.481,0.677L12.81,0.677L12.804,1.347ZM14.157,1.36L13.481,2.03L121.758,2.03L121.081,1.353L121.081,145.723L121.758,145.046L13.481,145.046L14.157,145.723L14.157,133.993L14.157,133.316L13.481,133.316L1.353,133.316L2.03,133.993L2.03,127.677L1.353,128.354L13.363,128.354L14.04,128.354L14.04,127.677L14.04,73.538L14.04,72.862L13.363,72.862L1.353,72.862L2.03,73.538L2.03,67.655L1.353,68.332L13.598,68.332L14.275,68.332L14.275,67.655L14.275,19.634L14.275,18.958L13.598,18.958L1.353,18.958L2.03,19.634L2.03,13.282L1.353,13.959L13.363,13.959L14.033,13.959L14.04,13.289L14.157,1.36ZM35.371,143.684L24.065,143.684L24.741,144.361L24.741,2.707L24.065,3.384L35.371,3.384L34.694,2.707L34.694,144.361L35.371,143.684ZM35.371,145.037L36.047,145.037L36.047,144.361L36.047,2.707L36.047,2.03L35.371,2.03L24.065,2.03L23.388,2.03L23.388,2.707L23.388,144.361L23.388,145.037L24.065,145.037L35.371,145.037Z"/>
</g>
  <g id="Black-M" transform="matrix(1.0,0.0,0.0,1.0,2886.9624605425356,1033.763578643305)">  <path stroke-linejoin="miter" stroke-width="3px" fill-rule="nonzero" fill-opacity="1" stroke-opacity="1" stroke-dasharray="none" fill="#000000" stroke-linecap="butt" data-name="Layer 1" stroke-miterlimit="10" stroke="none" d="M10.45,1.049L10.359,10.296L1.049,10.296L1.049,15.22L10.541,15.22L10.541,52.446L1.049,52.446L1.049,57.006L10.359,57.006L10.359,98.974L1.049,98.974L1.049,103.871L10.45,103.871L10.45,112.964L94.386,112.964L94.386,1.049L10.45,1.049ZM27.419,111.907L18.655,111.907L18.655,2.098L27.419,2.098L27.419,111.907ZM27.419,111.907"/>
  <path fill="#000000" stroke="none" fill-rule="nonzero" stroke-miterlimit="10" stroke-dasharray="none" stroke-width="3px" stroke-linecap="butt" stroke-opacity="1" stroke-linejoin="miter" data-name="Layer 1" fill-opacity="1" d="M8.131,1.026L8.04,10.273L10.359,7.977L1.049,7.977L-1.27,7.977L-1.27,10.296L-1.27,15.22L-1.27,17.539L1.049,17.539L10.541,17.539L8.222,15.22L8.222,52.446L10.541,50.127L1.049,50.127L-1.27,50.127L-1.27,52.446L-1.27,57.006L-1.27,59.325L1.049,59.325L10.359,59.325L8.04,57.006L8.04,98.974L10.359,96.656L1.049,96.656L-1.27,96.656L-1.27,98.974L-1.27,103.871L-1.27,106.189L1.049,106.189L10.45,106.189L8.131,103.871L8.131,112.964L8.131,115.282L10.45,115.282L94.386,115.282L96.705,115.282L96.705,112.964L96.705,1.049L96.705,-1.27L94.386,-1.27L10.45,-1.27L8.154,-1.27L8.131,1.026ZM12.769,1.072L10.45,3.368L94.386,3.368L92.067,1.049L92.067,112.964L94.386,110.645L10.45,110.645L12.769,112.964L12.769,103.871L12.769,101.552L10.45,101.552L1.049,101.552L3.368,103.871L3.368,98.974L1.049,101.293L10.359,101.293L12.678,101.293L12.678,98.974L12.678,57.006L12.678,54.688L10.359,54.688L1.049,54.688L3.368,57.006L3.368,52.446L1.049,54.765L10.541,54.765L12.86,54.765L12.86,52.446L12.86,15.22L12.86,12.902L10.541,12.902L1.049,12.902L3.368,15.22L3.368,10.296L1.049,12.615L10.359,12.615L12.655,12.615L12.678,10.319L12.769,1.072ZM27.419,109.589L18.655,109.589L20.973,111.907L20.973,2.098L18.655,4.417L27.419,4.417L25.1,2.098L25.1,111.907L27.419,109.589ZM27.419,114.226L29.738,114.226L29.738,111.907L29.738,2.098L29.738,-0.22L27.419,-0.22L18.655,-0.22L16.336,-0.22L16.336,2.098L16.336,111.907L16.336,114.226L18.655,114.226L27.419,114.226Z"/>
</g>
  <g id="Heavy-M" transform="matrix(1.0,0.0,0.0,1.0,2590.2524605425356,1033.763578643305)">  <path stroke="none" fill="#000000" stroke-miterlimit="10" stroke-opacity="1" stroke-dasharray="none" stroke-linecap="butt" data-name="Layer 1" stroke-linejoin="miter" fill-rule="nonzero" stroke-width="3px" fill-opacity="1" d="M10.45,1.049L10.359,10.296L1.049,10.296L1.049,15.22L10.541,15.22L10.541,52.446L1.049,52.446L1.049,57.006L10.359,57.006L10.359,98.974L1.049,98.974L1.049,103.871L10.45,103.871L10.45,112.964L94.386,112.964L94.386,1.049L10.45,1.049ZM27.419,111.907L18.655,111.907L18.655,2.098L27.419,2.098L27.419,111.907ZM27.419,111.907"/>
  <path stroke-width="3px" stroke-dasharray="none" fill-opacity="1" stroke-opacity="1" fill="#000000" data-name="Layer 1" stroke-miterlimit="10" stroke-linecap="butt" fill-rule="nonzero" stroke="none" stroke-linejoin="miter" d="M8.385,1.029L8.294,10.276L10.359,8.231L1.049,8.231L-1.016,8.231L-1.016,10.296L-1.016,15.22L-1.016,17.285L1.049,17.285L10.541,17.285L8.476,15.22L8.476,52.446L10.541,50.381L1.049,50.381L-1.016,50.381L-1.016,52.446L-1.016,57.006L-1.016,59.071L1.049,59.071L10.359,59.071L8.294,57.006L8.294,98.974L10.359,96.91L1.049,96.91L-1.016,96.91L-1.016,98.974L-1.016,103.871L-1.016,105.935L1.049,105.935L10.45,105.935L8.385,103.871L8.385,112.964L8.385,115.029L10.45,115.029L94.386,115.029L96.451,115.029L96.451,112.964L96.451,1.049L96.451,-1.016L94.386,-1.016L10.45,-1.016L8.405,-1.016L8.385,1.029ZM12.515,1.07L10.45,3.114L94.386,3.114L92.321,1.049L92.321,112.964L94.386,110.899L10.45,110.899L12.515,112.964L12.515,103.871L12.515,101.806L10.45,101.806L1.049,101.806L3.114,103.871L3.114,98.974L1.049,101.039L10.359,101.039L12.424,101.039L12.424,98.974L12.424,57.006L12.424,54.942L10.359,54.942L1.049,54.942L3.114,57.006L3.114,52.446L1.049,54.511L10.541,54.511L12.606,54.511L12.606,52.446L12.606,15.22L12.606,13.156L10.541,13.156L1.049,13.156L3.114,15.22L3.114,10.296L1.049,12.361L10.359,12.361L12.404,12.361L12.424,10.316L12.515,1.07ZM27.419,109.843L18.655,109.843L20.72,111.907L20.72,2.098L18.655,4.163L27.419,4.163L25.354,2.098L25.354,111.907L27.419,109.843ZM27.419,113.972L29.484,113.972L29.484,111.907L29.484,2.098L29.484,0.034L27.419,0.034L18.655,0.034L16.59,0.034L16.59,2.098L16.59,111.907L16.59,113.972L18.655,113.972L27.419,113.972Z"/>
</g>
  <g id="Bold-M" transform="matrix(1.0,0.0,0.0,1.0,2293.5424605425355,1033.763578643305)">  <path stroke-linecap="butt" fill="#000000" stroke-miterlimit="10" fill-rule="nonzero" data-name="Layer 1" stroke="none" stroke-opacity="1" stroke-linejoin="miter" fill-opacity="1" stroke-width="3px" stroke-dasharray="none" d="M10.45,1.049L10.359,10.296L1.049,10.296L1.049,15.22L10.541,15.22L10.541,52.446L1.049,52.446L1.049,57.006L10.359,57.006L10.359,98.974L1.049,98.974L1.049,103.871L10.45,103.871L10.45,112.964L94.386,112.964L94.386,1.049L10.45,1.049ZM27.419,111.907L18.655,111.907L18.655,2.098L27.419,2.098L27.419,111.907ZM27.419,111.907"/>
  <path fill-rule="nonzero" stroke-linejoin="miter" stroke-linecap="butt" stroke-dasharray="none" fill-opacity="1" stroke-opacity="1" data-name="Layer 1" stroke="none" fill="#000000" stroke-miterlimit="10" stroke-width="3px" d="M8.639,1.031L8.548,10.278L10.359,8.485L1.049,8.485L-0.762,8.485L-0.762,10.296L-0.762,15.22L-0.762,17.031L1.049,17.031L10.541,17.031L8.73,15.22L8.73,52.446L10.541,50.635L1.049,50.635L-0.762,50.635L-0.762,52.446L-0.762,57.006L-0.762,58.817L1.049,58.817L10.359,58.817L8.548,57.006L8.548,98.974L10.359,97.163L1.049,97.163L-0.762,97.163L-0.762,98.974L-0.762,103.871L-0.762,105.682L1.049,105.682L10.45,105.682L8.639,103.871L8.639,112.964L8.639,114.775L10.45,114.775L94.386,114.775L96.197,114.775L96.197,112.964L96.197,1.049L96.197,-0.762L94.386,-0.762L10.45,-0.762L8.657,-0.762L8.639,1.031ZM12.261,1.067L10.45,2.86L94.386,2.86L92.575,1.049L92.575,112.964L94.386,111.153L10.45,111.153L12.261,112.964L12.261,103.871L12.261,102.06L10.45,102.06L1.049,102.06L2.86,103.871L2.86,98.974L1.049,100.785L10.359,100.785L12.17,100.785L12.17,98.974L12.17,57.006L12.17,55.196L10.359,55.196L1.049,55.196L2.86,57.006L2.86,52.446L1.049,54.257L10.541,54.257L12.352,54.257L12.352,52.446L12.352,15.22L12.352,13.409L10.541,13.409L1.049,13.409L2.86,15.22L2.86,10.296L1.049,12.107L10.359,12.107L12.152,12.107L12.17,10.314L12.261,1.067ZM27.419,110.097L18.655,110.097L20.466,111.907L20.466,2.098L18.655,3.909L27.419,3.909L25.608,2.098L25.608,111.907L27.419,110.097ZM27.419,113.718L29.23,113.718L29.23,111.907L29.23,2.098L29.23,0.287L27.419,0.287L18.655,0.287L16.844,0.287L16.844,2.098L16.844,111.907L16.844,113.718L18.655,113.718L27.419,113.718Z"/>
</g>
  <g id="Semibold-M" transform="matrix(1.0,0.0,0.0,1.0,1996.8324605425357,1033.763578643305)">  <path fill-rule="nonzero" fill-opacity="1" stroke="none" stroke-linecap="butt" stroke-linejoin="miter" stroke-width="3px" data-name="Layer 1" stroke-miterlimit="10" stroke-opacity="1" fill="#000000" stroke-dasharray="none" d="M10.45,1.049L10.359,10.296L1.049,10.296L1.049,15.22L10.541,15.22L10.541,52.446L1.049,52.446L1.049,57.006L10.359,57.006L10.359,98.974L1.049,98.974L1.049,103.871L10.45,103.871L10.45,112.964L94.386,112.964L94.386,1.049L10.45,1.049ZM27.419,111.907L18.655,111.907L18.655,2.098L27.419,2.098L27.419,111.907ZM27.419,111.907"/>
  <path fill-opacity="1" fill-rule="nonzero" stroke-dasharray="none" stroke-opacity="1" stroke-linejoin="miter" fill="#000000" stroke-linecap="butt" stroke-miterlimit="10" stroke-width="3px" stroke="none" data-name="Layer 1" d="M8.893,1.034L8.802,10.281L10.359,8.739L1.049,8.739L-0.508,8.739L-0.508,10.296L-0.508,15.22L-0.508,16.777L1.049,16.777L10.541,16.777L8.984,15.22L8.984,52.446L10.541,50.889L1.049,50.889L-0.508,50.889L-0.508,52.446L-0.508,57.006L-0.508,58.563L1.049,58.563L10.359,58.563L8.802,57.006L8.802,98.974L10.359,97.417L1.049,97.417L-0.508,97.417L-0.508,98.974L-0.508,103.871L-0.508,105.428L1.049,105.428L10.45,105.428L8.893,103.871L8.893,112.964L8.893,114.521L10.45,114.521L94.386,114.521L95.943,114.521L95.943,112.964L95.943,1.049L95.943,-0.508L94.386,-0.508L10.45,-0.508L8.908,-0.508L8.893,1.034ZM12.007,1.065L10.45,2.606L94.386,2.606L92.829,1.049L92.829,112.964L94.386,111.407L10.45,111.407L12.007,112.964L12.007,103.871L12.007,102.314L10.45,102.314L1.049,102.314L2.606,103.871L2.606,98.974L1.049,100.531L10.359,100.531L11.916,100.531L11.916,98.974L11.916,57.006L11.916,55.449L10.359,55.449L1.049,55.449L2.606,57.006L2.606,52.446L1.049,54.003L10.541,54.003L12.098,54.003L12.098,52.446L12.098,15.22L12.098,13.663L10.541,13.663L1.049,13.663L2.606,15.22L2.606,10.296L1.049,11.853L10.359,11.853L11.901,11.853L11.916,10.311L12.007,1.065ZM27.419,110.35L18.655,110.35L20.212,111.907L20.212,2.098L18.655,3.655L27.419,3.655L25.862,2.098L25.862,111.907L27.419,110.35ZM27.419,113.464L28.976,113.464L28.976,111.907L28.976,2.098L28.976,0.541L27.419,0.541L18.655,0.541L17.098,0.541L17.098,2.098L17.098,111.907L17.098,113.464L18.655,113.464L27.419,113.464Z"/>
</g>
  <g id="Medium-M" transform="matrix(1.0,0.0,0.0,1.0,1700.1224605425357,1033.763578643305)">  <path stroke-linejoin="miter" stroke-linecap="butt" fill="#000000" stroke-dasharray="none" fill-opacity="1" data-name="Layer 1" stroke="none" stroke-width="3px" stroke-miterlimit="10" fill-rule="nonzero" stroke-opacity="1" d="M10.45,1.049L10.359,10.296L1.049,10.296L1.049,15.22L10.541,15.22L10.541,52.446L1.049,52.446L1.049,57.006L10.359,57.006L10.359,98.974L1.049,98.974L1.049,103.871L10.45,103.871L10.45,112.964L94.386,112.964L94.386,1.049L10.45,1.049ZM27.419,111.907L18.655,111.907L18.655,2.098L27.419,2.098L27.419,111.907ZM27.419,111.907"/>
  <path stroke-miterlimit="10" stroke-linejoin="miter" stroke-dasharray="none" stroke-linecap="butt" fill-rule="nonzero" data-name="Layer 1" stroke-width="3px" fill-opacity="1" stroke-opacity="1" stroke="none" fill="#000000" d="M9.147,1.036L9.056,10.283L10.359,8.993L1.049,8.993L-0.254,8.993L-0.254,10.296L-0.254,15.22L-0.254,16.523L1.049,16.523L10.541,16.523L9.238,15.22L9.238,52.446L10.541,51.143L1.049,51.143L-0.254,51.143L-0.254,52.446L-0.254,57.006L-0.254,58.31L1.049,58.31L10.359,58.31L9.056,57.006L9.056,98.974L10.359,97.671L1.049,97.671L-0.254,97.671L-0.254,98.974L-0.254,103.871L-0.254,105.174L1.049,105.174L10.45,105.174L9.147,103.871L9.147,112.964L9.147,114.267L10.45,114.267L94.386,114.267L95.689,114.267L95.689,112.964L95.689,1.049L95.689,-0.254L94.386,-0.254L10.45,-0.254L9.16,-0.254L9.147,1.036ZM11.753,1.062L10.45,2.352L94.386,2.352L93.083,1.049L93.083,112.964L94.386,111.661L10.45,111.661L11.753,112.964L11.753,103.871L11.753,102.568L10.45,102.568L1.049,102.568L2.352,103.871L2.352,98.974L1.049,100.277L10.359,100.277L11.662,100.277L11.662,98.974L11.662,57.006L11.662,55.703L10.359,55.703L1.049,55.703L2.352,57.006L2.352,52.446L1.049,53.749L10.541,53.749L11.844,53.749L11.844,52.446L11.844,15.22L11.844,13.917L10.541,13.917L1.049,13.917L2.352,15.22L2.352,10.296L1.049,11.599L10.359,11.599L11.649,11.599L11.662,10.309L11.753,1.062ZM27.419,110.604L18.655,110.604L19.958,111.907L19.958,2.098L18.655,3.402L27.419,3.402L26.116,2.098L26.116,111.907L27.419,110.604ZM27.419,113.211L28.722,113.211L28.722,111.907L28.722,2.098L28.722,0.795L27.419,0.795L18.655,0.795L17.352,0.795L17.352,2.098L17.352,111.907L17.352,113.211L18.655,113.211L27.419,113.211Z"/>
</g>
  <g id="Regular-M" transform="matrix(1.0,0.0,0.0,1.0,1403.4124605425357,1033.763578643305)">  <path data-name="Layer 1" stroke-linejoin="miter" stroke-linecap="butt" fill="#000000" stroke-dasharray="none" stroke-opacity="1" stroke="none" stroke-width="3px" fill-rule="nonzero" fill-opacity="1" stroke-miterlimit="10" d="M10.45,1.049L10.359,10.296L1.049,10.296L1.049,15.22L10.541,15.22L10.541,52.446L1.049,52.446L1.049,57.006L10.359,57.006L10.359,98.974L1.049,98.974L1.049,103.871L10.45,103.871L10.45,112.964L94.386,112.964L94.386,1.049L10.45,1.049ZM27.419,111.907L18.655,111.907L18.655,2.098L27.419,2.098L27.419,111.907ZM27.419,111.907"/>
  <path stroke-linejoin="miter" fill-rule="nonzero" stroke-miterlimit="10" stroke-width="3px" stroke-linecap="butt" fill="#000000" fill-opacity="1" stroke-opacity="1" stroke-dasharray="none" stroke="none" data-name="Layer 1" d="M9.401,1.039L9.31,10.286L10.359,9.247L1.049,9.247L0,9.247L0,10.296L0,15.22L0,16.27L1.049,16.27L10.541,16.27L9.492,15.22L9.492,52.446L10.541,51.397L1.049,51.397L0,51.397L0,52.446L0,57.006L0,58.056L1.049,58.056L10.359,58.056L9.31,57.006L9.31,98.974L10.359,97.925L1.049,97.925L0,97.925L0,98.974L0,103.871L0,104.92L1.049,104.92L10.45,104.92L9.401,103.871L9.401,112.964L9.401,114.013L10.45,114.013L94.386,114.013L95.435,114.013L95.435,112.964L95.435,1.049L95.435,0L94.386,0L10.45,0L9.411,0L9.401,1.039ZM11.499,1.06L10.45,2.098L94.386,2.098L93.337,1.049L93.337,112.964L94.386,111.914L10.45,111.914L11.499,112.964L11.499,103.871L11.499,102.821L10.45,102.821L1.049,102.821L2.098,103.871L2.098,98.974L1.049,100.024L10.359,100.024L11.408,100.024L11.408,98.974L11.408,57.006L11.408,55.957L10.359,55.957L1.049,55.957L2.098,57.006L2.098,52.446L1.049,53.495L10.541,53.495L11.59,53.495L11.59,52.446L11.59,15.22L11.59,14.171L10.541,14.171L1.049,14.171L2.098,15.22L2.098,10.296L1.049,11.345L10.359,11.345L11.398,11.345L11.408,10.306L11.499,1.06ZM27.419,110.858L18.655,110.858L19.704,111.907L19.704,2.098L18.655,3.148L27.419,3.148L26.37,2.098L26.37,111.907L27.419,110.858ZM27.419,112.957L28.468,112.957L28.468,111.907L28.468,2.098L28.468,1.049L27.419,1.049L18.655,1.049L17.606,1.049L17.606,2.098L17.606,111.907L17.606,112.957L18.655,112.957L27.419,112.957Z"/>
</g>
  <g id="Light-M" transform="matrix(1.0,0.0,0.0,1.0,1106.7024605425358,1033.763578643305)">  <path data-name="Layer 1" fill="#000000" fill-rule="nonzero" stroke-linecap="butt" stroke-width="3px" stroke-miterlimit="10" stroke-opacity="1" stroke-dasharray="none" stroke="none" stroke-linejoin="miter" fill-opacity="1" d="M10.45,1.049L10.359,10.296L1.049,10.296L1.049,15.22L10.541,15.22L10.541,52.446L1.049,52.446L1.049,57.006L10.359,57.006L10.359,98.974L1.049,98.974L1.049,103.871L10.45,103.871L10.45,112.964L94.386,112.964L94.386,1.049L10.45,1.049ZM27.419,111.907L18.655,111.907L18.655,2.098L27.419,2.098L27.419,111.907ZM27.419,111.907"/>
  <path stroke-linecap="butt" data-name="Layer 1" stroke-linejoin="miter" stroke-dasharray="none" fill-rule="nonzero" stroke-width="3px" stroke-miterlimit="10" fill-opacity="1" stroke-opacity="1" fill="#000000" stroke="none" d="M9.576,1.041L9.485,10.288L10.359,9.422L1.049,9.422L0.175,9.422L0.175,10.296L0.175,15.22L0.175,16.095L1.049,16.095L10.541,16.095L9.667,15.22L9.667,52.446L10.541,51.572L1.049,51.572L0.175,51.572L0.175,52.446L0.175,57.006L0.175,57.881L1.049,57.881L10.359,57.881L9.485,57.006L9.485,98.974L10.359,98.1L1.049,98.1L0.175,98.1L0.175,98.974L0.175,103.871L0.175,104.745L1.049,104.745L10.45,104.745L9.576,103.871L9.576,112.964L9.576,113.838L10.45,113.838L94.386,113.838L95.26,113.838L95.26,112.964L95.26,1.049L95.26,0.175L94.386,0.175L10.45,0.175L9.584,0.175L9.576,1.041ZM11.324,1.058L10.45,1.924L94.386,1.924L93.512,1.049L93.512,112.964L94.386,112.089L10.45,112.089L11.324,112.964L11.324,103.871L11.324,102.996L10.45,102.996L1.049,102.996L1.924,103.871L1.924,98.974L1.049,99.849L10.359,99.849L11.233,99.849L11.233,98.974L11.233,57.006L11.233,56.132L10.359,56.132L1.049,56.132L1.924,57.006L1.924,52.446L1.049,53.32L10.541,53.32L11.415,53.32L11.415,52.446L11.415,15.22L11.415,14.346L10.541,14.346L1.049,14.346L1.924,15.22L1.924,10.296L1.049,11.17L10.359,11.17L11.225,11.17L11.233,10.305L11.324,1.058ZM27.419,111.033L18.655,111.033L19.529,111.907L19.529,2.098L18.655,2.973L27.419,2.973L26.545,2.098L26.545,111.907L27.419,111.033ZM27.419,112.782L28.293,112.782L28.293,111.907L28.293,2.098L28.293,1.224L27.419,1.224L18.655,1.224L17.78,1.224L17.78,2.098L17.78,111.907L17.78,112.782L18.655,112.782L27.419,112.782Z"/>
</g>
  <g id="Thin-M" transform="matrix(1.0,0.0,0.0,1.0,809.9924605425358,1033.763578643305)">  <path stroke-width="3px" stroke-linecap="butt" fill-opacity="1" stroke-opacity="1" stroke-miterlimit="10" stroke-dasharray="none" data-name="Layer 1" fill-rule="nonzero" stroke="none" stroke-linejoin="miter" fill="#000000" d="M10.45,1.049L10.359,10.296L1.049,10.296L1.049,15.22L10.541,15.22L10.541,52.446L1.049,52.446L1.049,57.006L10.359,57.006L10.359,98.974L1.049,98.974L1.049,103.871L10.45,103.871L10.45,112.964L94.386,112.964L94.386,1.049L10.45,1.049ZM27.419,111.907L18.655,111.907L18.655,2.098L27.419,2.098L27.419,111.907ZM27.419,111.907"/>
  <path fill-opacity="1" stroke-linejoin="miter" stroke-dasharray="none" stroke-width="3px" stroke="none" fill="#000000" stroke-opacity="1" stroke-linecap="butt" stroke-miterlimit="10" data-name="Layer 1" fill-rule="nonzero" d="M9.751,1.042L9.66,10.289L10.359,9.597L1.049,9.597L0.35,9.597L0.35,10.296L0.35,15.22L0.35,15.92L1.049,15.92L10.541,15.92L9.841,15.22L9.841,52.446L10.541,51.746L1.049,51.746L0.35,51.746L0.35,52.446L0.35,57.006L0.35,57.706L1.049,57.706L10.359,57.706L9.66,57.006L9.66,98.974L10.359,98.275L1.049,98.275L0.35,98.275L0.35,98.974L0.35,103.871L0.35,104.57L1.049,104.57L10.45,104.57L9.751,103.871L9.751,112.964L9.751,113.663L10.45,113.663L94.386,113.663L95.085,113.663L95.085,112.964L95.085,1.049L95.085,0.35L94.386,0.35L10.45,0.35L9.757,0.35L9.751,1.042ZM11.149,1.056L10.45,1.749L94.386,1.749L93.686,1.049L93.686,112.964L94.386,112.264L10.45,112.264L11.149,112.964L11.149,103.871L11.149,103.171L10.45,103.171L1.049,103.171L1.749,103.871L1.749,98.974L1.049,99.674L10.359,99.674L11.059,99.674L11.059,98.974L11.059,57.006L11.059,56.307L10.359,56.307L1.049,56.307L1.749,57.006L1.749,52.446L1.049,53.145L10.541,53.145L11.24,53.145L11.24,52.446L11.24,15.22L11.24,14.521L10.541,14.521L1.049,14.521L1.749,15.22L1.749,10.296L1.049,10.996L10.359,10.996L11.052,10.996L11.059,10.303L11.149,1.056ZM27.419,111.208L18.655,111.208L19.354,111.907L19.354,2.098L18.655,2.798L27.419,2.798L26.72,2.098L26.72,111.907L27.419,111.208ZM27.419,112.607L28.119,112.607L28.119,111.907L28.119,2.098L28.119,1.399L27.419,1.399L18.655,1.399L17.955,1.399L17.955,2.098L17.955,111.907L17.955,112.607L18.655,112.607L27.419,112.607Z"/>
</g>
  <g id="Ultralight-M" transform="matrix(1.0,0.0,0.0,1.0,513.2824605425358,1033.763578643305)">  <path data-name="Layer 1" fill-opacity="1" stroke-linecap="butt" stroke-width="3px" stroke="none" fill-rule="nonzero" stroke-miterlimit="10" stroke-linejoin="miter" stroke-opacity="1" fill="#000000" stroke-dasharray="none" d="M10.45,1.049L10.359,10.296L1.049,10.296L1.049,15.22L10.541,15.22L10.541,52.446L1.049,52.446L1.049,57.006L10.359,57.006L10.359,98.974L1.049,98.974L1.049,103.871L10.45,103.871L10.45,112.964L94.386,112.964L94.386,1.049L10.45,1.049ZM27.419,111.907L18.655,111.907L18.655,2.098L27.419,2.098L27.419,111.907ZM27.419,111.907"/>
  <path fill-rule="nonzero" stroke="none" fill-opacity="1" stroke-opacity="1" stroke-dasharray="none" stroke-linejoin="miter" stroke-width="3px" data-name="Layer 1" stroke-linecap="butt" fill="#000000" stroke-miterlimit="10" d="M9.925,1.044L9.835,10.291L10.359,9.772L1.049,9.772L0.525,9.772L0.525,10.296L0.525,15.22L0.525,15.745L1.049,15.745L10.541,15.745L10.016,15.22L10.016,52.446L10.541,51.921L1.049,51.921L0.525,51.921L0.525,52.446L0.525,57.006L0.525,57.531L1.049,57.531L10.359,57.531L9.834,57.006L9.834,98.974L10.359,98.45L1.049,98.45L0.525,98.45L0.525,98.974L0.525,103.871L0.525,104.395L1.049,104.395L10.45,104.395L9.925,103.871L9.925,112.964L9.925,113.488L10.45,113.488L94.386,113.488L94.91,113.488L94.91,112.964L94.91,1.049L94.91,0.525L94.386,0.525L10.45,0.525L9.931,0.525L9.925,1.044ZM10.975,1.054L10.45,1.574L94.386,1.574L93.861,1.049L93.861,112.964L94.386,112.439L10.45,112.439L10.975,112.964L10.975,103.871L10.975,103.346L10.45,103.346L1.049,103.346L1.574,103.871L1.574,98.974L1.049,99.499L10.359,99.499L10.884,99.499L10.884,98.974L10.884,57.006L10.884,56.482L10.359,56.482L1.049,56.482L1.574,57.006L1.574,52.446L1.049,52.971L10.541,52.971L11.066,52.971L11.066,52.446L11.066,15.22L11.066,14.696L10.541,14.696L1.049,14.696L1.574,15.22L1.574,10.296L1.049,10.821L10.359,10.821L10.879,10.821L10.884,10.301L10.975,1.054ZM27.419,111.383L18.655,111.383L19.179,111.907L19.179,2.098L18.655,2.623L27.419,2.623L26.894,2.098L26.894,111.907L27.419,111.383ZM27.419,112.432L27.944,112.432L27.944,111.907L27.944,2.098L27.944,1.574L27.419,1.574L18.655,1.574L18.13,1.574L18.13,2.098L18.13,111.907L18.13,112.432L18.655,112.432L27.419,112.432Z"/>
</g>
  <g id="Black-S" transform="matrix(1.0,0.0,0.0,1.0,2897.317166604805,616.1339763159891)">  <path stroke-linejoin="miter" stroke-width="3px" fill-rule="nonzero" fill-opacity="1" stroke-opacity="1" stroke-dasharray="none" fill="#000000" stroke-linecap="butt" data-name="Layer 1" stroke-miterlimit="10" stroke="none" d="M8.182,0.822L8.111,8.062L0.822,8.062L0.822,11.918L8.254,11.918L8.254,41.065L0.822,41.065L0.822,44.636L8.111,44.636L8.111,77.497L0.822,77.497L0.822,81.331L8.182,81.331L8.182,88.451L73.904,88.451L73.904,0.822L8.182,0.822ZM21.469,87.624L14.607,87.624L14.607,1.643L21.469,1.643L21.469,87.624ZM21.469,87.624"/>
  <path fill="#000000" stroke="none" fill-rule="nonzero" stroke-miterlimit="10" stroke-dasharray="none" stroke-width="3px" stroke-linecap="butt" stroke-opacity="1" stroke-linejoin="miter" data-name="Layer 1" fill-opacity="1" d="M6.367,0.804L6.296,8.044L8.111,6.246L0.822,6.246L-0.994,6.246L-0.994,8.062L-0.994,11.918L-0.994,13.733L0.822,13.733L8.254,13.733L6.438,11.918L6.438,41.065L8.254,39.25L0.822,39.25L-0.994,39.25L-0.994,41.065L-0.994,44.636L-0.994,46.452L0.822,46.452L8.111,46.452L6.296,44.636L6.296,77.497L8.111,75.681L0.822,75.681L-0.994,75.681L-0.994,77.497L-0.994,81.331L-0.994,83.146L0.822,83.146L8.182,83.146L6.367,81.331L6.367,88.451L6.367,90.266L8.182,90.266L73.904,90.266L75.72,90.266L75.72,88.451L75.72,0.822L75.72,-0.994L73.904,-0.994L8.182,-0.994L6.385,-0.994L6.367,0.804ZM9.998,0.839L8.182,2.637L73.904,2.637L72.089,0.822L72.089,88.451L73.904,86.635L8.182,86.635L9.998,88.451L9.998,81.331L9.998,79.515L8.182,79.515L0.822,79.515L2.637,81.331L2.637,77.497L0.822,79.312L8.111,79.312L9.927,79.312L9.927,77.497L9.927,44.636L9.927,42.82L8.111,42.82L0.822,42.82L2.637,44.636L2.637,41.065L0.822,42.881L8.254,42.881L10.069,42.881L10.069,41.065L10.069,11.918L10.069,10.102L8.254,10.102L0.822,10.102L2.637,11.918L2.637,8.062L0.822,9.877L8.111,9.877L9.909,9.877L9.927,8.08L9.998,0.839ZM21.469,85.808L14.607,85.808L16.422,87.624L16.422,1.643L14.607,3.459L21.469,3.459L19.654,1.643L19.654,87.624L21.469,85.808ZM21.469,89.439L23.285,89.439L23.285,87.624L23.285,1.643L23.285,-0.173L21.469,-0.173L14.607,-0.173L12.791,-0.173L12.791,1.643L12.791,87.624L12.791,89.439L14.607,89.439L21.469,89.439Z"/>
</g>
  <g id="Heavy-S" transform="matrix(1.0,0.0,0.0,1.0,2600.607166604805,616.1339763159891)">  <path stroke="none" fill="#000000" stroke-miterlimit="10" stroke-opacity="1" stroke-dasharray="none" stroke-linecap="butt" data-name="Layer 1" stroke-linejoin="miter" fill-rule="nonzero" stroke-width="3px" fill-opacity="1" d="M8.182,0.822L8.111,8.062L0.822,8.062L0.822,11.918L8.254,11.918L8.254,41.065L0.822,41.065L0.822,44.636L8.111,44.636L8.111,77.497L0.822,77.497L0.822,81.331L8.182,81.331L8.182,88.451L73.904,88.451L73.904,0.822L8.182,0.822ZM21.469,87.624L14.607,87.624L14.607,1.643L21.469,1.643L21.469,87.624ZM21.469,87.624"/>
  <path stroke-width="3px" stroke-dasharray="none" fill-opacity="1" stroke-opacity="1" fill="#000000" data-name="Layer 1" stroke-miterlimit="10" stroke-linecap="butt" fill-rule="nonzero" stroke="none" stroke-linejoin="miter" d="M6.566,0.806L6.494,8.046L8.111,6.445L0.822,6.445L-0.795,6.445L-0.795,8.062L-0.795,11.918L-0.795,13.534L0.822,13.534L8.254,13.534L6.637,11.918L6.637,41.065L8.254,39.448L0.822,39.448L-0.795,39.448L-0.795,41.065L-0.795,44.636L-0.795,46.253L0.822,46.253L8.111,46.253L6.494,44.636L6.494,77.497L8.111,75.88L0.822,75.88L-0.795,75.88L-0.795,77.497L-0.795,81.331L-0.795,82.947L0.822,82.947L8.182,82.947L6.566,81.331L6.566,88.451L6.566,90.067L8.182,90.067L73.904,90.067L75.521,90.067L75.521,88.451L75.521,0.822L75.521,-0.795L73.904,-0.795L8.182,-0.795L6.581,-0.795L6.566,0.806ZM9.799,0.837L8.182,2.438L73.904,2.438L72.287,0.822L72.287,88.451L73.904,86.834L8.182,86.834L9.799,88.451L9.799,81.331L9.799,79.714L8.182,79.714L0.822,79.714L2.438,81.331L2.438,77.497L0.822,79.114L8.111,79.114L9.728,79.114L9.728,77.497L9.728,44.636L9.728,43.019L8.111,43.019L0.822,43.019L2.438,44.636L2.438,41.065L0.822,42.682L8.254,42.682L9.87,42.682L9.87,41.065L9.87,11.918L9.87,10.301L8.254,10.301L0.822,10.301L2.438,11.918L2.438,8.062L0.822,9.679L8.111,9.679L9.712,9.679L9.728,8.078L9.799,0.837ZM21.469,86.007L14.607,86.007L16.223,87.624L16.223,1.643L14.607,3.26L21.469,3.26L19.852,1.643L19.852,87.624L21.469,86.007ZM21.469,89.24L23.086,89.24L23.086,87.624L23.086,1.643L23.086,0.026L21.469,0.026L14.607,0.026L12.99,0.026L12.99,1.643L12.99,87.624L12.99,89.24L14.607,89.24L21.469,89.24Z"/>
</g>
  <g id="Bold-S" transform="matrix(1.0,0.0,0.0,1.0,2303.897166604805,616.1339763159891)">  <path stroke-linecap="butt" fill="#000000" stroke-miterlimit="10" fill-rule="nonzero" data-name="Layer 1" stroke="none" stroke-opacity="1" stroke-linejoin="miter" fill-opacity="1" stroke-width="3px" stroke-dasharray="none" d="M8.182,0.822L8.111,8.062L0.822,8.062L0.822,11.918L8.254,11.918L8.254,41.065L0.822,41.065L0.822,44.636L8.111,44.636L8.111,77.497L0.822,77.497L0.822,81.331L8.182,81.331L8.182,88.451L73.904,88.451L73.904,0.822L8.182,0.822ZM21.469,87.624L14.607,87.624L14.607,1.643L21.469,1.643L21.469,87.624ZM21.469,87.624"/>
  <path fill-rule="nonzero" stroke-linejoin="miter" stroke-linecap="butt" stroke-dasharray="none" fill-opacity="1" stroke-opacity="1" data-name="Layer 1" stroke="none" fill="#000000" stroke-miterlimit="10" stroke-width="3px" d="M6.764,0.808L6.693,8.048L8.111,6.644L0.822,6.644L-0.596,6.644L-0.596,8.062L-0.596,11.918L-0.596,13.336L0.822,13.336L8.254,13.336L6.836,11.918L6.836,41.065L8.254,39.647L0.822,39.647L-0.596,39.647L-0.596,41.065L-0.596,44.636L-0.596,46.054L0.822,46.054L8.111,46.054L6.693,44.636L6.693,77.497L8.111,76.079L0.822,76.079L-0.596,76.079L-0.596,77.497L-0.596,81.331L-0.596,82.749L0.822,82.749L8.182,82.749L6.764,81.331L6.764,88.451L6.764,89.869L8.182,89.869L73.904,89.869L75.322,89.869L75.322,88.451L75.322,0.822L75.322,-0.596L73.904,-0.596L8.182,-0.596L6.778,-0.596L6.764,0.808ZM9.6,0.835L8.182,2.239L73.904,2.239L72.486,0.822L72.486,88.451L73.904,87.033L8.182,87.033L9.6,88.451L9.6,81.331L9.6,79.913L8.182,79.913L0.822,79.913L2.239,81.331L2.239,77.497L0.822,78.915L8.111,78.915L9.529,78.915L9.529,77.497L9.529,44.636L9.529,43.218L8.111,43.218L0.822,43.218L2.239,44.636L2.239,41.065L0.822,42.483L8.254,42.483L9.672,42.483L9.672,41.065L9.672,11.918L9.672,10.5L8.254,10.5L0.822,10.5L2.239,11.918L2.239,8.062L0.822,9.48L8.111,9.48L9.515,9.48L9.529,8.076L9.6,0.835ZM21.469,86.206L14.607,86.206L16.025,87.624L16.025,1.643L14.607,3.061L21.469,3.061L20.051,1.643L20.051,87.624L21.469,86.206ZM21.469,89.042L22.887,89.042L22.887,87.624L22.887,1.643L22.887,0.225L21.469,0.225L14.607,0.225L13.189,0.225L13.189,1.643L13.189,87.624L13.189,89.042L14.607,89.042L21.469,89.042Z"/>
</g>
  <g id="Semibold-S" transform="matrix(1.0,0.0,0.0,1.0,2007.1871666048055,616.1339763159891)">  <path fill-rule="nonzero" fill-opacity="1" stroke="none" stroke-linecap="butt" stroke-linejoin="miter" stroke-width="3px" data-name="Layer 1" stroke-miterlimit="10" stroke-opacity="1" fill="#000000" stroke-dasharray="none" d="M8.182,0.822L8.111,8.062L0.822,8.062L0.822,11.918L8.254,11.918L8.254,41.065L0.822,41.065L0.822,44.636L8.111,44.636L8.111,77.497L0.822,77.497L0.822,81.331L8.182,81.331L8.182,88.451L73.904,88.451L73.904,0.822L8.182,0.822ZM21.469,87.624L14.607,87.624L14.607,1.643L21.469,1.643L21.469,87.624ZM21.469,87.624"/>
  <path fill-opacity="1" fill-rule="nonzero" stroke-dasharray="none" stroke-opacity="1" stroke-linejoin="miter" fill="#000000" stroke-linecap="butt" stroke-miterlimit="10" stroke-width="3px" stroke="none" data-name="Layer 1" d="M6.963,0.81L6.892,8.05L8.111,6.843L0.822,6.843L-0.398,6.843L-0.398,8.062L-0.398,11.918L-0.398,13.137L0.822,13.137L8.254,13.137L7.034,11.918L7.034,41.065L8.254,39.846L0.822,39.846L-0.398,39.846L-0.398,41.065L-0.398,44.636L-0.398,45.855L0.822,45.855L8.111,45.855L6.892,44.636L6.892,77.497L8.111,76.278L0.822,76.278L-0.398,76.278L-0.398,77.497L-0.398,81.331L-0.398,82.55L0.822,82.55L8.182,82.55L6.963,81.331L6.963,88.451L6.963,89.67L8.182,89.67L73.904,89.67L75.123,89.67L75.123,88.451L75.123,0.822L75.123,-0.398L73.904,-0.398L8.182,-0.398L6.975,-0.398L6.963,0.81ZM9.401,0.834L8.182,2.041L73.904,2.041L72.685,0.822L72.685,88.451L73.904,87.231L8.182,87.231L9.402,88.451L9.402,81.331L9.402,80.112L8.182,80.112L0.822,80.112L2.041,81.331L2.041,77.497L0.822,78.716L8.111,78.716L9.33,78.716L9.33,77.497L9.33,44.636L9.33,43.417L8.111,43.417L0.822,43.417L2.041,44.636L2.041,41.065L0.822,42.284L8.254,42.284L9.473,42.284L9.473,41.065L9.473,11.918L9.473,10.698L8.254,10.698L0.822,10.698L2.041,11.918L2.041,8.062L0.822,9.281L8.111,9.281L9.318,9.281L9.33,8.074L9.401,0.834ZM21.469,86.404L14.607,86.404L15.826,87.624L15.826,1.643L14.607,2.862L21.469,2.862L20.25,1.643L20.25,87.624L21.469,86.404ZM21.469,88.843L22.688,88.843L22.688,87.624L22.688,1.643L22.688,0.424L21.469,0.424L14.607,0.424L13.388,0.424L13.388,1.643L13.388,87.624L13.388,88.843L14.607,88.843L21.469,88.843Z"/>
</g>
  <g id="Medium-S" transform="matrix(1.0,0.0,0.0,1.0,1710.4771666048055,616.1339763159891)">  <path stroke-linejoin="miter" stroke-linecap="butt" fill="#000000" stroke-dasharray="none" fill-opacity="1" data-name="Layer 1" stroke="none" stroke-width="3px" stroke-miterlimit="10" fill-rule="nonzero" stroke-opacity="1" d="M8.182,0.822L8.111,8.062L0.822,8.062L0.822,11.918L8.254,11.918L8.254,41.065L0.822,41.065L0.822,44.636L8.111,44.636L8.111,77.497L0.822,77.497L0.822,81.331L8.182,81.331L8.182,88.451L73.904,88.451L73.904,0.822L8.182,0.822ZM21.469,87.624L14.607,87.624L14.607,1.643L21.469,1.643L21.469,87.624ZM21.469,87.624"/>
  <path stroke-miterlimit="10" stroke-linejoin="miter" stroke-dasharray="none" stroke-linecap="butt" fill-rule="nonzero" data-name="Layer 1" stroke-width="3px" fill-opacity="1" stroke-opacity="1" stroke="none" fill="#000000" d="M7.162,0.811L7.091,8.052L8.111,7.042L0.822,7.042L-0.199,7.042L-0.199,8.062L-0.199,11.918L-0.199,12.938L0.822,12.938L8.254,12.938L7.233,11.918L7.233,41.065L8.254,40.045L0.822,40.045L-0.199,40.045L-0.199,41.065L-0.199,44.636L-0.199,45.656L0.822,45.656L8.111,45.656L7.091,44.636L7.091,77.497L8.111,76.477L0.822,76.477L-0.199,76.477L-0.199,77.497L-0.199,81.331L-0.199,82.351L0.822,82.351L8.182,82.351L7.162,81.331L7.162,88.451L7.162,89.471L8.182,89.471L73.904,89.471L74.924,89.471L74.924,88.451L74.924,0.822L74.924,-0.199L73.904,-0.199L8.182,-0.199L7.172,-0.199L7.162,0.811ZM9.203,0.832L8.182,1.842L73.904,1.842L72.884,0.822L72.884,88.451L73.904,87.43L8.182,87.43L9.203,88.451L9.203,81.331L9.203,80.31L8.182,80.31L0.822,80.31L1.842,81.331L1.842,77.497L0.822,78.517L8.111,78.517L9.131,78.517L9.131,77.497L9.131,44.636L9.131,43.616L8.111,43.616L0.822,43.616L1.842,44.636L1.842,41.065L0.822,42.085L8.254,42.085L9.274,42.085L9.274,41.065L9.274,11.918L9.274,10.897L8.254,10.897L0.822,10.897L1.842,11.918L1.842,8.062L0.822,9.082L8.111,9.082L9.122,9.082L9.131,8.072L9.203,0.832ZM21.469,86.603L14.607,86.603L15.627,87.624L15.627,1.643L14.607,2.663L21.469,2.663L20.449,1.643L20.449,87.624L21.469,86.603ZM21.469,88.644L22.489,88.644L22.489,87.624L22.489,1.643L22.489,0.623L21.469,0.623L14.607,0.623L13.586,0.623L13.586,1.643L13.586,87.624L13.586,88.644L14.607,88.644L21.469,88.644Z"/>
</g>
  <g id="Regular-S" transform="matrix(1.0,0.0,0.0,1.0,1413.7671666048054,616.1339763159891)">  <path data-name="Layer 1" stroke-linejoin="miter" stroke-linecap="butt" fill="#000000" stroke-dasharray="none" stroke-opacity="1" stroke="none" stroke-width="3px" fill-rule="nonzero" fill-opacity="1" stroke-miterlimit="10" d="M8.182,0.822L8.111,8.062L0.822,8.062L0.822,11.918L8.254,11.918L8.254,41.065L0.822,41.065L0.822,44.636L8.111,44.636L8.111,77.497L0.822,77.497L0.822,81.331L8.182,81.331L8.182,88.451L73.904,88.451L73.904,0.822L8.182,0.822ZM21.469,87.624L14.607,87.624L14.607,1.643L21.469,1.643L21.469,87.624ZM21.469,87.624"/>
  <path stroke-linejoin="miter" fill-rule="nonzero" stroke-miterlimit="10" stroke-width="3px" stroke-linecap="butt" fill="#000000" fill-opacity="1" stroke-opacity="1" stroke-dasharray="none" stroke="none" data-name="Layer 1" d="M7.361,0.813L7.29,8.054L8.111,7.24L0.822,7.24L0,7.24L0,8.062L0,11.918L0,12.739L0.822,12.739L8.254,12.739L7.432,11.918L7.432,41.065L8.254,40.244L0.822,40.244L0,40.244L0,41.065L0,44.636L0,45.458L0.822,45.458L8.111,45.458L7.29,44.636L7.29,77.497L8.111,76.675L0.822,76.675L0,76.675L0,77.497L0,81.331L0,82.152L0.822,82.152L8.182,82.152L7.361,81.331L7.361,88.451L7.361,89.272L8.182,89.272L73.904,89.272L74.726,89.272L74.726,88.451L74.726,0.822L74.726,0L73.904,0L8.182,0L7.369,0L7.361,0.813ZM9.004,0.83L8.182,1.643L73.904,1.643L73.083,0.822L73.083,88.451L73.904,87.629L8.182,87.629L9.004,88.451L9.004,81.331L9.004,80.509L8.182,80.509L0.822,80.509L1.643,81.331L1.643,77.497L0.822,78.318L8.111,78.318L8.933,78.318L8.933,77.497L8.933,44.636L8.933,43.815L8.111,43.815L0.822,43.815L1.643,44.636L1.643,41.065L0.822,41.887L8.254,41.887L9.075,41.887L9.075,41.065L9.075,11.918L9.075,11.096L8.254,11.096L0.822,11.096L1.643,11.918L1.643,8.062L0.822,8.883L8.111,8.883L8.925,8.883L8.933,8.07L9.004,0.83ZM21.469,86.802L14.607,86.802L15.428,87.624L15.428,1.643L14.607,2.465L21.469,2.465L20.648,1.643L20.648,87.624L21.469,86.802ZM21.469,88.445L22.291,88.445L22.291,87.624L22.291,1.643L22.291,0.822L21.469,0.822L14.607,0.822L13.785,0.822L13.785,1.643L13.785,87.624L13.785,88.445L14.607,88.445L21.469,88.445Z"/>
</g>
  <g id="Light-S" transform="matrix(1.0,0.0,0.0,1.0,1117.0571666048056,616.1339763159891)">  <path data-name="Layer 1" fill="#000000" fill-rule="nonzero" stroke-linecap="butt" stroke-width="3px" stroke-miterlimit="10" stroke-opacity="1" stroke-dasharray="none" stroke="none" stroke-linejoin="miter" fill-opacity="1" d="M8.182,0.822L8.111,8.062L0.822,8.062L0.822,11.918L8.254,11.918L8.254,41.065L0.822,41.065L0.822,44.636L8.111,44.636L8.111,77.497L0.822,77.497L0.822,81.331L8.182,81.331L8.182,88.451L73.904,88.451L73.904,0.822L8.182,0.822ZM21.469,87.624L14.607,87.624L14.607,1.643L21.469,1.643L21.469,87.624ZM21.469,87.624"/>
  <path stroke-linecap="butt" data-name="Layer 1" stroke-linejoin="miter" stroke-dasharray="none" fill-rule="nonzero" stroke-width="3px" stroke-miterlimit="10" fill-opacity="1" stroke-opacity="1" fill="#000000" stroke="none" d="M7.498,0.815L7.427,8.055L8.111,7.377L0.822,7.377L0.137,7.377L0.137,8.062L0.137,11.918L0.137,12.602L0.822,12.602L8.254,12.602L7.569,11.918L7.569,41.065L8.254,40.381L0.822,40.381L0.137,40.381L0.137,41.065L0.137,44.636L0.137,45.321L0.822,45.321L8.111,45.321L7.427,44.636L7.427,77.497L8.111,76.812L0.822,76.812L0.137,76.812L0.137,77.497L0.137,81.331L0.137,82.015L0.822,82.015L8.182,82.015L7.498,81.331L7.498,88.451L7.498,89.135L8.182,89.135L73.904,89.135L74.589,89.135L74.589,88.451L74.589,0.822L74.589,0.137L73.904,0.137L8.182,0.137L7.504,0.137L7.498,0.815ZM8.867,0.828L8.182,1.506L73.904,1.506L73.22,0.822L73.22,88.451L73.904,87.766L8.182,87.766L8.867,88.451L8.867,81.331L8.867,80.646L8.182,80.646L0.822,80.646L1.506,81.331L1.506,77.497L0.822,78.182L8.111,78.182L8.796,78.182L8.796,77.497L8.796,44.636L8.796,43.951L8.111,43.951L0.822,43.951L1.506,44.636L1.506,41.065L0.822,41.75L8.254,41.75L8.938,41.75L8.938,41.065L8.938,11.918L8.938,11.233L8.254,11.233L0.822,11.233L1.506,11.918L1.506,8.062L0.822,8.746L8.111,8.746L8.789,8.746L8.796,8.069L8.867,0.828ZM21.469,86.939L14.607,86.939L15.291,87.624L15.291,1.643L14.607,2.328L21.469,2.328L20.785,1.643L20.785,87.624L21.469,86.939ZM21.469,88.308L22.154,88.308L22.154,87.624L22.154,1.643L22.154,0.958L21.469,0.958L14.607,0.958L13.922,0.958L13.922,1.643L13.922,87.624L13.922,88.308L14.607,88.308L21.469,88.308Z"/>
</g>
  <g id="Thin-S" transform="matrix(1.0,0.0,0.0,1.0,820.3471666048056,616.1339763159891)">  <path stroke-width="3px" stroke-linecap="butt" fill-opacity="1" stroke-opacity="1" stroke-miterlimit="10" stroke-dasharray="none" data-name="Layer 1" fill-rule="nonzero" stroke="none" stroke-linejoin="miter" fill="#000000" d="M8.182,0.822L8.111,8.062L0.822,8.062L0.822,11.918L8.254,11.918L8.254,41.065L0.822,41.065L0.822,44.636L8.111,44.636L8.111,77.497L0.822,77.497L0.822,81.331L8.182,81.331L8.182,88.451L73.904,88.451L73.904,0.822L8.182,0.822ZM21.469,87.624L14.607,87.624L14.607,1.643L21.469,1.643L21.469,87.624ZM21.469,87.624"/>
  <path fill-opacity="1" stroke-linejoin="miter" stroke-dasharray="none" stroke-width="3px" stroke="none" fill="#000000" stroke-opacity="1" stroke-linecap="butt" stroke-miterlimit="10" data-name="Layer 1" fill-rule="nonzero" d="M7.635,0.816L7.564,8.057L8.111,7.514L0.822,7.514L0.274,7.514L0.274,8.062L0.274,11.918L0.274,12.465L0.822,12.465L8.254,12.465L7.706,11.918L7.706,41.065L8.254,40.517L0.822,40.517L0.274,40.517L0.274,41.065L0.274,44.636L0.274,45.184L0.822,45.184L8.111,45.184L7.563,44.636L7.563,77.497L8.111,76.949L0.822,76.949L0.274,76.949L0.274,77.497L0.274,81.331L0.274,81.878L0.822,81.878L8.182,81.878L7.635,81.331L7.635,88.451L7.635,88.998L8.182,88.998L73.904,88.998L74.452,88.998L74.452,88.451L74.452,0.822L74.452,0.274L73.904,0.274L8.182,0.274L7.64,0.274L7.635,0.816ZM8.73,0.827L8.182,1.369L73.904,1.369L73.356,0.822L73.356,88.451L73.904,87.903L8.182,87.903L8.73,88.451L8.73,81.331L8.73,80.783L8.182,80.783L0.822,80.783L1.369,81.331L1.369,77.497L0.822,78.045L8.111,78.045L8.659,78.045L8.659,77.497L8.659,44.636L8.659,44.088L8.111,44.088L0.822,44.088L1.369,44.636L1.369,41.065L0.822,41.613L8.254,41.613L8.801,41.613L8.801,41.065L8.801,11.918L8.801,11.37L8.254,11.37L0.822,11.37L1.369,11.918L1.369,8.062L0.822,8.61L8.111,8.61L8.653,8.61L8.659,8.067L8.73,0.827ZM21.469,87.076L14.607,87.076L15.154,87.624L15.154,1.643L14.607,2.191L21.469,2.191L20.921,1.643L20.921,87.624L21.469,87.076ZM21.469,88.171L22.017,88.171L22.017,87.624L22.017,1.643L22.017,1.095L21.469,1.095L14.607,1.095L14.059,1.095L14.059,1.643L14.059,87.624L14.059,88.171L14.607,88.171L21.469,88.171Z"/>
</g>
  <g id="Ultralight-S" transform="matrix(1.0,0.0,0.0,1.0,523.6371666048055,616.1339763159891)">  <path data-name="Layer 1" fill-opacity="1" stroke-linecap="butt" stroke-width="3px" stroke="none" fill-rule="nonzero" stroke-miterlimit="10" stroke-linejoin="miter" stroke-opacity="1" fill="#000000" stroke-dasharray="none" d="M8.182,0.822L8.111,8.062L0.822,8.062L0.822,11.918L8.254,11.918L8.254,41.065L0.822,41.065L0.822,44.636L8.111,44.636L8.111,77.497L0.822,77.497L0.822,81.331L8.182,81.331L8.182,88.451L73.904,88.451L73.904,0.822L8.182,0.822ZM21.469,87.624L14.607,87.624L14.607,1.643L21.469,1.643L21.469,87.624ZM21.469,87.624"/>
  <path fill-rule="nonzero" stroke="none" fill-opacity="1" stroke-opacity="1" stroke-dasharray="none" stroke-linejoin="miter" stroke-width="3px" data-name="Layer 1" stroke-linecap="butt" fill="#000000" stroke-miterlimit="10" d="M7.772,0.817L7.7,8.058L8.111,7.651L0.822,7.651L0.411,7.651L0.411,8.062L0.411,11.918L0.411,12.328L0.822,12.328L8.254,12.328L7.843,11.918L7.843,41.065L8.254,40.654L0.822,40.654L0.411,40.654L0.411,41.065L0.411,44.636L0.411,45.047L0.822,45.047L8.111,45.047L7.7,44.636L7.7,77.497L8.111,77.086L0.822,77.086L0.411,77.086L0.411,77.497L0.411,81.331L0.411,81.741L0.822,81.741L8.182,81.741L7.772,81.331L7.772,88.451L7.772,88.861L8.182,88.861L73.904,88.861L74.315,88.861L74.315,88.451L74.315,0.822L74.315,0.411L73.904,0.411L8.182,0.411L7.776,0.411L7.772,0.817ZM8.593,0.826L8.182,1.232L73.904,1.232L73.493,0.822L73.493,88.451L73.904,88.04L8.182,88.04L8.593,88.451L8.593,81.331L8.593,80.92L8.182,80.92L0.822,80.92L1.232,81.331L1.232,77.497L0.822,77.908L8.111,77.908L8.522,77.908L8.522,77.497L8.522,44.636L8.522,44.225L8.111,44.225L0.822,44.225L1.232,44.636L1.232,41.065L0.822,41.476L8.254,41.476L8.664,41.476L8.664,41.065L8.664,11.918L8.664,11.507L8.254,11.507L0.822,11.507L1.232,11.918L1.232,8.062L0.822,8.473L8.111,8.473L8.518,8.473L8.522,8.066L8.593,0.826ZM21.469,87.213L14.607,87.213L15.017,87.624L15.017,1.643L14.607,2.054L21.469,2.054L21.058,1.643L21.058,87.624L21.469,87.213ZM21.469,88.034L21.88,88.034L21.88,87.624L21.88,1.643L21.88,1.232L21.469,1.232L14.607,1.232L14.196,1.232L14.196,1.643L14.196,87.624L14.196,88.034L14.607,88.034L21.469,88.034Z"/>
</g>
 </g>
</svg>
